<?xml version="1.0" standalone="no"?>
<!DOCTYPE svg PUBLIC "-//W3C//DTD SVG 1.1//EN" "http://www.w3.org/Graphics/SVG/1.1/DTD/svg11.dtd" >
<svg xmlns="http://www.w3.org/2000/svg" xmlns:xlink="http://www.w3.org/1999/xlink" version="1.1">
<metadata>
Created by FontForge 20170731 at Wed Nov 25 16:54:35 2015
 By Aleksey,,,
Copyright (c) 2015 by Pascal Zoghbi. All rights reserved.
</metadata>
<defs>
<font id="ExpoArabic-Bold" horiz-adv-x="0" >
  <font-face 
    font-family="Expo Arabic Bold"
    font-weight="700"
    font-stretch="normal"
    units-per-em="1000"
    panose-1="0 0 8 0 0 0 0 0 0 0"
    ascent="750"
    descent="-250"
    x-height="500"
    cap-height="689"
    bbox="-215 -544 1372 1154"
    underline-thickness="40"
    underline-position="-230"
    unicode-range="U+0020-FEFC"
  />
<missing-glyph horiz-adv-x="281" 
 />
    <glyph glyph-name="uniFEF5" unicode="&#xfedf;&#xfe82;" horiz-adv-x="665" arabic-form="isolated" 
d="M139 672q-44 0 -50 -39h-72q0 63 30 97.5t81 34.5q22 0 64 -18.5t65 -18.5q45 0 79 25l-1 -94q-34 -24 -77 -24q-23 0 -61.5 18.5t-57.5 18.5zM435 712l156 18l-1 -518q0 -212 -240 -212h-315l-23 165h172l-77 394l153 39l69 -433h21h1q43 0 63 25t20 78z" />
    <glyph glyph-name="uniFEF6" unicode="&#xfee0;&#xfe82;" horiz-adv-x="678" arabic-form="final" 
d="M139 672q-44 0 -50 -39h-72q0 63 30 97.5t81 34.5q22 0 64 -18.5t65 -18.5q45 0 79 25l-1 -94q-34 -24 -77 -24q-23 0 -61.5 18.5t-57.5 18.5zM687 155l1 -144q0 -11 -10 -11q-122 0 -182 54q-45 -22 -121.5 -38t-127.5 -16h-212l-23 165h172l-77 394l153 39l68 -428
q55 6 111 16q-1 9 -1 26l-1 500l156 18l1 -462q0 -53 20 -78t63 -25q10 0 10 -10z" />
    <glyph glyph-name="uniFEF7" unicode="&#xfedf;&#xfe84;" horiz-adv-x="665" arabic-form="isolated" 
d="M304 731l-19 -84h-238v84h43q-11 21 -11 49q0 39 27.5 65t70.5 26q46 0 90 -20v-76q-38 15 -63 15q-38 0 -38 -28q0 -18 10 -31h128zM435 712l156 18l-1 -518q0 -212 -240 -212h-315l-23 165h172l-77 394l153 39l69 -433h21h1q43 0 63 25t20 78z" />
    <glyph glyph-name="uniFEF8" unicode="&#xfee0;&#xfe84;" horiz-adv-x="678" arabic-form="final" 
d="M304 731l-19 -84h-238v84h43q-11 21 -11 49q0 39 27.5 65t70.5 26q46 0 90 -20v-76q-38 15 -63 15q-38 0 -38 -28q0 -18 10 -31h128zM687 155l1 -144q0 -11 -10 -11q-122 0 -182 54q-45 -22 -121.5 -38t-127.5 -16h-212l-23 165h172l-77 394l153 39l68 -428q55 6 111 16
q-1 9 -1 26l-1 500l156 18l1 -462q0 -53 20 -78t63 -25q10 0 10 -10z" />
    <glyph glyph-name="uniFEF9" unicode="&#xfedf;&#xfe88;" horiz-adv-x="665" arabic-form="isolated" 
d="M435 712l156 18l-1 -518q0 -212 -240 -212h-315l-23 165h172l-77 394l153 39l69 -433h21h1q43 0 63 25t20 78zM287 -146q0 -17 11 -31h127l-18 -83h-238v83h42q-11 24 -11 50q0 38 28 64t71 26q48 0 90 -19v-76q-39 15 -64 15q-17 0 -27.5 -8t-10.5 -21z" />
    <glyph glyph-name="uniFEFA" unicode="&#xfee0;&#xfe88;" horiz-adv-x="678" arabic-form="final" 
d="M687 155l1 -144q0 -11 -10 -11q-122 0 -182 54q-45 -22 -121.5 -38t-127.5 -16h-212l-23 165h172l-77 394l153 39l68 -428q55 6 111 16q-1 9 -1 26l-1 500l156 18l1 -462q0 -53 20 -78t63 -25q10 0 10 -10zM290 -146q0 -17 11 -31h127l-18 -84h-238v84h42q-11 24 -11 49
q0 39 28 65t71 26q46 0 90 -20v-76q-39 15 -64 15q-17 0 -27.5 -7.5t-10.5 -20.5z" />
    <glyph glyph-name="uniFEFB" unicode="&#xfedf;&#xfe8e;" horiz-adv-x="665" arabic-form="isolated" 
d="M435 712l156 18l-1 -518q0 -212 -240 -212h-315l-23 165h172l-77 394l153 39l69 -433h21h1q43 0 63 25t20 78z" />
    <glyph glyph-name="uniFEFC" unicode="&#xfee0;&#xfe8e;" horiz-adv-x="678" arabic-form="final" 
d="M687 155l1 -144q0 -11 -10 -11q-122 0 -182 54q-45 -22 -121.5 -38t-127.5 -16h-212l-23 165h172l-77 394l153 39l68 -428q55 6 111 16q-1 9 -1 26l-1 500l156 18l1 -462q0 -53 20 -78t63 -25q10 0 10 -10z" />
    <glyph glyph-name="uni066E.init" unicode="&#x66e;" horiz-adv-x="287" 
d="M0 0q-10 0 -10 11l2 144q0 10 10 10q83 0 83 102l-1 221l156 19v-297q0 -210 -240 -210z" />
    <glyph glyph-name="uni066E.medi" unicode="&#x66e;" horiz-adv-x="345" 
d="M345 165q10 0 10 -10v-144q0 -11 -10 -11q-89 0 -153 64q-61 -64 -192 -64q-10 0 -10 11l2 144q0 10 10 10q83 0 83 102l-1 120l156 18v-195v-16q48 -29 105 -29z" />
    <glyph glyph-name="uni066E.fina" unicode="&#x66e;" horiz-adv-x="863" 
d="M863 165q10 0 10 -10v-144q0 -11 -10 -11q-88 0 -154 64q-54 -58 -169 -64h-3h-260q-251 0 -251 238q0 82 25 202l134 -16q-14 -98 -14 -140q0 -61 34.5 -90t110.5 -29h204q83 0 83 102l-1 120l156 18v-195v-15q47 -30 105 -30z" />
    <glyph glyph-name="uni066F.fina" unicode="&#x66f;" horiz-adv-x="804" 
d="M804 165q10 0 10 -10v-144q0 -11 -10 -11h-55q-19 -106 -111 -160.5t-272 -54.5q-161 0 -250.5 69.5t-89.5 197.5q0 103 43 233l126 -34q-28 -89 -28 -153q2 -177 220 -177q171 0 209 79h-85q-106 0 -170.5 67.5t-64.5 179.5q0 111 70.5 184.5t173.5 73.5
q103 -1 168.5 -68t65.5 -182v-90h50zM415 252q0 -47 30.5 -71.5t79.5 -24.5q22 0 74 4v85q0 48 -25 75t-66 27q-39 1 -66 -25.5t-27 -69.5z" />
    <glyph glyph-name="uni06A1.init" unicode="&#x6a1;" horiz-adv-x="550" 
d="M269 515q107 0 177 -68.5t70 -173.5q0 -125 -77 -199t-209 -74h-230q-10 0 -10 11v144q0 10 10 10h62q-30 63 -30 117q0 101 68 167t169 66zM231 165q60 0 94.5 29.5t34.5 79.5q0 40 -26.5 66t-66.5 26t-68 -28.5t-28 -69.5q0 -45 28 -103h32z" />
    <glyph glyph-name="uni06A1.medi" unicode="&#x6a1;" horiz-adv-x="554" 
d="M554 165q10 0 10 -10v-144q0 -11 -10 -11q-119 0 -263 50q-121 -50 -291 -50q-10 2 -10 11v144q0 10 10 10q56 0 97 4q-44 58 -44 131q0 92 62.5 153.5t163.5 61.5t165.5 -64t64.5 -152q0 -68 -47 -128q42 -6 92 -6zM271 366q-38 0 -61.5 -25.5t-23.5 -61.5q0 -34 23 -63
t63 -44q40 17 63.5 46t23.5 61q0 38 -26.5 62.5t-61.5 24.5z" />
    <glyph glyph-name="uni06A1.fina" unicode="&#x6a1;" horiz-adv-x="950" 
d="M957 165q10 0 10 -10v-144q0 -11 -10 -11q-119 0 -263 50q-120 -48 -280 -50h-1h-138q-249 0 -249 226q0 75 19 162l134 -16q-10 -67 -10 -98q0 -57 35 -83t110 -26h89q55 0 98 4q-45 57 -45 131q0 92 62.5 153.5t164.5 61.5q100 0 164.5 -64t64.5 -152q0 -68 -47 -128
q42 -6 92 -6zM674 366q-38 0 -61 -25.5t-23 -61.5q0 -33 22.5 -62.5t62.5 -44.5q41 17 64.5 46t23.5 61q0 38 -27 62.5t-62 24.5z" />
    <glyph glyph-name="uniFB6B" unicode="&#x6a4;" horiz-adv-x="950" arabic-form="final" 
d="M756 825l-67 -67l-66 67l65 67zM688 658l-78 -78l-104 104l103 103l79 -77l78 77l104 -103l-102 -104zM957 165q10 0 10 -10v-144q0 -11 -10 -11q-119 0 -263 50q-120 -48 -279 -50h-1h-139q-249 0 -249 226q0 77 20 162l134 -16q-11 -65 -11 -98q0 -57 35 -83t110 -26
h89q55 0 98 4q-45 57 -45 131q0 92 62.5 153.5t163.5 61.5t165.5 -64t64.5 -152q0 -69 -48 -128q43 -6 93 -6zM674 366q-38 0 -61.5 -25.5t-23.5 -61.5q0 -33 23 -62.5t63 -44.5q40 17 63.5 46t23.5 61q0 38 -26.5 62.5t-61.5 24.5z" />
    <glyph glyph-name="uniFB6C" unicode="&#x6a4;" horiz-adv-x="550" arabic-form="initial" 
d="M328 825l-67 -67l-66 67l65 67zM260 658l-78 -78l-104 104l103 103l79 -77l78 77l104 -103l-102 -104zM269 515q107 0 177 -68.5t70 -173.5q0 -125 -77 -199t-209 -74h-230q-10 0 -10 11v144q0 10 10 10h62q-30 63 -30 117q0 101 68 167t169 66zM231 165q60 0 94.5 29.5
t34.5 79.5q0 40 -26.5 66t-66.5 26t-68 -28.5t-28 -69.5q0 -45 28 -103h32z" />
    <glyph glyph-name="uniFB6D" unicode="&#x6a4;" horiz-adv-x="554" arabic-form="medial" 
d="M332 825l-67 -67l-66 67l65 67zM264 658l-78 -78l-104 104l103 103l79 -77l78 77l104 -103l-102 -104zM554 165q10 0 10 -10v-144q0 -11 -10 -11q-119 0 -263 50q-121 -50 -291 -50q-10 2 -10 11v144q0 10 10 10q56 0 97 4q-44 58 -44 131q0 92 62.5 153.5t163.5 61.5
t165.5 -64t64.5 -152q0 -68 -47 -128q42 -6 92 -6zM271 366q-38 0 -61.5 -25.5t-23.5 -61.5q0 -34 23 -63t63 -44q40 17 63.5 46t23.5 61q0 38 -26.5 62.5t-61.5 24.5z" />
    <glyph glyph-name="uniFB9F" unicode="&#x6ba;" horiz-adv-x="738" arabic-form="final" 
d="M738 165q10 0 10 -10v-144q0 -11 -10 -11q-68 0 -108 45q-13 -124 -91 -192t-214 -68q-299 0 -299 267q0 103 43 233l126 -34q-28 -89 -28 -153q1 -148 158 -148q152 0 151 165v373l156 19v-250q1 -43 30.5 -67.5t75.5 -24.5z" />
    <glyph glyph-name="uniFE82" unicode="&#x622;" horiz-adv-x="315" arabic-form="final" 
d="M98 775q22 0 64 -18.5t65 -18.5q45 0 79 25l-1 -94q-35 -25 -77 -25q-23 0 -61.5 18.5t-57.5 18.5q-44 0 -50 -39h-72q0 63 30 98t81 35zM315 0q-240 0 -240 212l-1 378l156 18l1 -340q0 -53 20 -78t63 -25q10 0 10 -10l1 -144q0 -11 -10 -11z" />
    <glyph glyph-name="uniFE84" unicode="&#x623;" horiz-adv-x="315" arabic-form="final" 
d="M284 739l-18 -84h-238v84h42q-11 24 -11 49q0 39 28 65t71 26q46 0 90 -20v-76q-39 15 -64 15q-17 0 -27.5 -7.5t-10.5 -20.5q0 -17 11 -31h127zM324 155l1 -144q0 -11 -10 -11q-240 0 -240 212l-1 378l156 18l1 -340q0 -53 20 -78t63 -25q10 0 10 -10z" />
    <glyph glyph-name="uniFE86" unicode="&#x624;" horiz-adv-x="561" arabic-form="final" 
d="M414 676l-32 -101h-234v101h50q-15 26 -15 53q0 47 32.5 76.5t82.5 29.5q34 0 78 -21v-89q-42 14 -68 14q-44 0 -44 -32q0 -16 12 -31h138zM561 165q10 0 10 -10v-144q0 -11 -10 -11h-49q-19 -215 -410 -215l-16 127q127 0 191 20.5t77 67.5h-84q-107 0 -172 68.5
t-65 180.5q0 110 71 184t175 74q103 0 168.5 -68t65.5 -182v-92h48zM173 254q0 -48 31 -73t80 -25q22 0 74 4v86q0 48 -25 75.5t-66 27.5q-39 0 -66.5 -26.5t-27.5 -68.5z" />
    <glyph glyph-name="uniFE88" unicode="&#x625;" horiz-adv-x="315" arabic-form="final" 
d="M324 155l1 -144q0 -11 -10 -11q-240 0 -240 212l-1 500l156 18l1 -462q0 -53 20 -78t63 -25q10 0 10 -10zM150 -149q0 -17 11 -31h127l-18 -84h-238v84h42q-11 24 -11 49q0 39 28 65t71 26q46 0 90 -20v-76q-39 15 -64 15q-17 0 -27.5 -7.5t-10.5 -20.5z" />
    <glyph glyph-name="uniFE8A" unicode="&#x626;" horiz-adv-x="1040" arabic-form="final" 
d="M284 469l-32 -101h-234v101h50q-15 25 -15 53q0 47 32.5 76.5t82.5 29.5q34 0 78 -21v-89q-42 14 -68 14q-44 0 -44 -32q0 -16 12 -31h138zM1040 165q10 0 10 -10v-144q0 -11 -10 -11h-267v329h-57q-84 0 -84 -101v-146q0 -148 -73.5 -222.5t-233.5 -74.5
q-299 0 -299 267q0 103 43 233l126 -34q-28 -89 -28 -153q1 -148 158 -148q79 0 115 35.5t36 117.5v164q0 104 54.5 165.5t155.5 61.5h152l91 -80v-249h111z" />
    <glyph glyph-name="uniFE8B" unicode="&#x626;" horiz-adv-x="371" arabic-form="initial" 
d="M249 673h138l-31 -101h-234v101h50q-15 25 -15 53q0 47 32.5 76.5t81.5 29.5q35 0 78 -21v-89q-42 14 -67 14q-45 0 -45 -32q0 -16 12 -31zM169 267l-1 221l156 19v-297q0 -210 -240 -210h-84q-10 0 -10 11l2 144q0 10 10 10h84q83 0 83 102z" />
    <glyph glyph-name="uniFE8C" unicode="&#x626;" horiz-adv-x="387" arabic-form="medial" 
d="M350 572l-32 -101h-234v101h50q-15 26 -15 53q0 47 32.5 76.5t82.5 29.5q34 0 78 -21v-89q-42 14 -68 14q-44 0 -44 -32q0 -16 12 -31h138zM387 165q10 0 10 -10v-144q0 -11 -10 -11q-84 0 -157 75q-69 -75 -230 -75q-10 0 -10 11l2 144q0 10 10 10q120 0 120 102l-1 120
l156 18v-195v-13q50 -32 110 -32z" />
    <glyph glyph-name="uniFE8E" unicode="&#x627;" horiz-adv-x="315" arabic-form="final" 
d="M315 0q-240 0 -240 212l-1 500l156 18l1 -462q0 -53 20 -78t63 -25q10 0 10 -10l1 -144q0 -11 -10 -11z" />
    <glyph glyph-name="uniFE90" unicode="&#x628;" horiz-adv-x="863" arabic-form="final" 
d="M863 165q10 0 10 -10v-144q0 -11 -10 -11q-88 0 -154 64q-54 -58 -169 -64h-3h-260q-251 0 -251 238q0 82 25 202l134 -16q-14 -98 -14 -140q0 -61 34.5 -90t110.5 -29h204q83 0 83 102l-1 120l156 18v-195v-15q47 -30 105 -30zM310 -155l104 103l104 -103l-103 -103z
" />
    <glyph glyph-name="uniFE91" unicode="&#x628;" horiz-adv-x="287" arabic-form="initial" 
d="M0 0q-10 0 -10 11l2 144q0 10 10 10q83 0 83 102l-1 221l156 19v-297q0 -210 -240 -210zM121 -259l-105 103l104 103l104 -103z" />
    <glyph glyph-name="uniFE92" unicode="&#x628;" horiz-adv-x="345" arabic-form="medial" 
d="M345 165q10 0 10 -10v-144q0 -11 -10 -11q-89 0 -153 64q-61 -64 -192 -64q-10 0 -10 11l2 144q0 10 10 10q83 0 83 102l-1 120l156 18v-195v-16q48 -29 105 -29zM66 -157l104 103l104 -103l-103 -103z" />
    <glyph glyph-name="uniFE94" unicode="&#x629;" horiz-adv-x="581" arabic-form="final" 
d="M274 653l-78 -78l-104 104l103 103l79 -77l78 77l104 -103l-102 -104zM581 165q10 0 10 -10v-144q0 -11 -10 -11q-94 0 -146 37q-89 -46 -168 -46q-106 0 -174.5 72.5t-68.5 179.5q0 109 69 186t174 77q44 0 101 -19v54l156 19l1 -333q0 -62 56 -62zM267 145
q56 -2 104 17q-2 13 -2 43l-1 129q-52 18 -93 18q-48 0 -77 -29.5t-29 -76.5q0 -42 27.5 -71t70.5 -30z" />
    <glyph glyph-name="uniFE96" unicode="&#x62a;" horiz-adv-x="863" arabic-form="final" 
d="M446 528l-78 -78l-104 104l103 103l79 -77l78 77l104 -103l-102 -104zM863 165q10 0 10 -10v-144q0 -11 -10 -11q-88 0 -154 64q-54 -58 -169 -64h-3h-260q-251 0 -251 238q0 82 25 202l134 -16q-14 -98 -14 -140q0 -61 34.5 -90t110.5 -29h204q83 0 83 102l-1 120
l156 18v-195v-15q47 -30 105 -30z" />
    <glyph glyph-name="uniFE97" unicode="&#x62a;" horiz-adv-x="400" arabic-form="initial" 
d="M242 642l-78 -77l-105 103l103 103l79 -77l78 77l105 -103l-103 -103zM169 267l-1 221l156 19v-297q0 -210 -240 -210h-84q-10 0 -10 11l2 144q0 10 10 10h84q83 0 83 102z" />
    <glyph glyph-name="uniFE98" unicode="&#x62a;" horiz-adv-x="387" arabic-form="medial" 
d="M195 535l-78 -78l-104 104l103 103l79 -77l78 77l104 -103l-102 -104zM387 165q10 0 10 -10v-144q0 -11 -10 -11q-84 0 -157 75q-69 -75 -230 -75q-10 0 -10 11l2 144q0 10 10 10q120 0 120 102l-1 120l156 18v-195v-13q50 -32 110 -32z" />
    <glyph glyph-name="uniFE9A" unicode="&#x62b;" horiz-adv-x="863" arabic-form="final" 
d="M508 686l-67 -67l-66 67l65 67zM440 519l-78 -78l-104 104l103 103l79 -77l78 77l104 -103l-102 -104zM863 165q10 0 10 -10v-144q0 -11 -10 -11q-88 0 -154 64q-54 -58 -169 -64h-3h-260q-251 0 -251 238q0 82 25 202l134 -16q-14 -98 -14 -140q0 -61 34.5 -90
t110.5 -29h204q83 0 83 102l-1 120l156 18v-195v-15q47 -30 105 -30z" />
    <glyph glyph-name="uniFE9B" unicode="&#x62b;" horiz-adv-x="401" arabic-form="initial" 
d="M311 808l-67 -67l-66 67l65 67zM244 640l-78 -77l-105 103l103 103l79 -77l78 77l105 -103l-103 -103zM169 267l-1 221l156 19v-297q0 -210 -240 -210h-84q-10 0 -10 11l2 144q0 10 10 10h84q83 0 83 102z" />
    <glyph glyph-name="uniFE9C" unicode="&#x62b;" horiz-adv-x="387" arabic-form="medial" 
d="M264 702l-67 -67l-66 67l65 67zM196 535l-78 -78l-104 104l103 103l79 -77l78 77l104 -103l-102 -104zM387 165q10 0 10 -10v-144q0 -11 -10 -11q-84 0 -157 75q-69 -75 -230 -75q-10 0 -10 11l2 144q0 10 10 10q120 0 120 102l-1 120l156 18v-195v-13q50 -32 110 -32z
" />
    <glyph glyph-name="uniFE9E" unicode="&#x62c;" horiz-adv-x="651" arabic-form="final" 
d="M651 165q10 0 10 -10v-144q0 -11 -10 -11q-188 0 -191 166q-133 -12 -209 -58t-76 -115q0 -52 39 -81t116 -29q75 0 196 35l42 -133q-148 -60 -272 -60q-121 0 -196 64.5t-75 177.5q0 253 392 302q-91 64 -140.5 87.5t-97.5 23.5q-33 0 -95 -14l-30 139q84 34 144 34
q67 0 147.5 -42.5t252.5 -166.5l-49 -154q19 -11 102 -11zM359 -80l-105 103l104 103l104 -103z" />
    <glyph glyph-name="uniFE9F" unicode="&#x62c;" horiz-adv-x="589" arabic-form="initial" 
d="M179 504q66 0 144.5 -39t250.5 -159l-31 -159q-149 -83 -266.5 -115t-275.5 -32q-11 0 -11 11v144q0 10 11 10q140 0 231 14t182 49q-103 70 -154 94t-100 24q-24 0 -96 -14l-29 138q79 34 144 34zM221 -141l104 103l104 -103l-103 -103z" />
    <glyph glyph-name="uniFEA0" unicode="&#x62c;" horiz-adv-x="632" arabic-form="medial" 
d="M632 165q10 0 10 -10v-144q0 -11 -10 -11h-17q-57 0 -98.5 27t-59.5 75q-115 -56 -218 -79t-238 -23q-11 0 -11 11v144q0 10 11 10q140 0 231 14t182 49q-103 70 -154 94t-100 24q-24 0 -96 -14l-29 138q79 34 144 34q66 0 144.5 -39t250.5 -159l-25 -130q22 -9 67 -11
h16zM226 -141l104 103l104 -103l-103 -103z" />
    <glyph glyph-name="uniFEA2" unicode="&#x62d;" horiz-adv-x="651" arabic-form="final" 
d="M651 165q10 0 10 -10v-144q0 -11 -10 -11q-188 0 -191 166q-133 -12 -209 -58t-76 -115q0 -52 39 -81t116 -29q75 0 196 35l42 -133q-148 -60 -272 -60q-121 0 -196 64.5t-75 177.5q0 253 392 302q-91 64 -140.5 87.5t-97.5 23.5q-33 0 -95 -14l-30 139q84 34 144 34
q67 0 147.5 -42.5t252.5 -166.5l-49 -154q19 -11 102 -11z" />
    <glyph glyph-name="uniFEA3" unicode="&#x62d;" horiz-adv-x="589" arabic-form="initial" 
d="M179 504q66 0 144.5 -39t250.5 -159l-31 -159q-149 -83 -266.5 -115t-275.5 -32q-11 0 -11 11v144q0 10 11 10q140 0 231 14t182 49q-103 70 -154 94t-100 24q-24 0 -96 -14l-29 138q79 34 144 34z" />
    <glyph glyph-name="uniFEA4" unicode="&#x62d;" horiz-adv-x="632" arabic-form="medial" 
d="M632 165q10 0 10 -10v-144q0 -11 -10 -11h-17q-57 0 -98.5 27t-59.5 75q-115 -56 -218 -79t-238 -23q-11 0 -11 11v144q0 10 11 10q140 0 231 14t182 49q-103 70 -154 94t-100 24q-24 0 -96 -14l-29 138q79 34 144 34q66 0 144.5 -39t250.5 -159l-25 -130q22 -9 67 -11
h16z" />
    <glyph glyph-name="uniFEA6" unicode="&#x62e;" horiz-adv-x="651" arabic-form="final" 
d="M528 652l-103 -103l-105 103l104 103zM651 165q10 0 10 -10v-144q0 -11 -10 -11q-188 0 -191 166q-133 -12 -209 -58t-76 -115q0 -52 39 -81t116 -29q75 0 196 35l42 -133q-148 -60 -272 -60q-121 0 -196 64.5t-75 177.5q0 253 392 302q-91 64 -140.5 87.5t-97.5 23.5
q-33 0 -95 -14l-30 139q84 34 144 34q67 0 147.5 -42.5t252.5 -166.5l-49 -154q19 -11 102 -11z" />
    <glyph glyph-name="uniFEA7" unicode="&#x62e;" horiz-adv-x="589" arabic-form="initial" 
d="M491 635l-103 -103l-105 103l104 103zM179 504q66 0 144.5 -39t250.5 -159l-31 -159q-149 -83 -266.5 -115t-275.5 -32q-11 0 -11 11v144q0 10 11 10q140 0 231 14t182 49q-103 70 -154 94t-100 24q-24 0 -96 -14l-29 138q79 34 144 34z" />
    <glyph glyph-name="uniFEA8" unicode="&#x62e;" horiz-adv-x="632" arabic-form="medial" 
d="M505 635l-103 -103l-105 103l104 103zM632 165q10 0 10 -10v-144q0 -11 -10 -11h-17q-57 0 -98.5 27t-59.5 75q-115 -56 -218 -79t-238 -23q-11 0 -11 11v144q0 10 11 10q140 0 231 14t182 49q-103 70 -154 94t-100 24q-24 0 -96 -14l-29 138q79 34 144 34
q66 0 144.5 -39t250.5 -159l-25 -130q22 -9 67 -11h16z" />
    <glyph glyph-name="uniFEAA" unicode="&#x62f;" horiz-adv-x="595" arabic-form="final" 
d="M595 165q10 0 10 -10v-144q0 -11 -10 -11q-87 0 -149 60q-60 -60 -188 -60h-224l-24 165h250q41 0 62 20.5t21 56.5v32q-1 40 -31 64.5t-78 24.5h-68v160h104q105 0 167.5 -61.5t62.5 -173.5v-78q0 -14 -1 -21q43 -24 96 -24z" />
    <glyph glyph-name="uniFEAC" unicode="&#x630;" horiz-adv-x="595" arabic-form="final" 
d="M341 690l-103 -103l-105 103l104 103zM595 165q10 0 10 -10v-144q0 -11 -10 -11q-87 0 -149 60q-60 -60 -188 -60h-224l-24 165h250q41 0 62 20.5t21 56.5v32q-1 40 -31 64.5t-78 24.5h-68v160h104q105 0 167.5 -61.5t62.5 -173.5v-78q0 -14 -1 -21q43 -24 96 -24z" />
    <glyph glyph-name="uniFEAE" unicode="&#x631;" horiz-adv-x="384" arabic-form="final" 
d="M384 165q10 0 10 -10v-144q0 -11 -10 -11q-64 0 -104 40v-17q0 -127 -69 -182.5t-215 -55.5l-11 127q140 0 140 118l-1 458l156 19v-269q6 -34 34.5 -53.5t69.5 -19.5z" />
    <glyph glyph-name="uniFEB0" unicode="&#x632;" horiz-adv-x="384" arabic-form="final" 
d="M305 657l-103 -103l-105 103l104 103zM384 165q10 0 10 -10v-144q0 -11 -10 -11q-64 0 -104 40v-17q0 -127 -69 -182.5t-215 -55.5l-11 127q140 0 140 118l-1 458l156 19v-269q6 -34 34.5 -53.5t69.5 -19.5z" />
    <glyph glyph-name="uniFEB2" unicode="&#x633;" horiz-adv-x="1362" arabic-form="final" 
d="M1362 165q10 0 10 -10v-144q0 -11 -10 -11q-77 0 -136 48q-52 -48 -151 -48q-83 0 -166 56q-61 -56 -161 -56q-62 0 -119 38q-14 -121 -92 -187t-212 -66q-299 0 -299 267q0 103 43 233l126 -34q-28 -89 -28 -153q1 -148 158 -148q152 0 151 165v373l156 19v-315
q48 -27 100 -27q43 0 63.5 24.5t20.5 77.5l-1 120l156 18v-195q0 -13 -2 -33q37 -12 77 -12q83 0 83 102v221l156 19v-297q0 -10 -2 -30q35 -15 79 -15z" />
    <glyph glyph-name="uniFEB3" unicode="&#x633;" horiz-adv-x="913" arabic-form="initial" 
d="M709 489l156 18v-297q0 -102 -53.5 -156t-156.5 -54q-83 0 -166 56q-62 -56 -161 -56q-76 0 -148 59q-62 -59 -180 -59q-10 0 -10 11v144q0 10 10 10q83 0 83 102l-1 120l157 18v-195q0 -10 -2 -30q37 -15 75 -15q43 0 63.5 24.5t20.5 77.5l-1 120l156 18v-195
q0 -11 -2 -33q37 -12 77 -12q83 0 83 102v222z" />
    <glyph glyph-name="uniFEB4" unicode="&#x633;" horiz-adv-x="949" arabic-form="medial" 
d="M949 165q10 0 10 -10v-144q0 -11 -10 -11q-80 0 -140 51q-54 -51 -154 -51q-83 0 -166 56q-62 -56 -161 -56q-76 0 -148 59q-62 -59 -180 -59q-10 0 -10 11v144q0 10 10 10q83 0 83 102l-1 120l157 18v-195q0 -10 -2 -30q37 -15 75 -15q43 0 63.5 24.5t20.5 77.5l-1 120
l156 18v-195q0 -11 -2 -33q37 -12 77 -12q83 0 83 102v222l156 18v-297q0 -4 -0.5 -13t-0.5 -14q36 -18 85 -18z" />
    <glyph glyph-name="uniFEB6" unicode="&#x634;" horiz-adv-x="1362" arabic-form="final" 
d="M961 750l-67 -67l-66 67l65 67zM893 583l-78 -78l-104 104l103 103l79 -77l78 77l104 -103l-102 -104zM1362 165q10 0 10 -10v-144q0 -11 -10 -11q-77 0 -136 48q-52 -48 -151 -48q-83 0 -166 56q-61 -56 -161 -56q-62 0 -119 38q-14 -121 -92 -187t-212 -66
q-299 0 -299 267q0 103 43 233l126 -34q-28 -89 -28 -153q1 -148 158 -148q152 0 151 165v373l156 19v-315q48 -27 100 -27q43 0 63.5 24.5t20.5 77.5l-1 120l156 18v-195q0 -13 -2 -33q37 -12 77 -12q83 0 83 102v221l156 19v-297q0 -10 -2 -30q35 -15 79 -15z" />
    <glyph glyph-name="uniFEB7" unicode="&#x634;" horiz-adv-x="913" arabic-form="initial" 
d="M539 750l-67 -67l-66 67l65 67zM471 583l-78 -78l-104 104l103 103l79 -77l78 77l104 -103l-102 -104zM709 489l156 18v-297q0 -102 -53.5 -156t-156.5 -54q-83 0 -166 56q-62 -56 -161 -56q-76 0 -148 59q-62 -59 -180 -59q-10 0 -10 11v144q0 10 10 10q83 0 83 102
l-1 120l157 18v-195q0 -10 -2 -30q37 -15 75 -15q43 0 63.5 24.5t20.5 77.5l-1 120l156 18v-195q0 -11 -2 -33q37 -12 77 -12q83 0 83 102v222z" />
    <glyph glyph-name="uniFEB8" unicode="&#x634;" horiz-adv-x="949" arabic-form="medial" 
d="M538 750l-67 -67l-66 67l65 67zM470 583l-78 -78l-104 104l103 103l79 -77l78 77l104 -103l-102 -104zM949 165q10 0 10 -10v-144q0 -11 -10 -11q-80 0 -140 51q-54 -51 -154 -51q-83 0 -166 56q-62 -56 -161 -56q-76 0 -148 59q-62 -59 -180 -59q-10 0 -10 11v144
q0 10 10 10q83 0 83 102l-1 120l157 18v-195q0 -10 -2 -30q37 -15 75 -15q43 0 63.5 24.5t20.5 77.5l-1 120l156 18v-195q0 -11 -2 -33q37 -12 77 -12q83 0 83 102v222l156 18v-297q0 -4 -0.5 -13t-0.5 -14q36 -18 85 -18z" />
    <glyph glyph-name="uniFEBA" unicode="&#x635;" horiz-adv-x="1344" arabic-form="final" 
d="M1344 165q10 0 10 -10v-144q0 -11 -10 -11q-92 0 -155 66q-63 -66 -192 -66h-375q-23 -103 -99 -159t-198 -56q-299 0 -299 267q0 103 43 233l126 -34q-28 -89 -28 -153q1 -148 158 -148q152 0 151 165v373l156 19v-89q141 67 223 92.5t156 25.5q103 0 167 -65.5
t62 -170.5l-1 -90q0 -2 -0.5 -7t-0.5 -8q47 -30 106 -30zM1083 248v37q0 40 -30 65.5t-78 25.5q-54 0 -102.5 -12t-192.5 -57q-31 -10 -48 -15v-127h367q40 0 62 21.5t22 61.5z" />
    <glyph glyph-name="uniFEBB" unicode="&#x635;" horiz-adv-x="876" arabic-form="initial" 
d="M612 536q103 0 166.5 -65t63.5 -170q0 -65 -27 -168l-114 -133h-548h-153q-10 0 -10 11l2 144q0 10 10 10h76l-1 323l157 19v-89q140 67 222 92.5t156 25.5zM665 165q20 74 20 121q0 40 -30 65t-78 25q-58 0 -111.5 -13.5t-231.5 -70.5v-127h431z" />
    <glyph glyph-name="uniFEBC" unicode="&#x635;" horiz-adv-x="947" arabic-form="medial" 
d="M947 165q10 0 10 -10v-144q0 -11 -10 -11q-91 0 -156 67q-61 -67 -192 -67h-446h-153q-10 0 -10 11v144q3 10 10 10h78l-1 323l157 19v-89q140 67 222 92.5t156 25.5q103 0 167.5 -65.5t62.5 -170.5l-2 -90v-14q48 -31 107 -31zM685 248v37q0 40 -30 65.5t-78 25.5
q-59 0 -114.5 -14t-228.5 -70v-127h367q40 0 62 21.5t22 61.5z" />
    <glyph glyph-name="uniFEBE" unicode="&#x636;" horiz-adv-x="1344" arabic-form="final" 
d="M862 693l-103 -103l-105 103l104 103zM1344 165q10 0 10 -10v-144q0 -11 -10 -11q-92 0 -155 66q-63 -66 -192 -66h-375q-23 -103 -99 -159t-198 -56q-299 0 -299 267q0 103 43 233l126 -34q-28 -89 -28 -153q1 -148 158 -148q152 0 151 165v373l156 19v-89
q141 67 223 92.5t156 25.5q103 0 167 -65.5t62 -170.5l-1 -90q0 -2 -0.5 -7t-0.5 -8q47 -30 106 -30zM1083 248v37q0 40 -30 65.5t-78 25.5q-54 0 -102.5 -12t-192.5 -57q-31 -10 -48 -15v-127h367q40 0 62 21.5t22 61.5z" />
    <glyph glyph-name="uniFEBF" unicode="&#x636;" horiz-adv-x="876" arabic-form="initial" 
d="M488 693l-103 -103l-105 103l104 103zM612 536q103 0 166.5 -65t63.5 -170q0 -65 -27 -168l-114 -133h-548h-153q-10 0 -10 11l2 144q0 10 10 10h76l-1 323l157 19v-89q140 67 222 92.5t156 25.5zM665 165q20 74 20 121q0 40 -30 65t-78 25q-58 0 -111.5 -13.5
t-231.5 -70.5v-127h431z" />
    <glyph glyph-name="uniFEC0" unicode="&#x636;" horiz-adv-x="947" arabic-form="medial" 
d="M488 693l-103 -103l-105 103l104 103zM947 165q10 0 10 -10v-144q0 -11 -10 -11q-91 0 -156 67q-61 -67 -192 -67h-446h-153q-10 0 -10 11v144q3 10 10 10h78l-1 323l157 19v-89q140 67 222 92.5t156 25.5q103 0 167.5 -65.5t62.5 -170.5l-2 -90v-14q48 -31 107 -31z
M685 248v37q0 40 -30 65.5t-78 25.5q-59 0 -114.5 -14t-228.5 -70v-127h367q40 0 62 21.5t22 61.5z" />
    <glyph glyph-name="uniFEC2" unicode="&#x637;" horiz-adv-x="1010" arabic-form="final" 
d="M1010 165q10 0 10 -10v-144q0 -11 -10 -11q-91 0 -156 67q-61 -67 -192 -67h-446h-76h-105l-23 165h128v547l157 18v-311q142 66 223.5 91.5t154.5 25.5q103 0 167.5 -65.5t62.5 -170.5l-2 -90v-14q47 -31 107 -31zM748 248v37q0 40 -30 65.5t-78 25.5q-59 0 -114 -14
t-229 -69v-128h367q40 0 62 21.5t22 61.5z" />
    <glyph glyph-name="uniFEC3" unicode="&#x637;" horiz-adv-x="876" arabic-form="initial" 
d="M612 536q103 0 166.5 -65t63.5 -170q0 -65 -27 -168l-114 -133h-467h-157h-77q-10 0 -10 11l2 144q0 10 10 10h75v547l157 18v-312q140 67 222 92.5t156 25.5zM665 165q20 74 20 121q0 40 -30 65t-78 25q-59 0 -114.5 -14t-228.5 -70v-127h431z" />
    <glyph glyph-name="uniFEC4" unicode="&#x637;" horiz-adv-x="947" arabic-form="medial" 
d="M947 165q10 0 10 -10v-144q0 -11 -10 -11q-91 0 -156 67q-61 -67 -192 -67h-365h-157h-77q-10 0 -10 11v144q3 10 10 10h77v547l157 18v-312q140 67 222 92.5t156 25.5q103 0 167.5 -65.5t62.5 -170.5l-2 -90v-14q48 -31 107 -31zM685 248v37q0 40 -30 65.5t-78 25.5
q-59 0 -114.5 -14t-228.5 -70v-127h367q40 0 62 21.5t22 61.5z" />
    <glyph glyph-name="uniFEC6" unicode="&#x638;" horiz-adv-x="1010" arabic-form="final" 
d="M603 693l-103 -103l-105 103l104 103zM1010 165q10 0 10 -10v-144q0 -11 -10 -11q-91 0 -156 67q-61 -67 -192 -67h-446h-76h-105l-23 165h128v547l157 18v-311q142 66 223.5 91.5t154.5 25.5q103 0 167.5 -65.5t62.5 -170.5l-2 -90v-14q47 -31 107 -31zM748 248v37
q0 40 -30 65.5t-78 25.5q-59 0 -114 -14t-229 -69v-128h367q40 0 62 21.5t22 61.5z" />
    <glyph glyph-name="uniFEC7" unicode="&#x638;" horiz-adv-x="876" arabic-form="initial" 
d="M533 693l-103 -103l-105 103l104 103zM612 536q103 0 166.5 -65t63.5 -170q0 -65 -27 -168l-114 -133h-467h-157h-77q-10 0 -10 11l2 144q0 10 10 10h75v547l157 18v-312q140 67 222 92.5t156 25.5zM665 165q20 74 20 121q0 40 -30 65t-78 25q-59 0 -114.5 -14
t-228.5 -70v-127h431z" />
    <glyph glyph-name="uniFEC8" unicode="&#x638;" horiz-adv-x="947" arabic-form="medial" 
d="M533 693l-103 -103l-105 103l104 103zM947 165q10 0 10 -10v-144q0 -11 -10 -11q-91 0 -156 67q-61 -67 -192 -67h-365h-157h-77q-10 0 -10 11v144q3 10 10 10h77v547l157 18v-312q140 67 222 92.5t156 25.5q103 0 167.5 -65.5t62.5 -170.5l-2 -90v-14q48 -31 107 -31z
M685 248v37q0 40 -30 65.5t-78 25.5q-59 0 -114.5 -14t-228.5 -70v-127h367q40 0 62 21.5t22 61.5z" />
    <glyph glyph-name="uniFECA" unicode="&#x639;" horiz-adv-x="599" arabic-form="final" 
d="M598 165q10 0 10 -10v-144q0 -11 -10 -11q-164 0 -287 83q-49 -28 -72.5 -43t-44 -37t-20.5 -43q0 -37 43 -57.5t117 -20.5q94 0 204 34l43 -133q-144 -58 -263 -58q-134 0 -211.5 57.5t-77.5 158.5q0 57 39.5 101t112.5 86q-85 99 -151 229l51 123q138 67 246 67
q104 0 169.5 -53.5t65.5 -138.5q0 -95 -101 -177q63 -13 137 -13zM306 394q-59 2 -134 -30q56 -114 118 -178q67 36 98.5 62.5t31.5 55.5q0 38 -31 63.5t-83 26.5z" />
    <glyph glyph-name="uniFECB" unicode="&#x639;" horiz-adv-x="545" arabic-form="initial" 
d="M205 169q144 8 326 38l-33 -166q-220 -41 -498 -41q-10 0 -10 11v144q0 10 10 10h71q-34 71 -34 140q0 87 65 144.5t167 57.5q73 0 198 -42l-42 -133q-85 23 -130 23q-53 0 -84.5 -26t-31.5 -67q0 -43 26 -93z" />
    <glyph glyph-name="uniFECC" unicode="&#x639;" horiz-adv-x="598" arabic-form="medial" 
d="M594 165q10 0 10 -10v-144q0 -11 -10 -11q-158 0 -269 65q-75 -37 -144.5 -51t-180.5 -14q-10 2 -10 11v144q0 10 10 10q76 0 136 6q-62 81 -110 179l51 123q138 67 246 67q105 0 170 -53t65 -139q0 -96 -84 -176q48 -7 120 -7zM302 387q-59 2 -135 -29q57 -116 124 -185
q59 22 92 56t33 68q0 39 -31.5 64.5t-82.5 25.5z" />
    <glyph glyph-name="uniFECE" unicode="&#x63a;" horiz-adv-x="599" arabic-form="final" 
d="M403 720l-103 -103l-105 103l104 103zM598 165q10 0 10 -10v-144q0 -11 -10 -11q-164 0 -287 83q-49 -28 -72.5 -43t-44 -37t-20.5 -43q0 -37 43 -57.5t117 -20.5q94 0 204 34l43 -133q-144 -58 -263 -58q-134 0 -211.5 57.5t-77.5 158.5q0 57 39.5 101t112.5 86
q-85 99 -151 229l51 123q138 67 246 67q104 0 169.5 -53.5t65.5 -138.5q0 -95 -101 -177q63 -13 137 -13zM306 394q-59 2 -134 -30q56 -114 118 -178q67 36 98.5 62.5t31.5 55.5q0 38 -31 63.5t-83 26.5z" />
    <glyph glyph-name="uniFECF" unicode="&#x63a;" horiz-adv-x="545" arabic-form="initial" 
d="M358 674l-103 -103l-105 103l104 103zM205 169q144 8 326 38l-33 -166q-220 -41 -498 -41q-10 0 -10 11v144q0 10 10 10h71q-34 71 -34 140q0 87 65 144.5t167 57.5q73 0 198 -42l-42 -133q-85 23 -130 23q-53 0 -84.5 -26t-31.5 -67q0 -43 26 -93z" />
    <glyph glyph-name="uniFED0" unicode="&#x63a;" horiz-adv-x="598" arabic-form="medial" 
d="M399 713l-103 -103l-105 103l104 103zM594 165q10 0 10 -10v-144q0 -11 -10 -11q-158 0 -269 65q-75 -37 -144.5 -51t-180.5 -14q-10 2 -10 11v144q0 10 10 10q76 0 136 6q-62 81 -110 179l51 123q138 67 246 67q105 0 170 -53t65 -139q0 -96 -84 -176q48 -7 120 -7z
M302 387q-59 2 -135 -29q57 -116 124 -185q59 22 92 56t33 68q0 39 -31.5 64.5t-82.5 25.5z" />
    <glyph glyph-name="uniFED2" unicode="&#x641;" horiz-adv-x="950" arabic-form="final" 
d="M775 683l-103 -103l-105 103l104 103zM957 165q10 0 10 -10v-144q0 -11 -10 -11q-119 0 -263 50q-120 -48 -279 -50h-1h-139q-249 0 -249 226q0 77 20 162l134 -16q-11 -65 -11 -98q0 -57 35 -83t110 -26h89q55 0 98 4q-45 57 -45 131q0 92 62.5 153.5t163.5 61.5
t165.5 -64t64.5 -152q0 -69 -48 -128q43 -6 93 -6zM674 366q-38 0 -61.5 -25.5t-23.5 -61.5q0 -33 23 -62.5t63 -44.5q40 17 63.5 46t23.5 61q0 38 -26.5 62.5t-61.5 24.5z" />
    <glyph glyph-name="uniFED3" unicode="&#x641;" horiz-adv-x="550" arabic-form="initial" 
d="M365 683l-103 -103l-105 103l104 103zM269 515q107 0 177 -68.5t70 -173.5q0 -125 -77 -199t-209 -74h-230q-10 0 -10 11v144q0 10 10 10h62q-30 63 -30 117q0 101 68 167t169 66zM231 165q60 0 94.5 29.5t34.5 79.5q0 40 -26.5 66t-66.5 26t-68 -28.5t-28 -69.5
q0 -45 28 -103h32z" />
    <glyph glyph-name="uniFED4" unicode="&#x641;" horiz-adv-x="554" arabic-form="medial" 
d="M370 683l-103 -103l-105 103l104 103zM554 165q10 0 10 -10v-144q0 -11 -10 -11q-119 0 -263 50q-121 -50 -291 -50q-10 2 -10 11v144q0 10 10 10q56 0 97 4q-44 58 -44 131q0 92 62.5 153.5t163.5 61.5t165.5 -64t64.5 -152q0 -68 -47 -128q42 -6 92 -6zM271 366
q-38 0 -61.5 -25.5t-23.5 -61.5q0 -34 23 -63t63 -44q40 17 63.5 46t23.5 61q0 38 -26.5 62.5t-61.5 24.5z" />
    <glyph glyph-name="uniFED6" unicode="&#x642;" horiz-adv-x="804" arabic-form="final" 
d="M516 659l-78 -78l-104 104l103 103l79 -77l78 77l104 -103l-102 -104zM804 165q10 0 10 -10v-144q0 -11 -10 -11h-55q-19 -106 -111 -160.5t-272 -54.5q-161 0 -250.5 69.5t-89.5 197.5q0 103 43 233l126 -34q-28 -89 -28 -153q2 -177 220 -177q171 0 209 79h-85
q-106 0 -170.5 67.5t-64.5 179.5q0 111 70.5 184.5t173.5 73.5q103 -1 168.5 -68t65.5 -182v-90h50zM415 252q0 -47 30.5 -71.5t79.5 -24.5q22 0 74 4v85q0 48 -25 75t-66 27q-39 1 -66 -25.5t-27 -69.5z" />
    <glyph glyph-name="uniFED7" unicode="&#x642;" horiz-adv-x="550" arabic-form="initial" 
d="M264 659l-78 -78l-104 104l103 103l79 -77l78 77l104 -103l-102 -104zM269 515q107 0 177 -68.5t70 -173.5q0 -125 -77 -199t-209 -74h-230q-10 0 -10 11v144q0 10 10 10h62q-30 63 -30 117q0 101 68 167t169 66zM231 165q60 0 94.5 29.5t34.5 79.5q0 40 -26.5 66
t-66.5 26t-68 -28.5t-28 -69.5q0 -45 28 -103h32z" />
    <glyph glyph-name="uniFED8" unicode="&#x642;" horiz-adv-x="554" arabic-form="medial" 
d="M267 659l-78 -78l-104 104l103 103l79 -77l78 77l104 -103l-102 -104zM554 165q10 0 10 -10v-144q0 -11 -10 -11q-119 0 -263 50q-121 -50 -291 -50q-10 2 -10 11v144q0 10 10 10q56 0 97 4q-44 58 -44 131q0 92 62.5 153.5t163.5 61.5t165.5 -64t64.5 -152
q0 -68 -47 -128q42 -6 92 -6zM271 366q-38 0 -61.5 -25.5t-23.5 -61.5q0 -34 23 -63t63 -44q40 17 63.5 46t23.5 61q0 38 -26.5 62.5t-61.5 24.5z" />
    <glyph glyph-name="uniFEDA" unicode="&#x643;" horiz-adv-x="885" arabic-form="final" 
d="M894 155l1 -144q0 -11 -10 -11q-145 0 -202 77q-116 -77 -270 -77h-138q-249 0 -249 226q0 75 19 162l134 -16q-10 -67 -10 -98q0 -57 35 -83t110 -26h99q155 0 232 38v9l-1 500l156 18l1 -462q0 -53 20 -78t63 -25q10 0 10 -10zM558 454l-32 -102h-234v102h50
q-15 25 -15 53q0 47 32.5 76.5t82.5 29.5q34 0 78 -21v-89q-42 14 -68 14q-44 0 -44 -33q0 -15 12 -30h138z" />
    <glyph glyph-name="uniFEDB" unicode="&#x643;" horiz-adv-x="585" arabic-form="initial" 
d="M304 447q114 0 183.5 -58t69.5 -155q0 -111 -64.5 -172.5t-179.5 -61.5h-313q-10 0 -10 11v144q0 10 10 10h313q40 0 63.5 19t23.5 53q0 32 -23 51t-63 19h-224l-80 140l282 351l139 -79l-265 -272h138z" />
    <glyph glyph-name="uniFEDC" unicode="&#x643;" horiz-adv-x="645" arabic-form="medial" 
d="M645 165q10 0 10 -10v-144q0 -11 -10 -11q-88 0 -152 62q-65 -62 -180 -62h-313q-10 0 -10 11v144q0 10 10 10h313q40 0 63.5 19t23.5 53q0 32 -23 51t-63 19h-224l-80 140l282 351l139 -79l-265 -272h138q114 0 183.5 -58t69.5 -155q0 -27 -4 -47q41 -22 92 -22z" />
    <glyph glyph-name="uniFEDE" unicode="&#x644;" horiz-adv-x="740" arabic-form="final" 
d="M740 165q10 0 10 -10v-144q0 -11 -10 -11q-70 0 -110 45q-13 -124 -91 -192t-214 -68q-299 0 -299 267q0 103 43 233l126 -34q-28 -89 -28 -153q1 -148 158 -148q152 0 151 165v373v232l156 18v-434v-48q0 -40 31 -65.5t77 -25.5z" />
    <glyph glyph-name="uniFEDF" unicode="&#x644;" horiz-adv-x="315" arabic-form="initial" 
d="M0 0q-10 0 -10 11l1 144q0 10 10 10q43 0 63 25t20 78l1 444l156 18l-1 -518q0 -212 -240 -212z" />
    <glyph glyph-name="uniFEE0" unicode="&#x644;" horiz-adv-x="330" arabic-form="medial" 
d="M338 155l1 -144q0 -11 -10 -11q-131 0 -191 63q-67 -63 -138 -63q-10 0 -10 11v144q0 10 10 10q53 0 90 26q-1 7 -1 21l-1 500l157 18v-462q0 -53 20 -78t63 -25q10 0 10 -10z" />
    <glyph glyph-name="uniFEE2" unicode="&#x645;" horiz-adv-x="710" arabic-form="final" 
d="M710 165q10 0 10 -10v-144q0 -11 -10 -11h-234q-91 0 -157.5 38.5t-98.5 107.5q-40 -15 -40 -77v-321l-156 -18v344q0 109 42.5 167.5t130.5 71.5q14 90 81 146t164 56q98 0 165.5 -66t67.5 -161q0 -57 -21 -123h56zM475 165h50q14 57 14 103q0 41 -27.5 70t-67.5 29
t-66.5 -26.5t-26.5 -67.5q0 -49 33 -78.5t91 -29.5z" />
    <glyph glyph-name="uniFEE3" unicode="&#x645;" horiz-adv-x="550" arabic-form="initial" 
d="M269 515q107 0 177 -68.5t70 -173.5q0 -125 -77 -199t-209 -74h-230q-10 0 -10 11v144q0 10 10 10h62q-30 63 -30 117q0 101 68 167t169 66zM231 165q60 0 94.5 29.5t34.5 79.5q0 40 -26.5 66t-66.5 26t-68 -28.5t-28 -69.5q0 -45 28 -103h32z" />
    <glyph glyph-name="uniFEE4" unicode="&#x645;" horiz-adv-x="574" arabic-form="medial" 
d="M574 165q10 0 10 -10v-144q0 -11 -10 -11h-235q-103 0 -175 50q-80 -50 -164 -50q-10 0 -10 11v144q0 10 10 10q39 0 72 11q-14 47 -14 97q0 105 69.5 173.5t177.5 68.5q98 0 166.5 -66t68.5 -161q0 -55 -20 -123h54zM338 165h50q14 57 14 103q0 41 -27.5 70t-67.5 29
t-66.5 -26.5t-26.5 -67.5q0 -49 33 -78.5t91 -29.5z" />
    <glyph glyph-name="uniFEE6" unicode="&#x646;" horiz-adv-x="738" arabic-form="final" 
d="M407 502l-103 -103l-105 103l104 103zM738 165q10 0 10 -10v-144q0 -11 -10 -11q-68 0 -108 45q-13 -124 -91 -192t-214 -68q-299 0 -299 267q0 103 43 233l126 -34q-28 -89 -28 -153q1 -148 158 -148q152 0 151 165v373l156 19v-250q1 -43 30.5 -67.5t75.5 -24.5z" />
    <glyph glyph-name="uniFEE7" unicode="&#x646;" horiz-adv-x="287" arabic-form="initial" 
d="M159 580l-105 103l104 103l104 -103zM0 0q-10 0 -10 11l2 144q0 10 10 10q83 0 83 102l-1 221l156 19v-297q0 -210 -240 -210z" />
    <glyph glyph-name="uniFEE8" unicode="&#x646;" horiz-adv-x="345" arabic-form="medial" 
d="M268 568l-103 -103l-105 103l104 103zM345 165q10 0 10 -10v-144q0 -11 -10 -11q-89 0 -153 64q-61 -64 -192 -64q-10 0 -10 11l2 144q0 10 10 10q83 0 83 102l-1 120l156 18v-195v-16q48 -29 105 -29z" />
    <glyph glyph-name="uniFEE9" unicode="&#x647;" horiz-adv-x="824" arabic-form="isolated" 
d="M307 712q236 0 360 -102t124 -293q0 -98 -36 -191l-140 -139q-123 -2 -268 68q-107 -55 -190 -55q-73 0 -145 23l30 159q57 -17 102 -17q-48 59 -48 135q0 93 62.5 154.5t163.5 61.5t165.5 -64t64.5 -153q0 -71 -54 -135q53 -13 111 -13q34 80 34 160q0 47 -19 91t-58 83
t-109 63t-163 24zM314 366q-38 0 -61.5 -25t-23.5 -61q0 -34 23 -63t63 -44q40 17 63.5 46t23.5 61q0 38 -26.5 62t-61.5 24z" />
    <glyph glyph-name="uniFEEA" unicode="&#x647;" horiz-adv-x="581" arabic-form="final" 
d="M581 165q10 0 10 -10v-144q0 -11 -10 -11q-94 0 -146 37q-89 -46 -168 -46q-106 0 -174.5 72.5t-68.5 179.5q0 109 69 186t174 77q44 0 101 -19v54l156 19l1 -333q0 -62 56 -62zM267 145q56 -2 104 17q-2 13 -2 43l-1 129q-52 18 -93 18q-48 0 -77 -29.5t-29 -76.5
q0 -42 27.5 -71t70.5 -30z" />
    <glyph glyph-name="uniFEEB" unicode="&#x647;" horiz-adv-x="815" arabic-form="initial" 
d="M296 712q237 0 361.5 -102t124.5 -293q0 -79 -28 -184l-114 -133h-300q-104 0 -174 49q-81 -49 -166 -49q-10 0 -10 11v144q0 10 10 10q40 0 73 11q-14 45 -14 97q0 105 69.5 173.5t177.5 68.5q98 0 166.5 -66t68.5 -161q0 -55 -20 -123h91q22 76 22 146q0 47 -19 91
t-58 83t-109.5 63t-163.5 24zM339 165h50q14 57 14 103q0 41 -27.5 70t-67.5 29t-66.5 -26.5t-26.5 -67.5q0 -49 33 -78.5t91 -29.5z" />
    <glyph glyph-name="uniFEEC" unicode="&#x647;" horiz-adv-x="545" arabic-form="medial" 
d="M555 165q10 0 10 -10v-144q0 -11 -10 -11h-23q-5 -105 -73 -162.5t-179 -57.5q-94 0 -159 57.5t-88 163.5q-14 -1 -41 -1q-10 0 -10 11v144q0 10 10 10h32q12 115 71.5 230.5t152.5 199.5h134q60 -76 96 -159.5t36 -147.5q0 -69 -40 -123h81zM292 469q-55 -70 -88 -150
t-41 -148q103 8 149 34.5t46 79.5q0 83 -66 184zM286 -70q47 0 76.5 19.5t35.5 50.5h-49l-19 60q-71 -30 -155 -44q29 -86 111 -86z" />
    <glyph glyph-name="uniFEEE" unicode="&#x648;" horiz-adv-x="561" arabic-form="final" 
d="M561 165q10 0 10 -10v-144q0 -11 -10 -11h-49q-19 -215 -410 -215l-16 127q127 0 191 20.5t77 67.5h-84q-107 0 -172 68.5t-65 180.5q0 110 71 184t175 74q103 0 168.5 -68t65.5 -182v-92h48zM173 254q0 -48 31 -73t80 -25q22 0 74 4v86q0 48 -25 75.5t-66 27.5
q-39 0 -66.5 -26.5t-27.5 -68.5z" />
    <glyph glyph-name="uniFEF0" unicode="&#x649;" horiz-adv-x="1040" arabic-form="final" 
d="M1040 165q10 0 10 -10v-144q0 -11 -10 -11h-267v329h-57q-84 0 -84 -101v-146q0 -148 -73.5 -222.5t-233.5 -74.5q-299 0 -299 267q0 103 43 233l126 -34q-28 -89 -28 -153q1 -148 158 -148q79 0 115 35.5t36 117.5v164q0 104 54.5 165.5t155.5 61.5h152l91 -80v-249h111
z" />
    <glyph glyph-name="uniFEF2" unicode="&#x64a;" horiz-adv-x="1040" arabic-form="final" 
d="M1040 165q10 0 10 -10v-144q0 -11 -10 -11h-267v329h-57q-84 0 -84 -101v-146q0 -148 -73.5 -222.5t-233.5 -74.5q-299 0 -299 267q0 103 43 233l126 -34q-28 -89 -28 -153q1 -148 158 -148q79 0 115 35.5t36 117.5v164q0 104 54.5 165.5t155.5 61.5h152l91 -80v-249h111
zM411 -326l71 71l105 -103l-103 -103l-73 71l-71 -71l-105 103l103 103z" />
    <glyph glyph-name="uniFEF3" unicode="&#x64a;" horiz-adv-x="371" arabic-form="initial" 
d="M0 0q-10 0 -10 11l2 144q0 10 10 10h84q83 0 83 102l-1 221l156 19v-297q0 -210 -240 -210h-84zM337 -154l-103 -103l-73 71l-71 -71l-105 103l103 103l73 -71l71 71z" />
    <glyph glyph-name="uniFEF4" unicode="&#x64a;" horiz-adv-x="387" arabic-form="medial" 
d="M387 165q10 0 10 -10v-144q0 -11 -10 -11q-84 0 -157 75q-69 -75 -230 -75q-10 0 -10 11l2 144q0 10 10 10q120 0 120 102l-1 120l156 18v-195v-13q50 -32 110 -32zM194 -122l71 71l105 -103l-103 -103l-73 71l-71 -71l-105 103l103 103z" />
    <glyph glyph-name=".notdef" horiz-adv-x="281" 
 />
    <glyph glyph-name=".null" 
 />
    <glyph glyph-name="nonmarkingreturn" horiz-adv-x="333" 
 />
    <glyph glyph-name="space" unicode=" " horiz-adv-x="210" 
 />
    <glyph glyph-name="exclam" unicode="!" horiz-adv-x="299" 
d="M202 180h-105l-34 206v294h173v-294zM219 0h-140v124h140v-124z" />
    <glyph glyph-name="quotedbl" unicode="&#x22;" horiz-adv-x="418" 
d="M155 416h-80l-26 127v137h132v-137zM342 416h-79l-26 127v137h131v-137z" />
    <glyph glyph-name="numbersign" unicode="#" horiz-adv-x="741" 
d="M616 495h83v-123h-138l-50 -107h148v-123h-203l-67 -142h-132l67 142h-91l-67 -142h-132l67 142h-64v123h119l50 107h-112v123h167l86 185h132l-85 -185h90l86 185h132zM429 372h-91l-50 -107h91z" />
    <glyph glyph-name="dollar" unicode="$" horiz-adv-x="604" 
d="M553 489q-49 30 -113.5 46t-118.5 16q-49 0 -75 -11t-26 -43q0 -26 36 -44t87 -33t102.5 -37t87.5 -67.5t36 -111.5q0 -95 -59 -147t-153 -64v-118h-102v116q-116 5 -214 48v152q49 -30 114 -46t120 -16q116 0 116 59q0 20 -19 34.5t-50 25.5t-68 22.5t-74 28.5t-68 40
t-50 61t-19 88q0 92 59 141.5t153 58.5v117h102v-117q106 -7 196 -47v-152z" />
    <glyph glyph-name="percent" unicode="%" horiz-adv-x="835" 
d="M197 322q-81 0 -123 51.5t-42 132.5q0 80 42 132t123 52t122.5 -52t41.5 -132q0 -81 -41.5 -132.5t-122.5 -51.5zM480 370h-88l146 310h131zM197 616q-71 0 -71 -110q0 -109 71 -109q70 0 70 109q0 110 -70 110zM638 -8q-81 0 -122.5 51.5t-41.5 132.5q0 80 41.5 132
t122.5 52t123 -52t42 -132q0 -81 -42 -132.5t-123 -51.5zM352 310h89l-147 -310h-131zM639 286q-71 0 -71 -110q0 -109 71 -109q70 0 70 109q0 110 -70 110z" />
    <glyph glyph-name="ampersand" unicode="&#x26;" horiz-adv-x="688" 
d="M658 -8l-124 89q-83 -91 -240 -91q-117 0 -187.5 51.5t-70.5 144.5q0 67 35 111t86 67q-60 63 -60 132q0 52 21.5 91t57.5 60.5t76.5 32t84.5 10.5q111 0 201 -53v-131q-51 30 -90.5 43.5t-86.5 13.5q-95 0 -95 -62q0 -9 2.5 -17.5t5.5 -15.5t10.5 -15t12.5 -13t17 -14
l18 -13.5t21.5 -15t22.5 -15.5l82 -62q8 29 8 68h157q0 -92 -20 -165l55 -40v-191zM294 254q-7 6 -24 18t-25 18q-35 -37 -35 -80q0 -34 24 -59.5t68 -25.5q60 0 103 46z" />
    <glyph glyph-name="quotesingle" unicode="'" horiz-adv-x="231" 
d="M155 416h-80l-26 127v137h132v-137z" />
    <glyph glyph-name="parenleft" unicode="(" horiz-adv-x="329" 
d="M327 830q-60 -80 -109 -217t-49 -273t49 -273t109 -217h-102q-73 68 -133.5 200.5t-60.5 289.5t60.5 289.5t133.5 200.5h102z" />
    <glyph glyph-name="parenright" unicode=")" horiz-adv-x="329" 
d="M2 -150q60 80 109 217t49 273t-49 273t-109 217h102q72 -68 132.5 -200.5t60.5 -289.5t-60.5 -289.5t-132.5 -200.5h-102z" />
    <glyph glyph-name="asterisk" unicode="*" horiz-adv-x="375" 
d="M261 530l75 -43l-37 -64l-75 44v-87h-73v87l-75 -44l-37 64l75 43l-75 43l37 64l75 -43v86h73v-86l75 43l37 -64z" />
    <glyph glyph-name="plus" unicode="+" horiz-adv-x="567" 
d="M531 257h-186v-186h-123v186h-186v123h186v186h123v-186h186v-123z" />
    <glyph glyph-name="comma" unicode="," horiz-adv-x="237" 
d="M98 -130l-89 5q18 47 31.5 122t13.5 138h132q-11 -152 -88 -265z" />
    <glyph glyph-name="hyphen" unicode="-" horiz-adv-x="462" 
d="M53 232v123h356v-123h-356z" />
    <glyph glyph-name="period" unicode="." horiz-adv-x="238" 
d="M186 0h-134v135h134v-135z" />
    <glyph glyph-name="slash" unicode="/" horiz-adv-x="492" 
d="M155 0h-132l313 680h132z" />
    <glyph glyph-name="zero" unicode="0" horiz-adv-x="708" 
d="M354 -10q-153 0 -232 98.5t-79 251.5q0 152 79 251t232 99t232 -99t79 -251q0 -153 -79 -251.5t-232 -98.5zM354 559q-72 0 -102.5 -57t-30.5 -162t30.5 -162t102.5 -57t102.5 57t30.5 162t-30.5 162t-102.5 57z" />
    <glyph glyph-name="one" unicode="1" horiz-adv-x="515" 
d="M483 139l19 -139h-460v139h143v381l-115 -56l-45 130l185 91h148v-546h125z" />
    <glyph glyph-name="two" unicode="2" horiz-adv-x="613" 
d="M58 625q122 65 235 65q117 0 192 -52t75 -156q0 -59 -33.5 -108.5t-80.5 -81t-94.5 -57.5t-81 -49.5t-33.5 -45.5h315l19 -140h-529v81q0 51 19 93t48.5 70t66 52t73 43t66 38t48.5 43t19 53q0 86 -110 86q-78 0 -194 -69z" />
    <glyph glyph-name="three" unicode="3" horiz-adv-x="593" 
d="M417 348q138 -38 138 -161q0 -94 -71.5 -145.5t-200.5 -51.5q-161 0 -266 53l43 121q116 -43 197 -43q125 0 125 83q0 44 -34.5 63t-107.5 19h-55v122h55q72 1 103 19.5t31 60.5q0 75 -106 75q-43 0 -79 -9t-104 -33l-43 121q122 52 252 52q112 0 176.5 -49t64.5 -140
q0 -115 -118 -157z" />
    <glyph glyph-name="four" unicode="4" horiz-adv-x="667" 
d="M638 120h-84v-120h-174v120h-348v131l344 429h178v-429h84v-131zM380 251v225l-175 -225h175z" />
    <glyph glyph-name="five" unicode="5" horiz-adv-x="605" 
d="M92 680l-19 -393q102 22 183 22q137 0 137 -91q0 -45 -32 -71t-94 -26q-79 0 -195 43l-43 -121q105 -53 264 -53q130 0 204 61t74 170q0 100 -65 155.5t-173 55.5q-48 0 -105 -11l8 120h278l18 139h-440z" />
    <glyph glyph-name="six" unicode="6" horiz-adv-x="673" 
d="M544 523q-73 36 -153 36q-170 0 -170 -213q32 43 83.5 67t106.5 24q100 0 159 -58t59 -149q0 -106 -71.5 -173t-200.5 -67q-155 0 -234.5 94.5t-79.5 244.5q0 67 19 129t57 115t103.5 85t150.5 32q119 0 215 -45zM227 251q8 -55 38.5 -92.5t83.5 -37.5q44 0 73.5 28.5
t29.5 74.5q0 44 -29 71.5t-72 27.5q-37 0 -71 -20.5t-53 -51.5z" />
    <glyph glyph-name="seven" unicode="7" horiz-adv-x="560" 
d="M94 0l268 541h-339l19 139h498v-122l-277 -558h-169z" />
    <glyph glyph-name="eight" unicode="8" horiz-adv-x="654" 
d="M492 359q124 -56 124 -170q0 -95 -81.5 -147t-210.5 -52q-124 0 -205 45.5t-81 139.5q0 45 31 88.5t86 68.5q-84 55 -84 163q0 93 72 144t187 51q106 0 179.5 -49t73.5 -137q0 -94 -91 -145zM327 568q-46 0 -72.5 -19t-26.5 -52q0 -17 9.5 -30.5t20 -22.5t36 -19
t40 -14.5t48.5 -14.5q45 44 45 99q0 31 -26 52t-74 21zM327 113q50 0 80.5 21t30.5 58q0 11 -4 20.5t-14.5 17t-19.5 13t-27 11.5t-29.5 9.5t-35.5 10t-35 9.5q-57 -36 -57 -88q0 -36 29 -59t82 -23z" />
    <glyph glyph-name="nine" unicode="9" horiz-adv-x="673" 
d="M129 157q73 -36 153 -36q170 0 170 213q-33 -43 -84.5 -67t-105.5 -24q-100 0 -159.5 58t-59.5 149q0 106 71.5 173t201.5 67q155 0 234 -94t79 -244q0 -67 -19 -129.5t-57 -115.5t-103.5 -85t-149.5 -32q-119 0 -216 45zM445 429q-7 55 -37.5 92.5t-84.5 37.5
q-44 0 -73 -28.5t-29 -74.5q0 -44 29 -71t71 -27q38 0 71.5 20t52.5 51z" />
    <glyph glyph-name="colon" unicode=":" horiz-adv-x="243" 
d="M187 303h-132v124h132v-124zM187 63h-132v124h132v-124z" />
    <glyph glyph-name="semicolon" unicode=";" horiz-adv-x="271" 
d="M206 303h-132v124h132v-124zM205 124v-105q0 -50 -5 -78t-22.5 -50t-51.5 -30t-91 -8v90q24 0 31.5 12.5t7.5 63.5v105h131z" />
    <glyph glyph-name="less" unicode="&#x3c;" horiz-adv-x="562" 
d="M508 122l-455 109v175l455 109v-123l-321 -73l321 -74v-123z" />
    <glyph glyph-name="equal" unicode="=" horiz-adv-x="572" 
d="M58 372v123h456v-123h-456zM58 142v123h456v-123h-456z" />
    <glyph glyph-name="greater" unicode="&#x3e;" horiz-adv-x="562" 
d="M53 122v123l321 74l-321 73v123l455 -109v-175z" />
    <glyph glyph-name="question" unicode="?" horiz-adv-x="535" 
d="M144 364q181 0 181 96q0 42 -28 66.5t-79 24.5q-39 0 -89.5 -15.5t-91.5 -45.5v153q90 47 219 47q110 0 178.5 -55.5t68.5 -158.5q0 -189 -223 -208l-14 -88h-122v184zM280 0h-140v124h140v-124z" />
    <glyph glyph-name="at" unicode="@" horiz-adv-x="838" 
d="M791 413q0 125 -79 201t-239 76q-141 0 -241.5 -60.5t-148 -159t-47.5 -223.5q0 -197 113.5 -322t329.5 -125v117q-143 0 -218 83.5t-75 246.5q0 161 75 244t212 83q82 0 124.5 -39t42.5 -113v-17q-14 34 -51 53t-83 19q-91 0 -141.5 -64t-50.5 -175q0 -112 50.5 -176.5
t141.5 -64.5q46 0 83 19.5t51 53.5v-63h151v406zM641 238q0 -59 -21 -94t-64 -35q-84 0 -84 129q0 128 84 128q43 0 64 -35t21 -93z" />
    <glyph glyph-name="A" unicode="A" horiz-adv-x="718" 
d="M547 -9l-47 135h-279l-46 -126h-178l263 676l206 18l255 -685zM271 266h180l-89 252z" />
    <glyph glyph-name="B" unicode="B" horiz-adv-x="691" 
d="M372 680q264 0 264 -187q0 -46 -23 -84t-74 -55q60 -13 88.5 -57t28.5 -100q0 -103 -65 -150t-198 -47h-322v680h301zM370 411q47 0 67.5 16t20.5 48q0 65 -88 65h-126v-129h126zM244 280v-140h148q86 0 86 70q0 69 -86 70h-148z" />
    <glyph glyph-name="C" unicode="C" horiz-adv-x="668" 
d="M623 39q-101 -49 -226 -49q-165 0 -263.5 95.5t-98.5 254.5q0 160 100 255t270 95q125 0 226 -49l-27 -152q-94 61 -191 61q-93 0 -146.5 -53.5t-53.5 -156.5q0 -102 52 -156t139 -54q125 0 219 62v-153z" />
    <glyph glyph-name="D" unicode="D" horiz-adv-x="757" 
d="M71 0v680h263q172 0 271.5 -96.5t99.5 -243.5q0 -148 -99.5 -244t-271.5 -96h-263zM334 140q91 0 142 53.5t51 146.5t-51 146.5t-142 53.5h-90v-400h90z" />
    <glyph glyph-name="E" unicode="E" horiz-adv-x="613" 
d="M71 0v680h489v-140h-316v-124h278l18 -140h-296v-136h326v-140h-499z" />
    <glyph glyph-name="F" unicode="F" horiz-adv-x="600" 
d="M71 0v680h496v-140h-323v-161h284l19 -140h-303v-239h-173z" />
    <glyph glyph-name="G" unicode="G" horiz-adv-x="683" 
d="M465 323l165 18v-305q-102 -46 -243 -46q-163 0 -257.5 95t-94.5 255t94.5 255t257.5 95q126 0 226 -49l-18 -152q-95 61 -192 61q-87 0 -138.5 -54t-51.5 -156t51.5 -156t138.5 -54q35 0 62 8v185z" />
    <glyph glyph-name="H" unicode="H" horiz-adv-x="760" 
d="M516 671l173 18v-689h-173v276h-272v-276h-173v671l173 18v-273h272v255z" />
    <glyph glyph-name="I" unicode="I" horiz-adv-x="315" 
d="M244 0h-173v671l173 18v-689z" />
    <glyph glyph-name="J" unicode="J" horiz-adv-x="499" 
d="M434 680v-452q0 -238 -263 -238q-78 0 -161 17l18 139q58 -16 126 -16q50 0 78.5 25.5t28.5 76.5v308h-167v140h340z" />
    <glyph glyph-name="K" unicode="K" horiz-adv-x="701" 
d="M512 -10l-172 286h-96v-276h-173v680h173v-265h97l160 265h192l-204 -327l210 -345z" />
    <glyph glyph-name="L" unicode="L" horiz-adv-x="594" 
d="M71 0v671l173 18v-549h318l19 -140h-510z" />
    <glyph glyph-name="M" unicode="M" horiz-adv-x="897" 
d="M486 138h-97l-162 247v-385h-156v680h169l208 -317l209 317h169v-671l-174 -18v394z" />
    <glyph glyph-name="N" unicode="N" horiz-adv-x="768" 
d="M227 420v-420h-156v680h169l301 -412v403l156 18v-689h-169z" />
    <glyph glyph-name="O" unicode="O" horiz-adv-x="805" 
d="M403 -10q-174 0 -271 99.5t-97 250.5q0 150 97 250t271 100q173 0 270 -100t97 -250q0 -151 -97 -250.5t-270 -99.5zM402 550q-92 0 -141 -57t-49 -153t49 -153t141 -57q93 0 141.5 57t48.5 153t-48.5 153t-141.5 57z" />
    <glyph glyph-name="P" unicode="P" horiz-adv-x="673" 
d="M374 680q130 0 204 -63t74 -169t-74 -169t-204 -63h-130v-216h-173v680h303zM366 356q50 0 79 25.5t29 66.5q0 42 -29 67t-79 25h-122v-184h122z" />
    <glyph glyph-name="Q" unicode="Q" horiz-adv-x="805" 
d="M770 340q0 -158 -102 -255l73 -91l-118 -91l-85 106q-63 -19 -135 -19q-174 0 -271 99.5t-97 250.5q0 150 97 250t271 100q173 0 270 -100t97 -250zM402 129q24 0 47 5l-66 101l85 66l91 -94q33 54 33 133q0 96 -48.5 153.5t-141.5 57.5q-92 0 -141 -57.5t-49 -153.5
t49 -153.5t141 -57.5z" />
    <glyph glyph-name="R" unicode="R" horiz-adv-x="690" 
d="M492 -10l-155 248h-93v-238h-173v680h305q262 0 262 -221q0 -70 -34.5 -119.5t-96.5 -73.5l163 -258zM244 378h118q99 0 99 81t-99 81h-118v-162z" />
    <glyph glyph-name="S" unicode="S" horiz-adv-x="612" 
d="M42 192q49 -30 113.5 -46t120.5 -16q117 0 117 58q0 26 -36 44.5t-87 34t-102.5 38t-87.5 69t-36 114.5q0 102 72 152t181 50q74 0 129 -11.5t129 -37.5l-19 -152q-121 61 -214 61q-49 0 -74.5 -10.5t-25.5 -42.5q0 -26 36 -44t87 -33t102 -37t87 -67.5t36 -111.5
q0 -57 -22.5 -100t-61.5 -67t-85.5 -35.5t-99.5 -11.5q-146 0 -259 49v153z" />
    <glyph glyph-name="T" unicode="T" horiz-adv-x="600" 
d="M213 0v540h-201v140h576l-18 -140h-183v-540h-174z" />
    <glyph glyph-name="U" unicode="U" horiz-adv-x="748" 
d="M65 671l173 18v-405q0 -80 30.5 -117t105.5 -37t105.5 36.5t30.5 117.5v387l173 18v-443q0 -110 -78 -183t-231 -73t-231 73.5t-78 182.5v425z" />
    <glyph glyph-name="V" unicode="V" horiz-adv-x="727" 
d="M6 671l173 18l183 -527l183 518h176l-260 -685h-207z" />
    <glyph glyph-name="W" unicode="W" horiz-adv-x="1033" 
d="M1022 680l-195 -685h-199l-116 407l-111 -407h-191l-199 676l165 18l138 -497l123 488h158l133 -488l129 488h165z" />
    <glyph glyph-name="X" unicode="X" horiz-adv-x="698" 
d="M506 -9l-169 238l-149 -229h-186l240 353l-223 318l190 18l144 -212l127 203h187l-216 -326l245 -345z" />
    <glyph glyph-name="Y" unicode="Y" horiz-adv-x="689" 
d="M424 203v-203h-173v204l-245 467l173 18l163 -323l159 314h182z" />
    <glyph glyph-name="Z" unicode="Z" horiz-adv-x="619" 
d="M566 140l18 -140h-549v111l318 429h-299v140h520v-110l-318 -430h310z" />
    <glyph glyph-name="bracketleft" unicode="[" horiz-adv-x="360" 
d="M65 -150v980h268v-115h-128v-750h129v-115h-269z" />
    <glyph glyph-name="backslash" unicode="\" horiz-adv-x="492" 
d="M336 0l-313 680h132l313 -680h-132z" />
    <glyph glyph-name="bracketright" unicode="]" horiz-adv-x="360" 
d="M295 -150h-269v115h129v750h-128v115h268v-980z" />
    <glyph glyph-name="asciicircum" unicode="^" horiz-adv-x="424" 
d="M212 418l171 -127l-45 -70l-126 78l-126 -78l-44 70z" />
    <glyph glyph-name="underscore" unicode="_" horiz-adv-x="566" 
d="M55 -160v123h456v-123h-456z" />
    <glyph glyph-name="a" unicode="a" horiz-adv-x="596" 
d="M563 112q13 0 25 4v-116q-37 -10 -81 -10q-110 0 -135 82q-59 -82 -170 -82q-77 0 -122 41t-45 104q0 167 246 167q30 0 84 -6v32q0 60 -101 60q-85 0 -178 -37l-27 117q99 42 229 42q119 0 180.5 -50.5t61.5 -144.5v-163q0 -21 7 -30.5t26 -9.5zM269 113q56 0 96 37v58
q-34 6 -71 6q-90 0 -90 -53q0 -24 18.5 -36t46.5 -12z" />
    <glyph glyph-name="b" unicode="b" horiz-adv-x="629" 
d="M374 510q100 0 158.5 -70t58.5 -190t-58.5 -190t-158.5 -70q-96 0 -149 82l-17 -72h-148v712l165 18v-302q53 82 149 82zM316 113q52 0 79 37.5t27 99.5q0 63 -27 100.5t-79 37.5q-49 0 -91 -38v-200q41 -37 91 -37z" />
    <glyph glyph-name="c" unicode="c" horiz-adv-x="535" 
d="M334 113q69 0 146 36l27 -116q-84 -43 -192 -43q-130 0 -203.5 70.5t-73.5 189.5t73.5 189.5t203.5 70.5q106 0 192 -42l-27 -117q-79 37 -146 37q-55 0 -90.5 -34.5t-35.5 -103.5t35.5 -103t90.5 -34z" />
    <glyph glyph-name="d" unicode="d" horiz-adv-x="629" 
d="M255 510q97 0 149 -82v284l165 18v-730h-148l-17 72q-52 -82 -149 -82q-100 0 -158.5 70.5t-58.5 189.5q0 120 58.5 190t158.5 70zM313 113q50 0 91 37v200q-42 38 -91 38q-52 0 -79 -37.5t-27 -100.5q0 -62 27 -99.5t79 -37.5z" />
    <glyph glyph-name="e" unicode="e" horiz-adv-x="597" 
d="M558 263q0 -35 -3 -58h-342q22 -101 133 -101q87 0 165 37l27 -108q-82 -43 -210 -43q-142 0 -216 69.5t-74 190.5q0 119 74 189.5t201 70.5q126 0 185.5 -69t59.5 -178zM212 306h181q0 90 -85 90q-78 0 -96 -90z" />
    <glyph glyph-name="f" unicode="f" horiz-adv-x="412" 
d="M19 500h77v47q0 85 50 134t151 49q76 0 128 -20l-27 -114q-34 12 -72 12q-65 0 -65 -66v-42h135v-122h-135v-378h-165v378h-77v122z" />
    <glyph glyph-name="g" unicode="g" horiz-adv-x="629" 
d="M569 500v-475q0 -119 -77 -187t-220 -68q-59 0 -120.5 12t-97.5 30l27 117q79 -37 181 -37q142 0 142 125v75q-52 -82 -149 -82q-99 0 -158 68.5t-59 181.5t59 181.5t158 68.5q97 0 149 -82l17 72h148zM404 170v180q-42 38 -91 38q-51 0 -78.5 -35.5t-27.5 -92.5
q0 -56 27.5 -91.5t78.5 -35.5q50 0 91 37z" />
    <glyph glyph-name="h" unicode="h" horiz-adv-x="601" 
d="M373 510q173 0 173 -188v-322h-165v318q0 70 -76 70q-43 0 -80 -35v-353h-165v712l165 18v-298q53 78 148 78z" />
    <glyph glyph-name="i" unicode="i" horiz-adv-x="285" 
d="M144 560l-112 107l112 107l109 -107zM225 0h-165v500h165v-500z" />
    <glyph glyph-name="j" unicode="j" horiz-adv-x="285" 
d="M144 560l-112 107l112 107l109 -107zM225 -53q0 -91 -48 -134t-132 -43q-61 0 -98 10l18 117q25 -5 44 -5q51 0 51 50v558h165v-553z" />
    <glyph glyph-name="k" unicode="k" horiz-adv-x="592" 
d="M415 0l-137 194h-53v-194h-165v712l165 18v-413h44l139 183h176l-172 -233l186 -267h-183z" />
    <glyph glyph-name="l" unicode="l" horiz-adv-x="285" 
d="M60 0v712l165 18v-730h-165z" />
    <glyph glyph-name="m" unicode="m" horiz-adv-x="920" 
d="M692 510q173 0 173 -188v-322h-165v318q0 70 -76 70q-44 0 -80 -36q1 -9 1 -30v-322h-165v318q0 70 -76 70q-42 0 -79 -35v-353h-165v500h148l16 -70q50 80 148 80q124 0 160 -99q51 99 160 99z" />
    <glyph glyph-name="n" unicode="n" horiz-adv-x="601" 
d="M373 510q173 0 173 -188v-322h-165v318q0 70 -76 70q-43 0 -80 -35v-353h-165v500h148l16 -70q52 80 149 80z" />
    <glyph glyph-name="o" unicode="o" horiz-adv-x="638" 
d="M319 510q133 0 207 -75t74 -185t-74 -185t-207 -75q-134 0 -207.5 74.5t-73.5 185.5q0 110 73.5 185t207.5 75zM319 113q57 0 84.5 39.5t27.5 97.5t-27.5 98t-84.5 40t-84.5 -40t-27.5 -98t27.5 -97.5t84.5 -39.5z" />
    <glyph glyph-name="p" unicode="p" horiz-adv-x="629" 
d="M374 -10q-96 0 -149 82v-284l-165 -18v730h148l17 -72q53 82 149 82q100 0 158.5 -70t58.5 -190t-58.5 -190t-158.5 -70zM316 388q-49 0 -91 -38v-200q41 -37 91 -37q52 0 79 37.5t27 99.5q0 63 -27 100.5t-79 37.5z" />
    <glyph glyph-name="q" unicode="q" horiz-adv-x="629" 
d="M255 -10q-100 0 -158.5 70.5t-58.5 189.5q0 120 58.5 190t158.5 70q97 0 149 -82l17 72h148v-712l-165 -18v302q-52 -82 -149 -82zM313 388q-52 0 -79 -37.5t-27 -100.5q0 -62 27 -99.5t79 -37.5q50 0 91 37v200q-42 38 -91 38z" />
    <glyph glyph-name="r" unicode="r" horiz-adv-x="416" 
d="M399 345q-115 0 -174 -44v-301h-165v500h148l15 -113q26 58 69.5 90.5t93.5 32.5z" />
    <glyph glyph-name="s" unicode="s" horiz-adv-x="510" 
d="M208 355q0 -19 27.5 -31.5t67 -22t79.5 -23.5t67.5 -45t27.5 -77q0 -79 -58.5 -122.5t-173.5 -43.5q-130 0 -212 42l27 113q79 -37 181 -37q67 0 67 41q0 20 -27.5 33t-67 22.5t-79.5 23.5t-67.5 46t-27.5 81q0 78 60.5 116.5t165.5 38.5q59 0 117.5 -12t93.5 -30
l-26 -113q-79 37 -181 37q-61 0 -61 -37z" />
    <glyph glyph-name="t" unicode="t" horiz-adv-x="420" 
d="M261 680v-180h134v-122h-134v-212q0 -53 60 -53q35 0 66 12l18 -116q-55 -19 -132 -19q-177 0 -177 172v216h-77v122h77v153z" />
    <glyph glyph-name="u" unicode="u" horiz-adv-x="601" 
d="M376 500h165v-500h-148l-16 70q-53 -80 -149 -80q-173 0 -173 188v314l165 18v-327q0 -70 76 -70q44 0 80 34v353z" />
    <glyph glyph-name="v" unicode="v" horiz-adv-x="611" 
d="M310 200l108 300h179l-218 -506h-147l-218 506h178z" />
    <glyph glyph-name="w" unicode="w" horiz-adv-x="849" 
d="M350 500h140l100 -324l87 324h158l-152 -506h-172l-91 280l-82 -280h-172l-152 506h158l87 -324z" />
    <glyph glyph-name="x" unicode="x" horiz-adv-x="570" 
d="M373 0l-93 141l-96 -141h-181l188 264l-177 236h184l88 -126l84 126h177l-169 -233l189 -267h-194z" />
    <glyph glyph-name="y" unicode="y" horiz-adv-x="613" 
d="M428 500h170l-223 -515q-48 -112 -102 -163.5t-154 -51.5q-49 0 -92 13l19 117q38 -8 68 -8q63 0 99 67l19 38l-218 503h170l127 -308z" />
    <glyph glyph-name="z" unicode="z" horiz-adv-x="512" 
d="M461 500v-97l-222 -280h242v-123h-450v98l222 280h-208v122h416z" />
    <glyph glyph-name="braceleft" unicode="{" horiz-adv-x="366" 
d="M334 -148q-47 0 -87 8t-78.5 27t-61 57.5t-22.5 93.5q0 32 10 96t10 88q0 69 -81 69v98q81 0 81 69q0 24 -10 88t-10 96q0 55 22.5 93.5t61 57.5t78.5 27t87 8v-113q-52 0 -70.5 -18t-18.5 -62q0 -27 9 -83t9 -77q0 -52 -36.5 -90.5t-105.5 -44.5q69 -6 105.5 -44.5
t36.5 -90.5q0 -21 -9 -77t-9 -83q0 -44 18.5 -62t70.5 -18v-113z" />
    <glyph glyph-name="bar" unicode="|" horiz-adv-x="232" 
d="M65 -125v930h102v-930h-102z" />
    <glyph glyph-name="braceright" unicode="}" horiz-adv-x="366" 
d="M342 291q-81 0 -81 -69q0 -24 10 -88t10 -96q0 -55 -22 -93.5t-61 -57.5t-79 -27t-87 -8v113q52 0 70.5 18t18.5 62q0 27 -9 83t-9 77q0 52 36.5 90.5t105.5 44.5q-69 6 -105.5 44.5t-36.5 90.5q0 21 9 77t9 83q0 44 -18.5 62t-70.5 18v113q47 0 87 -8t79 -27t61 -57.5
t22 -93.5q0 -32 -10 -96t-10 -88q0 -69 81 -69v-98z" />
    <glyph glyph-name="asciitilde" unicode="~" horiz-adv-x="504" 
d="M452 388q0 -80 -25 -108.5t-66 -28.5q-26 0 -102.5 18.5t-89.5 18.5q-14 0 -23.5 -10t-9.5 -27h-81q0 80 25 108.5t66 28.5q21 0 100 -18t93 -18q13 0 22.5 9.5t9.5 26.5h81z" />
    <glyph glyph-name="exclamdown" unicode="&#xa1;" horiz-adv-x="283" 
d="M211 500v-123h-140v123h140zM194 320l34 -205v-295h-173v295l34 205h105z" />
    <glyph glyph-name="cent" unicode="&#xa2;" horiz-adv-x="535" 
d="M484 324q-74 64 -151 64q-54 0 -89.5 -34.5t-35.5 -103.5t35.5 -103t89.5 -34q79 0 151 64v-133q-53 -45 -140 -52v-117h-102v121q-99 17 -153.5 84t-54.5 170t54.5 170.5t153.5 83.5v126h102v-122q87 -7 140 -52v-132z" />
    <glyph glyph-name="sterling" unicode="&#xa3;" horiz-adv-x="662" 
d="M614 140v-140h-571v140h84v124h-84v123h84v93q0 106 70 158t185 52q111 0 224 -49v-152q-53 29 -107.5 45.5t-83.5 16.5q-114 0 -114 -88v-76h197v-123h-197v-124h313z" />
    <glyph glyph-name="currency" unicode="&#xa4;" horiz-adv-x="723" 
d="M667 489q-94 62 -210 62q-118 0 -164 -97h174v-81h-198q-1 -11 -1 -33q0 -14 2 -38h197v-81h-171q46 -92 161 -92t210 63v-153q-101 -49 -226 -49q-130 0 -217 61t-118 170h-71v81h56q-2 24 -2 38q0 11 2 33h-56v81h69q30 111 118 173.5t219 62.5q125 0 226 -49v-152z
" />
    <glyph glyph-name="yen" unicode="&#xa5;" horiz-adv-x="737" 
d="M493 280h115v-123h-156v-157h-173v157h-157v123h117l-213 400h183l161 -314l159 314h183z" />
    <glyph glyph-name="brokenbar" unicode="&#xa6;" horiz-adv-x="237" 
d="M67 425v380h103v-380h-103zM67 -125v380h103v-380h-103z" />
    <glyph glyph-name="section" unicode="&#xa7;" horiz-adv-x="624" 
d="M562 643q-113 49 -246 49q-52 0 -97.5 -11.5t-84 -35t-61 -65.5t-22.5 -99q0 -60 26.5 -95t78.5 -53t111 -30.5t143 -40t154 -69.5q14 31 14 58q0 55 -26 93t-64.5 55t-84 29t-84 17t-64.5 18.5t-26 34.5q0 54 113 54q121 0 220 -62v153zM54 -151q113 -49 258 -49
q52 0 98 11.5t84.5 35t61 65.5t22.5 98q0 60 -31 97t-87 56.5t-117 33.5t-140 39.5t-138 62.5q-14 -28 -14 -58q0 -55 26 -93t64.5 -54.5t84 -28.5t84 -17.5t64.5 -19t26 -34.5q0 -55 -113 -55q-54 0 -119 16t-114 46v-152z" />
    <glyph glyph-name="copyright" unicode="&#xa9;" horiz-adv-x="475" 
d="M237 280q-83 0 -141.5 59t-58.5 141q0 83 58.5 141.5t141.5 58.5t141.5 -58.5t58.5 -141.5t-58.5 -141.5t-141.5 -58.5zM237 295q77 0 131 54.5t54 130.5t-54 130.5t-131 54.5t-131 -54.5t-54 -130.5t54 -130.5t131 -54.5zM322 375q-40 -18 -80 -18q-57 0 -90 33.5
t-33 89.5q0 57 33 90t90 33q40 0 80 -18v-54q-35 22 -74 22q-30 0 -48 -19t-18 -54t18 -54t48 -19q41 0 74 22v-54z" />
    <glyph glyph-name="guillemotleft" unicode="&#xab;" horiz-adv-x="547" 
d="M312 456l-167 -206l167 -206h-106l-177 206l177 206h106zM512 456l-167 -206l167 -206h-106l-177 206l177 206h106z" />
    <glyph glyph-name="logicalnot" unicode="&#xac;" horiz-adv-x="561" 
d="M494 495v-353h-123v230h-333v123h456z" />
    <glyph glyph-name="uni00AD" unicode="&#xad;" horiz-adv-x="462" 
d="M53 232v123h356v-123h-356z" />
    <glyph glyph-name="registered" unicode="&#xae;" horiz-adv-x="475" 
d="M237 280q-83 0 -141.5 59t-58.5 141q0 83 58.5 141.5t141.5 58.5t141.5 -58.5t58.5 -141.5t-58.5 -141.5t-141.5 -58.5zM237 295q77 0 131 54.5t54 130.5t-54 130.5t-131 54.5t-131 -54.5t-54 -130.5t54 -130.5t131 -54.5zM281 360h66l-56 94q43 18 43 67q0 77 -92 77
h-96v-238h61v85h24zM207 494v55h31q33 0 33 -28t-33 -27h-31z" />
    <glyph glyph-name="degree" unicode="&#xb0;" horiz-adv-x="279" 
d="M140 487q-43 0 -72.5 29.5t-29.5 71.5q0 43 29.5 72.5t72.5 29.5q42 0 71.5 -29.5t29.5 -72.5t-29 -72t-72 -29zM139 547q17 0 29.5 12t12.5 29t-12.5 29.5t-29.5 12.5t-29 -12.5t-12 -29.5t12 -29t29 -12z" />
    <glyph glyph-name="plusminus" unicode="&#xb1;" horiz-adv-x="604" 
d="M549 437v-123h-186v-129h-123v129h-186v123h186v129h123v-129h186zM54 152h495v-123h-495v123z" />
    <glyph glyph-name="paragraph" unicode="&#xb6;" horiz-adv-x="701" 
d="M295 223q-128 0 -196 61t-68 168q0 106 68 167t196 61h143v-680h-131v223h-12zM622 0h-123v680h123v-680z" />
    <glyph glyph-name="periodcentered" unicode="&#xb7;" horiz-adv-x="243" 
d="M189 177h-135v135h135v-135z" />
    <glyph glyph-name="guillemotright" unicode="&#xbb;" horiz-adv-x="547" 
d="M34 456h107l176 -206l-176 -206h-107l168 206zM234 456h107l176 -206l-176 -206h-107l168 206z" />
    <glyph glyph-name="questiondown" unicode="&#xbf;" horiz-adv-x="529" 
d="M252 500h140v-123h-140v123zM388 137q-182 0 -182 -97q0 -42 28 -66.5t79 -24.5q39 0 89.5 15.5t92.5 45.5v-153q-90 -47 -219 -47q-110 0 -178.5 55.5t-68.5 158.5q0 189 223 208l13 88h123v-183z" />
    <glyph glyph-name="multiply" unicode="&#xd7;" horiz-adv-x="521" 
d="M347 319l148 147l-87 87l-148 -147l-147 147l-87 -87l147 -147l-147 -148l87 -87l147 148l148 -148l87 87z" />
    <glyph glyph-name="divide" unicode="&#xf7;" horiz-adv-x="546" 
d="M342 448h-132v123h132v-123zM45 257v123h456v-123h-456zM342 67h-132v124h132v-124z" />
    <glyph glyph-name="uni060C" unicode="&#x60c;" horiz-adv-x="277" 
d="M180 315l88 -5q-18 -47 -31.5 -122t-13.5 -138h-132q10 150 89 265z" />
    <glyph glyph-name="uni061B" unicode="&#x61b;" horiz-adv-x="295" 
d="M186 672l88 -5q-18 -47 -31.5 -122t-13.5 -138h-132q10 150 89 265zM191 0h-134v135h134v-135z" />
    <glyph glyph-name="uni061F" unicode="&#x61f;" horiz-adv-x="495" 
d="M238 725q63 0 133 -33.5t129 -90.5l-101 -94q-96 82 -162 82q-29 0 -48 -15t-19 -40q0 -23 20.5 -42t78.5 -56q53 -35 78 -70t29 -87l-84 -33h-79v10q0 25 -19.5 47.5t-72.5 58.5q-56 38 -81.5 77.5t-25.5 97.5q0 85 62 136.5t162 51.5zM252 0v135h135v-135h-135z" />
    <glyph glyph-name="uni0621" unicode="&#x621;" horiz-adv-x="499" 
d="M234 165h251l-42 -165h-425v165h95q-35 61 -35 119q0 76 55.5 126t134.5 50q71 0 180 -41l-43 -132q-72 27 -112 27q-80 0 -82 -76q0 -36 23 -73z" />
    <glyph glyph-name="uni0622" unicode="&#x622;" horiz-adv-x="304" 
d="M100 775q22 0 63.5 -18.5t64.5 -18.5q46 0 80 25l-1 -94q-35 -25 -77 -25q-24 0 -62.5 18.5t-57.5 18.5q-44 0 -50 -39h-72q1 64 31 98.5t81 34.5zM79 0v590l156 18v-608h-156z" />
    <glyph glyph-name="uni0623" unicode="&#x623;" horiz-adv-x="304" 
d="M161 739h127l-18 -84h-238v84h42q-11 24 -11 49q0 39 28 65t71 26q46 0 90 -20v-76q-39 15 -64 15q-17 0 -27.5 -7.5t-10.5 -20.5q0 -17 11 -31zM79 0v590l156 18v-608h-156z" />
    <glyph glyph-name="uni0624" unicode="&#x624;" horiz-adv-x="559" 
d="M414 676l-32 -101h-234v101h50q-15 26 -15 53q0 47 32.5 76.5t82.5 29.5q34 0 78 -21v-89q-42 14 -68 14q-44 0 -44 -32q0 -16 12 -31h138zM279 507q103 0 168.5 -68t65.5 -182v-235q0 -237 -411 -237l-16 127q139 0 203 25t68 84q-50 -21 -92 -21q-103 0 -167.5 68
t-64.5 181q0 110 71 184t175 74zM173 254q0 -48 29.5 -73.5t76.5 -24.5q32 0 79 10v80q0 48 -25 75.5t-66 27.5q-39 0 -66.5 -26.5t-27.5 -68.5z" />
    <glyph glyph-name="uni0625" unicode="&#x625;" horiz-adv-x="292" 
d="M223 730v-730h-156v712zM135 -180h127l-19 -84h-238v84h43q-11 21 -11 49q0 39 28 65t70 26q46 0 90 -20v-76q-37 15 -63 15q-38 0 -38 -28q0 -17 11 -31z" />
    <glyph glyph-name="uni0626" unicode="&#x626;" horiz-adv-x="974" 
d="M284 469l-32 -101h-234v101h50q-15 25 -15 53q0 47 32.5 76.5t82.5 29.5q34 0 78 -21v-89q-42 14 -68 14q-44 0 -44 -32q0 -16 12 -31h138zM838 494l91 -80v-406l-156 -18v339h-57q-84 0 -84 -101v-146q0 -148 -73.5 -222.5t-233.5 -74.5q-299 0 -299 267q0 103 43 233
l126 -34q-28 -89 -28 -153q1 -148 158 -148q79 0 115 35.5t36 117.5v164q0 104 54.5 165.5t155.5 61.5h152z" />
    <glyph glyph-name="uni0627" unicode="&#x627;" horiz-adv-x="292" 
d="M67 0v712l156 18v-730h-156z" />
    <glyph glyph-name="uni0628" unicode="&#x628;" horiz-adv-x="818" 
d="M615 488l156 19v-297q0 -207 -234 -210h-1h-261q-249 0 -249 226q0 75 19 162l134 -16q-10 -67 -10 -98q0 -57 35 -83t110 -26h218q43 0 63.5 24.5t20.5 77.5zM317 -154l104 103l104 -103l-103 -103z" />
    <glyph glyph-name="uni0629" unicode="&#x629;" horiz-adv-x="532" 
d="M266 645l-78 -78l-104 104l103 103l79 -77l78 77l104 -103l-102 -104zM267 506q104 0 173 -77.5t69 -185.5q0 -107 -68.5 -179.5t-173.5 -72.5q-106 0 -175 72t-69 180q0 109 69.5 186t174.5 77zM267 148q41 0 68 28t27 70q0 43 -27 73.5t-68 30.5t-69 -30.5t-28 -73.5
q0 -42 27.5 -70t69.5 -28z" />
    <glyph glyph-name="uni062A" unicode="&#x62a;" horiz-adv-x="818" 
d="M392 528l-78 -78l-104 104l103 103l79 -77l78 77l104 -103l-102 -104zM615 488l156 19v-297q0 -207 -234 -210h-1h-261q-249 0 -249 226q0 75 19 162l134 -16q-10 -67 -10 -98q0 -57 35 -83t110 -26h218q43 0 63.5 24.5t20.5 77.5z" />
    <glyph glyph-name="uni062B" unicode="&#x62b;" horiz-adv-x="818" 
d="M445 697l-67 -67l-66 67l65 67zM377 530l-78 -78l-104 104l103 103l79 -77l78 77l104 -103l-102 -104zM615 488l156 19v-297q0 -207 -234 -210h-1h-261q-249 0 -249 226q0 75 19 162l134 -16q-10 -67 -10 -98q0 -57 35 -83t110 -26h218q43 0 63.5 24.5t20.5 77.5z" />
    <glyph glyph-name="uni062C" unicode="&#x62c;" horiz-adv-x="614" 
d="M330 -117q75 0 196 35l42 -133q-148 -60 -272 -60q-121 0 -196 64.5t-75 177.5q0 253 392 302q-91 64 -140.5 87.5t-97.5 23.5q-33 0 -95 -14l-30 139q84 34 144 34q67 0 147.5 -42.5t252.5 -166.5l-51 -160q-171 0 -271.5 -48.5t-100.5 -128.5q0 -52 39 -81t116 -29z
M368 -76l-105 103l104 103l104 -103z" />
    <glyph glyph-name="uni062D" unicode="&#x62d;" horiz-adv-x="614" 
d="M330 -117q75 0 196 35l42 -133q-148 -60 -272 -60q-121 0 -196 64.5t-75 177.5q0 253 392 302q-91 64 -140.5 87.5t-97.5 23.5q-33 0 -95 -14l-30 139q84 34 144 34q67 0 147.5 -42.5t252.5 -166.5l-51 -160q-171 0 -271.5 -48.5t-100.5 -128.5q0 -52 39 -81t116 -29z
" />
    <glyph glyph-name="uni062E" unicode="&#x62e;" horiz-adv-x="614" 
d="M528 652l-103 -103l-105 103l104 103zM330 -117q75 0 196 35l42 -133q-148 -60 -272 -60q-121 0 -196 64.5t-75 177.5q0 253 392 302q-91 64 -140.5 87.5t-97.5 23.5q-33 0 -95 -14l-30 139q84 34 144 34q67 0 147.5 -42.5t252.5 -166.5l-51 -160q-171 0 -271.5 -48.5
t-100.5 -128.5q0 -52 39 -81t116 -29z" />
    <glyph glyph-name="uni062F" unicode="&#x62f;" horiz-adv-x="533" 
d="M34 0l-24 165h250q41 0 62 20.5t21 56.5v32q-1 40 -31 64.5t-78 24.5h-68v160h104q105 0 167.5 -61.5t62.5 -173.5v-78q-3 -210 -242 -210h-224z" />
    <glyph glyph-name="uni0630" unicode="&#x630;" horiz-adv-x="533" 
d="M238 587l-105 103l104 103l104 -103zM34 0l-24 165h250q41 0 62 20.5t21 56.5v32q-1 40 -31 64.5t-78 24.5h-68v160h104q105 0 167.5 -61.5t62.5 -173.5v-78q-3 -210 -242 -210h-224z" />
    <glyph glyph-name="uni0631" unicode="&#x631;" horiz-adv-x="330" 
d="M-4 -215l-11 127q140 0 140 118l-1 458l156 19v-484q0 -127 -69 -182.5t-215 -55.5z" />
    <glyph glyph-name="uni0632" unicode="&#x632;" horiz-adv-x="330" 
d="M202 554l-105 103l104 103l104 -103zM-4 -215l-11 127q140 0 140 118l-1 458l156 19v-484q0 -127 -69 -182.5t-215 -55.5z" />
    <glyph glyph-name="uni0633" unicode="&#x633;" horiz-adv-x="1333" 
d="M1129 488l156 19v-297q0 -103 -53.5 -156.5t-156.5 -53.5q-83 0 -166 56q-61 -56 -161 -56q-62 0 -119 38q-14 -121 -92 -187t-212 -66q-299 0 -299 267q0 103 43 233l126 -34q-28 -89 -28 -153q1 -148 158 -148q152 0 151 165v373l156 19v-315q48 -27 100 -27
q43 0 63.5 24.5t20.5 77.5l-1 120l156 18v-195q0 -13 -2 -33q37 -12 77 -12q83 0 83 102v221z" />
    <glyph glyph-name="uni0634" unicode="&#x634;" horiz-adv-x="1333" 
d="M960 750l-67 -67l-66 67l65 67zM892 583l-78 -78l-104 104l103 103l79 -77l78 77l104 -103l-102 -104zM1129 488l156 19v-297q0 -103 -53.5 -156.5t-156.5 -53.5q-83 0 -166 56q-61 -56 -161 -56q-62 0 -119 38q-14 -121 -92 -187t-212 -66q-299 0 -299 267q0 103 43 233
l126 -34q-28 -89 -28 -153q1 -148 158 -148q152 0 151 165v373l156 19v-315q48 -27 100 -27q43 0 63.5 24.5t20.5 77.5l-1 120l156 18v-195q0 -13 -2 -33q37 -12 77 -12q83 0 83 102v221z" />
    <glyph glyph-name="uni0635" unicode="&#x635;" horiz-adv-x="1272" 
d="M1008 536q102 0 166 -65t64 -170q0 -67 -28 -168l-113 -133h-475q-23 -103 -99 -159t-198 -56q-299 0 -299 267q0 103 43 233l126 -34q-28 -89 -28 -153q1 -148 158 -148q152 0 151 165v373l156 19v-88q140 66 221.5 91.5t154.5 25.5zM1061 165q20 74 20 121
q0 40 -30.5 65t-77.5 25q-53 0 -100 -11.5t-192 -56.5q-32 -10 -49 -15v-128h429z" />
    <glyph glyph-name="uni0636" unicode="&#x636;" horiz-adv-x="1272" 
d="M862 693l-103 -103l-105 103l104 103zM1008 536q102 0 166 -65t64 -170q0 -67 -28 -168l-113 -133h-475q-23 -103 -99 -159t-198 -56q-299 0 -299 267q0 103 43 233l126 -34q-28 -89 -28 -153q1 -148 158 -148q152 0 151 165v373l156 19v-88q140 66 221.5 91.5
t154.5 25.5zM1061 165q20 74 20 121q0 40 -30.5 65t-77.5 25q-53 0 -100 -11.5t-192 -56.5q-32 -10 -49 -15v-128h429z" />
    <glyph glyph-name="uni0637" unicode="&#x637;" horiz-adv-x="939" 
d="M675 536q103 0 166.5 -65t63.5 -170q0 -65 -27 -168l-114 -133h-548h-76h-105l-23 165h128v547l157 18v-311q142 66 223.5 91.5t154.5 25.5zM728 165q20 74 20 121q0 40 -30 65t-78 25q-59 0 -114 -14t-229 -69v-128h431z" />
    <glyph glyph-name="uni0638" unicode="&#x638;" horiz-adv-x="939" 
d="M603 693l-103 -103l-105 103l104 103zM675 536q103 0 166.5 -65t63.5 -170q0 -65 -27 -168l-114 -133h-548h-76h-105l-23 165h128v547l157 18v-311q142 66 223.5 91.5t154.5 25.5zM728 165q20 74 20 121q0 40 -30 65t-78 25q-59 0 -114 -14t-229 -69v-128h431z" />
    <glyph glyph-name="uni0639" unicode="&#x639;" horiz-adv-x="586" 
d="M537 -84l43 -133q-144 -58 -262 -58q-124 0 -199 57.5t-75 160.5q0 129 123 203q-79 89 -79 189q0 89 64 146t167 57q71 0 193 -42l-43 -132q-87 22 -125 22q-52 0 -83.5 -25.5t-31.5 -65.5q0 -50 47 -102q8 2 21.5 6t17.5 5l194 50l6 -147l-173 -38q-153 -34 -153 -106
q0 -81 149 -81q89 0 199 34z" />
    <glyph glyph-name="uni063A" unicode="&#x63a;" horiz-adv-x="586" 
d="M411 704l-103 -103l-105 103l104 103zM537 -84l43 -133q-144 -58 -262 -58q-124 0 -199 57.5t-75 160.5q0 129 123 203q-79 89 -79 189q0 89 64 146t167 57q71 0 193 -42l-43 -132q-87 22 -125 22q-52 0 -83.5 -25.5t-31.5 -65.5q0 -50 47 -102q8 2 21.5 6t17.5 5l194 50
l6 -147l-173 -38q-153 -34 -153 -106q0 -81 149 -81q89 0 199 34z" />
    <glyph glyph-name="uni0640" unicode="&#x640;" horiz-adv-x="194" 
d="M194 165q10 0 10 -10v-144q0 -11 -10 -11h-194q-10 0 -10 11v144q0 10 10 10h194z" />
    <glyph glyph-name="uni0641" unicode="&#x641;" horiz-adv-x="939" 
d="M761 683l-103 -103l-105 103l104 103zM657 515q107 0 177 -68.5t70 -173.5q0 -125 -77 -199t-209 -74h-230h-113q-250 0 -250 226q0 71 20 162l134 -16q-11 -74 -11 -98q0 -57 35 -83t110 -26h137q-30 63 -30 117q0 101 68 167t169 66zM619 165q60 0 94.5 29.5t34.5 79.5
q0 40 -26.5 66t-66.5 26t-68 -28.5t-28 -69.5q0 -45 28 -103h32z" />
    <glyph glyph-name="uni0642" unicode="&#x642;" horiz-adv-x="797" 
d="M515 659l-78 -78l-104 104l103 103l79 -77l78 77l104 -103l-102 -104zM518 505q103 -1 168.5 -68t65.5 -182v-196q0 -138 -90 -206t-296 -68q-161 0 -250.5 69.5t-89.5 197.5q0 103 43 233l126 -34q-28 -89 -28 -153q1 -169 220 -169q84 0 142 24t74 71q-54 -24 -100 -24
q-102 0 -165.5 67.5t-63.5 179.5q0 111 70.5 184.5t173.5 73.5zM414 252q0 -47 28.5 -71.5t74.5 -24.5q36 0 80 11v78q0 48 -24.5 75t-66.5 27q-38 1 -65 -25.5t-27 -69.5z" />
    <glyph glyph-name="uni0643" unicode="&#x643;" horiz-adv-x="851" 
d="M621 712l156 18v-518q0 -212 -241 -212h-261q-249 0 -249 226q0 75 19 162l134 -16q-10 -67 -10 -98q0 -57 35 -83t110 -26h222h1q43 0 63 25t20 78zM542 454l-31 -102h-235v102h50q-14 26 -14 53q0 47 32.5 76.5t81.5 29.5q34 0 78 -21v-89q-42 14 -68 14q-44 0 -44 -33
q0 -15 12 -30h138z" />
    <glyph glyph-name="uni0644" unicode="&#x644;" horiz-adv-x="684" 
d="M476 720l156 18v-608v-37q0 -146 -79.5 -227t-227.5 -81q-299 0 -299 267q0 103 43 233l126 -34q-28 -89 -28 -153q1 -148 158 -148q152 0 151 165v373v232z" />
    <glyph glyph-name="uni0645" unicode="&#x645;" horiz-adv-x="710" 
d="M444 506q105 0 174 -77t69 -186q0 -107 -68.5 -179.5t-174.5 -72.5q-79 0 -139 42t-87 112q-38 -15 -38 -76v-321l-156 -18v344q0 113 45.5 171.5t140.5 68.5q21 84 84.5 138t149.5 54zM444 148q41 0 68.5 28.5t27.5 69.5q0 43 -27.5 73.5t-68.5 30.5t-69 -30.5
t-28 -73.5q0 -42 27.5 -70t69.5 -28z" />
    <glyph glyph-name="uni0646" unicode="&#x646;" horiz-adv-x="684" 
d="M304 399l-105 103l104 103l104 -103zM325 -215q-299 0 -299 267q0 103 43 233l126 -34q-28 -89 -28 -153q1 -148 158 -148q152 0 151 165v373l156 19v-414q0 -146 -79.5 -227t-227.5 -81z" />
    <glyph glyph-name="uni0647" unicode="&#x647;" horiz-adv-x="532" 
d="M267 -9q-106 0 -175 72t-69 180q0 109 69.5 186t174.5 77q104 0 173 -77.5t69 -185.5q0 -107 -68.5 -179.5t-173.5 -72.5zM267 148q41 0 68 28t27 70q0 43 -27 73.5t-68 30.5t-69 -30.5t-28 -73.5q0 -42 27.5 -70t69.5 -28z" />
    <glyph glyph-name="uni0648" unicode="&#x648;" horiz-adv-x="559" 
d="M279 507q103 0 168.5 -68t65.5 -182v-235q0 -237 -411 -237l-16 127q139 0 203 25t68 84q-50 -21 -92 -21q-103 0 -167.5 68t-64.5 181q0 110 71 184t175 74zM173 254q0 -48 29.5 -73.5t76.5 -24.5q32 0 79 10v80q0 48 -25 75.5t-66 27.5q-39 0 -66.5 -26.5t-27.5 -68.5z
" />
    <glyph glyph-name="uni0649" unicode="&#x649;" horiz-adv-x="974" 
d="M838 494l91 -80v-406l-156 -18v339h-57q-84 0 -84 -101v-146q0 -148 -73.5 -222.5t-233.5 -74.5q-299 0 -299 267q0 103 43 233l126 -34q-28 -89 -28 -153q1 -148 158 -148q79 0 115 35.5t36 117.5v164q0 104 54.5 165.5t155.5 61.5h152z" />
    <glyph glyph-name="uni064A" unicode="&#x64a;" horiz-adv-x="974" 
d="M838 494l91 -80v-406l-156 -18v339h-57q-84 0 -84 -101v-146q0 -148 -73.5 -222.5t-233.5 -74.5q-299 0 -299 267q0 103 43 233l126 -34q-28 -89 -28 -153q1 -148 158 -148q79 0 115 35.5t36 117.5v164q0 104 54.5 165.5t155.5 61.5h152zM388 -326l71 71l105 -103
l-103 -103l-73 71l-71 -71l-105 103l103 103z" />
    <glyph glyph-name="uni064B" unicode="&#x64b;" 
d="M132 766l13 -64l-273 -56l-13 64zM154 656l12 -63l-272 -56l-14 63z" />
    <glyph glyph-name="uni064C" unicode="&#x64c;" 
d="M77 806q43 0 74.5 -32t31.5 -76q0 -97 -101 -117l-221 -42l-39 60q42 20 42 52q0 37 -52 41l15 61q51 -4 81 -29.5t30 -63.5q0 -19 -10 -38l53 11q-14 27 -15 54q-4 51 28.5 85t82.5 34zM66 651q21 5 33.5 16.5t12.5 27.5t-11.5 27.5t-27.5 11.5q-17 0 -28.5 -12.5
t-11.5 -30.5q0 -22 14 -44z" />
    <glyph glyph-name="uni064D" unicode="&#x64d;" 
d="M132 -26l13 -64l-273 -56l-13 64zM154 -136l12 -63l-272 -56l-14 63z" />
    <glyph glyph-name="uni064E" unicode="&#x64e;" 
d="M148 710l14 -75l-278 -54l-15 74z" />
    <glyph glyph-name="uni064F" unicode="&#x64f;" 
d="M71 809q43 0 74.5 -32.5t31.5 -75.5q0 -48 -26.5 -78.5t-74.5 -39.5l-203 -40l-13 70l114 23q-14 32 -14 60q0 49 31.5 81t79.5 32zM60 654q45 10 45 43q0 16 -11 27.5t-27 11.5q-17 0 -28.5 -12.5t-11.5 -30.5q0 -21 14 -43z" />
    <glyph glyph-name="uni0650" unicode="&#x650;" 
d="M148 -60l14 -75l-278 -54l-15 74z" />
    <glyph glyph-name="uni0651" unicode="&#x651;" 
d="M150 743q18 -59 18 -107q0 -40 -24.5 -64t-64.5 -24q-39 0 -64 33q-19 -58 -84 -58q-77 0 -91 91l-10 64l71 10l9 -57q8 -37 31 -37q29 0 29 34q0 6 -2 20l-10 49l67 12l11 -53q6 -36 33 -36q28 2 28 29q0 22 -17 67z" />
    <glyph glyph-name="uni0652" unicode="&#x652;" 
d="M7 762q51 0 79.5 -32t28.5 -86q0 -52 -32 -83.5t-85 -31.5q-50 0 -77 30t-27 85t31 86.5t82 31.5zM3 689q-16 0 -27 -11.5t-11 -31.5q0 -45 38 -45q40 0 40 43q0 21 -11 33t-29 12z" />
    <glyph glyph-name="uni0653" unicode="&#x653;" 
d="M-44 754q22 0 63.5 -18.5t64.5 -18.5q46 0 80 26l-1 -94q-35 -25 -77 -25q-24 0 -62.5 18.5t-57.5 18.5q-44 0 -50 -39h-72q1 63 31 97.5t81 34.5z" />
    <glyph glyph-name="uni0654" unicode="&#x654;" 
d="M16 725h127l-18 -84h-238v84h42q-11 22 -11 49q0 39 28 65t70 26q46 0 90 -20v-76q-38 15 -63 15q-17 0 -27.5 -7.5t-10.5 -20.5q0 -17 11 -31z" />
    <glyph glyph-name="uni0655" unicode="&#x655;" 
d="M3 -173h127l-19 -84h-238v84h43q-11 22 -11 49q0 39 28 65t70 26q46 0 90 -20v-76q-37 15 -63 15q-38 0 -38 -28q0 -17 11 -31z" />
    <glyph glyph-name="uni0656" unicode="&#x656;" 
d="M54 -234l-98 20v72q0 51 -12 90h96q14 -39 14 -90v-92z" />
    <glyph glyph-name="uni0660" unicode="&#x660;" horiz-adv-x="313" 
d="M156 419l121 -120l-120 -119l-121 119z" />
    <glyph glyph-name="uni0661" unicode="&#x661;" horiz-adv-x="320" 
d="M220 680l35 -680h-156l-35 655z" />
    <glyph glyph-name="uni0662" unicode="&#x662;" horiz-adv-x="490" 
d="M526 680l-41 -165h-262l26 -515h-156l-29 556l150 124h312z" />
    <glyph glyph-name="uni0663" unicode="&#x663;" horiz-adv-x="657" 
d="M630 580q13 -218 -151 -218q-56 0 -107 37q-34 -37 -86 -37q-27 0 -50 10l19 -372h-156l-35 655l156 25l9 -165q14 -7 31 -7q51 0 48 68l-5 79l109 25l6 -100q2 -37 -1 -61q19 -11 39 -11q51 0 47 68l-4 79l125 25z" />
    <glyph glyph-name="uni0664" unicode="&#x664;" horiz-adv-x="486" 
d="M264 144q98 0 199 30l-17 -156q-107 -31 -187 -31q-233 0 -233 170q0 115 129 184q-114 41 -114 159q0 81 58 135.5t146 54.5q67 0 186 -46l-43 -133q-78 26 -117 26q-43 0 -67.5 -17t-24.5 -46q0 -39 46.5 -60.5t109.5 -11.5l58 15l30 -114l-182 -49q-70 -17 -70 -64
q0 -46 93 -46z" />
    <glyph glyph-name="uni0665" unicode="&#x665;" horiz-adv-x="584" 
d="M292 680q100 0 179 -117.5t79 -305.5q0 -123 -71 -196.5t-190 -73.5q-116 0 -185.5 73t-69.5 195q0 112 33.5 209.5t93.5 156.5t131 59zM289 523q-48 0 -83.5 -73.5t-35.5 -164.5q0 -141 120 -141q124 0 124 141q0 99 -34.5 168.5t-90.5 69.5z" />
    <glyph glyph-name="uni0666" unicode="&#x666;" horiz-adv-x="464" 
d="M249 680l151 -125l-29 -555h-157l27 515h-278l39 165h247z" />
    <glyph glyph-name="uni0667" unicode="&#x667;" horiz-adv-x="560" 
d="M412 680h181l-234 -681l-143 -14l-249 695h182l135 -477z" />
    <glyph glyph-name="uni0668" unicode="&#x668;" horiz-adv-x="560" 
d="M593 0h-182l-135 475l-128 -475h-181l234 681l143 14z" />
    <glyph glyph-name="uni0669" unicode="&#x669;" horiz-adv-x="562" 
d="M348 691l150 -125l-29 -566h-156l11 222q-44 -14 -81 -14q-101 0 -165 62t-64 164q0 115 70.5 185.5t181.5 70.5zM256 366q40 0 76 10l7 149h-86q-44 0 -71 -24.5t-27 -59.5t26 -55t75 -20z" />
    <glyph glyph-name="uni066A" unicode="&#x66a;" horiz-adv-x="639" 
d="M140 500l-105 103l103 103l105 -103zM241 0h-133l313 680h133zM501 22l-104 103l103 103l105 -103z" />
    <glyph glyph-name="uni066B" unicode="&#x66b;" horiz-adv-x="296" 
d="M96 -130l-89 5q18 48 32 123t13 137h133q-10 -150 -89 -265z" />
    <glyph glyph-name="uni066C" unicode="&#x66c;" horiz-adv-x="296" 
d="M98 -130l-89 5q18 47 31.5 122t13.5 138h132q-11 -152 -88 -265z" />
    <glyph glyph-name="uni066D" unicode="&#x66d;" horiz-adv-x="363" 
d="M267 233l75 -43l-37 -64l-75 44v-87h-73v87l-75 -44l-37 64l75 43l-75 43l37 64l75 -43v86h73v-86l75 43l37 -64z" />
    <glyph glyph-name="uni066E" unicode="&#x66e;" horiz-adv-x="818" 
d="M615 488l156 19v-297q0 -207 -234 -210h-1h-261q-249 0 -249 226q0 75 19 162l134 -16q-10 -67 -10 -98q0 -57 35 -83t110 -26h218q43 0 63.5 24.5t20.5 77.5z" />
    <glyph glyph-name="uni066F" unicode="&#x66f;" horiz-adv-x="797" 
d="M518 505q103 -1 168.5 -68t65.5 -182v-196q0 -138 -90 -206t-296 -68q-161 0 -250.5 69.5t-89.5 197.5q0 103 43 233l126 -34q-28 -89 -28 -153q1 -169 220 -169q84 0 142 24t74 71q-54 -24 -100 -24q-102 0 -165.5 67.5t-63.5 179.5q0 111 70.5 184.5t173.5 73.5z
M414 252q0 -47 28.5 -71.5t74.5 -24.5q36 0 80 11v78q0 48 -24.5 75t-66.5 27q-38 1 -65 -25.5t-27 -69.5z" />
    <glyph glyph-name="uni0670" unicode="&#x670;" 
d="M-56 782l98 -20v-72q0 -51 12 -90h-96q-14 39 -14 90v92z" />
    <glyph glyph-name="uni06A1" unicode="&#x6a1;" horiz-adv-x="939" 
d="M658 515q107 0 177 -68.5t70 -173.5q0 -125 -77.5 -199t-209.5 -74h-230h-113q-249 0 -249 226q0 75 19 162l134 -16q-10 -67 -10 -98q0 -57 35 -83t110 -26h136q-30 63 -30 117q0 101 68 167t170 66zM619 165q60 0 94.5 29.5t34.5 79.5q0 40 -26.5 66t-65.5 26
q-41 0 -69 -28.5t-28 -69.5q0 -47 29 -103h31z" />
    <glyph glyph-name="uni06A4" unicode="&#x6a4;" horiz-adv-x="939" 
d="M727 825l-67 -67l-66 67l65 67zM659 658l-78 -78l-104 104l103 103l79 -77l78 77l104 -103l-102 -104zM657 515q107 0 177 -68.5t70 -173.5q0 -125 -77 -199t-209 -74h-230h-113q-250 0 -250 226q0 71 20 162l134 -16q-11 -74 -11 -98q0 -57 35 -83t110 -26h137
q-30 63 -30 117q0 101 68 167t169 66zM619 165q60 0 94.5 29.5t34.5 79.5q0 40 -26.5 66t-66.5 26t-68 -28.5t-28 -69.5q0 -45 28 -103h32z" />
    <glyph glyph-name="uni06BA" unicode="&#x6ba;" horiz-adv-x="684" 
d="M325 -215q-299 0 -299 267q0 103 43 233l126 -34q-28 -89 -28 -153q1 -148 158 -148q152 0 151 165v373l156 19v-414q0 -146 -79.5 -227t-227.5 -81z" />
    <glyph glyph-name="endash" unicode="&#x2013;" horiz-adv-x="662" 
d="M53 232v123h556v-123h-556z" />
    <glyph glyph-name="emdash" unicode="&#x2014;" horiz-adv-x="962" 
d="M53 232v123h856v-123h-856z" />
    <glyph glyph-name="quoteleft" unicode="&#x2018;" horiz-adv-x="263" 
d="M131 681l89 -5q-18 -48 -32 -123t-13 -137h-133q10 150 89 265z" />
    <glyph glyph-name="quoteright" unicode="&#x2019;" horiz-adv-x="262" 
d="M131 416l-88 5q18 47 31.5 122t13.5 138h132q-10 -150 -89 -265z" />
    <glyph glyph-name="quotesinglbase" unicode="&#x201a;" horiz-adv-x="236" 
d="M98 -130l-89 5q18 47 31.5 122t13.5 138h132q-11 -152 -88 -265z" />
    <glyph glyph-name="quotedblleft" unicode="&#x201c;" horiz-adv-x="446" 
d="M131 681l89 -5q-18 -48 -32 -123t-13 -137h-133q10 150 89 265zM315 681l89 -5q-18 -48 -32 -123t-13 -137h-133q10 150 89 265z" />
    <glyph glyph-name="quotedblright" unicode="&#x201d;" horiz-adv-x="447" 
d="M131 416l-88 5q18 47 31.5 122t13.5 138h132q-10 -150 -89 -265zM315 416l-88 5q18 47 31.5 122t13.5 138h132q-10 -150 -89 -265z" />
    <glyph glyph-name="quotedblbase" unicode="&#x201e;" horiz-adv-x="420" 
d="M98 -130l-89 5q18 47 31.5 122t13.5 138h132q-11 -152 -88 -265zM282 -130l-89 5q18 47 31.5 122t13.5 138h132q-11 -152 -88 -265z" />
    <glyph glyph-name="dagger" unicode="&#x2020;" horiz-adv-x="698" 
d="M648 365l-240 18l18 -583h-153l18 584l-241 -18v135l241 -18l-18 197h153l-18 -197l240 18v-136z" />
    <glyph glyph-name="daggerdbl" unicode="&#x2021;" horiz-adv-x="698" 
d="M408 365l18 -108l-18 -108h240v-136l-240 18l18 -231h-153l18 231l-241 -17v135h241l-18 108l18 109h-241v135l241 -18l-18 197h153l-18 -197l240 18v-136h-240z" />
    <glyph glyph-name="bullet" unicode="&#x2022;" horiz-adv-x="339" 
d="M261 162h-183v166h183v-166z" />
    <glyph glyph-name="ellipsis" unicode="&#x2026;" horiz-adv-x="627" 
d="M187 0h-132v124h132v-124zM379 0h-132v124h132v-124zM571 0h-132v124h132v-124z" />
    <glyph glyph-name="perthousand" unicode="&#x2030;" horiz-adv-x="1209" 
d="M197 322q-81 0 -122.5 51.5t-41.5 132.5q0 80 41.5 132t122.5 52t123 -52t42 -132q0 -81 -42 -132.5t-123 -51.5zM481 370h-89l147 310h131zM197 616q-71 0 -71 -110q0 -109 71 -109t71 109q0 110 -71 110zM639 -8q-81 0 -122.5 51.5t-41.5 132.5q0 80 41.5 132t122.5 52
t123 -52t42 -132q0 -81 -42 -132.5t-123 -51.5zM1014 -8q-81 0 -123 51.5t-42 132.5q0 80 42 132t123 52t122.5 -52t41.5 -132q0 -81 -41.5 -132.5t-122.5 -51.5zM352 310h89l-146 -310h-131zM639 286q-71 0 -71 -110q0 -109 71 -109t71 109q0 110 -71 110zM1014 286
q-71 0 -71 -110q0 -109 71 -109q70 0 70 109q0 110 -70 110z" />
    <glyph glyph-name="guilsinglleft" unicode="&#x2039;" horiz-adv-x="347" 
d="M312 456l-167 -206l167 -206h-106l-177 206l177 206h106z" />
    <glyph glyph-name="guilsinglright" unicode="&#x203a;" horiz-adv-x="347" 
d="M34 456h107l176 -206l-176 -206h-107l168 206z" />
    <glyph glyph-name="fraction" unicode="&#x2044;" horiz-adv-x="506" 
d="M382 680h124l-383 -680h-123z" />
    <glyph glyph-name="Euro" unicode="&#x20ac;" horiz-adv-x="723" 
d="M667 489q-94 62 -210 62q-118 0 -164 -97h174v-81h-198q-1 -11 -1 -33q0 -14 2 -38h197v-81h-171q46 -92 161 -92t210 63v-153q-101 -49 -226 -49q-130 0 -217 61t-118 170h-71v81h56q-2 24 -2 38q0 11 2 33h-56v81h69q30 111 118 173.5t219 62.5q125 0 226 -49v-152z
" />
    <glyph glyph-name="trademark" unicode="&#x2122;" horiz-adv-x="744" 
d="M140 379v238h-86v64h251v-64h-87v-238h-78zM520 379h-31l-75 183v-183h-71v302h95l70 -166l73 166h95v-302h-77v183z" />
    <glyph glyph-name="partialdiff" unicode="&#x2202;" horiz-adv-x="645" 
d="M80 643q60 28 104 37.5t106 9.5q66 0 119.5 -20.5t89 -54.5t59.5 -80t34.5 -95.5t10.5 -102.5q0 -99 -27.5 -174.5t-94 -124t-166.5 -48.5q-130 0 -204 67t-74 173q0 89 60 146t155 57q116 0 181 -87q0 107 -40 156t-121 49q-50 0 -92 -13.5t-100 -47.5v153zM427 251
q-46 69 -115 69q-43 0 -72 -26t-29 -70q0 -43 29 -69t73 -26q95 0 114 122z" />
    <glyph glyph-name="emptyset" unicode="&#x2205;" horiz-adv-x="600" 
d="M471 457q94 -72 94 -207q0 -111 -69 -185.5t-196 -74.5q-57 0 -103 17l-35 -57h-90l56 93q-93 71 -93 207q0 110 69 185t196 75q57 0 103 -17l35 57h90zM346 398q-19 10 -46 10q-104 0 -104 -158q0 -41 13 -73zM254 102q19 -10 46 -10q104 0 104 158q0 41 -13 73z" />
    <glyph glyph-name="product" unicode="&#x220f;" horiz-adv-x="749" 
d="M247 540v-540h-173v680h601v-680h-174v540h-254z" />
    <glyph glyph-name="summation" unicode="&#x2211;" horiz-adv-x="604" 
d="M50 680h504v-140h-304l166 -200l-166 -200h304v-140h-504v136l169 204l-169 204v136z" />
    <glyph glyph-name="minus" unicode="&#x2212;" horiz-adv-x="572" 
d="M58 257v123h456v-123h-456z" />
    <glyph glyph-name="radical" unicode="&#x221a;" horiz-adv-x="793" 
d="M800 680l-258 -685h-207l-93 262h-216v123h345l72 -218l178 518h179z" />
    <glyph glyph-name="infinity" unicode="&#x221e;" horiz-adv-x="782" 
d="M546 601q87 0 136.5 -75.5t49.5 -182.5q0 -117 -47.5 -190.5t-139.5 -73.5q-54 0 -94 33.5t-60 95.5q-44 -129 -155 -129q-91 0 -139 73.5t-48 190.5q0 107 49.5 182.5t137.5 75.5q105 0 155 -129q25 65 65.5 97t89.5 32zM255 242q34 0 53 27.5t31 81.5q-28 86 -86 86
q-31 0 -51 -25t-20 -72q0 -45 20 -71.5t53 -26.5zM526 242q33 0 53.5 26.5t20.5 71.5q0 47 -20 72t-51 25q-59 0 -87 -86q12 -54 31 -81.5t53 -27.5z" />
    <glyph glyph-name="integral" unicode="&#x222b;" horiz-adv-x="390" 
d="M113 527q0 83 40.5 123t128.5 40q53 0 94 -10v-119q-28 7 -56 7q-22 0 -32 -10.5t-10 -35.5v-559q0 -83 -41 -123t-129 -40q-51 0 -94 10v119q28 -7 57 -7q42 0 42 46v559z" />
    <glyph glyph-name="approxequal" unicode="&#x2248;" horiz-adv-x="518" 
d="M460 504q0 -80 -25 -108.5t-66 -28.5q-27 0 -103.5 18t-89.5 18t-22.5 -9.5t-9.5 -26.5h-82q0 79 25.5 108t65.5 29q21 0 100 -18.5t93 -18.5q13 0 22.5 10t9.5 27h82zM460 272q0 -80 -25 -108.5t-66 -28.5q-27 0 -103.5 18t-89.5 18t-22.5 -9.5t-9.5 -26.5h-82
q0 79 25.5 108t65.5 29q21 0 100 -18.5t93 -18.5q13 0 22.5 10t9.5 27h82z" />
    <glyph glyph-name="notequal" unicode="&#x2260;" horiz-adv-x="557" 
d="M360 372l-50 -107h196v-123h-251l-67 -142h-133l67 142h-72v123h127l50 107h-177v123h233l85 185h133l-86 -185h91v-123h-146z" />
    <glyph glyph-name="lessequal" unicode="&#x2264;" horiz-adv-x="562" 
d="M508 196l-455 92v175l455 92v-123l-321 -57l321 -56v-123zM508 29h-455v114h455v-114z" />
    <glyph glyph-name="greaterequal" unicode="&#x2265;" horiz-adv-x="562" 
d="M53 196v123l321 56l-321 57v123l455 -92v-175zM53 29v114h455v-114h-455z" />
    <glyph glyph-name="lozenge" unicode="&#x25ca;" horiz-adv-x="587" 
d="M556 340l-191 -350h-146l-187 350l187 350h146zM380 340l-84 163l-85 -163l85 -162z" />
    <glyph glyph-name="uniFBB2" unicode="&#xfbb2;" 
d="M1 555l-105 103l104 103l104 -103z" />
    <glyph glyph-name="uniFBB3" unicode="&#xfbb3;" 
d="M1 -273l-105 103l104 103l104 -103z" />
    <glyph glyph-name="uniFBB4" unicode="&#xfbb4;" 
d="M182 644l-102 -104l-80 78l-78 -78l-104 104l103 103l79 -78l78 78z" />
    <glyph glyph-name="uniFBB5" unicode="&#xfbb5;" 
d="M176 -188l-103 -103l-73 71l-71 -71l-105 103l103 103l73 -71l71 71z" />
    <glyph glyph-name="uniFBB6" unicode="&#xfbb6;" 
d="M68 790l-67 -67l-66 67l65 67zM182 649l-102 -104l-80 78l-78 -78l-104 104l103 103l79 -78l78 78z" />
    <glyph glyph-name="uniFBB9" unicode="&#xfbb9;" 
d="M78 -75l104 -103l-102 -103l-80 77l-78 -77l-104 103l103 103l79 -77zM-63 -310l62 64l66 -64l-65 -65z" />
    <glyph glyph-name="uniFD3E" unicode="&#xfd3e;" horiz-adv-x="378" 
d="M334 -148q-47 0 -87 8t-78.5 27t-61 57.5t-22.5 93.5q0 32 10 96t10 88q0 69 -81 69v98q81 0 81 69q0 24 -10 88t-10 96q0 55 22.5 93.5t61 57.5t78.5 27t87 8v-113q-52 0 -70.5 -18t-18.5 -62q0 -27 9 -83t9 -77q0 -52 -36.5 -90.5t-105.5 -44.5q69 -6 105.5 -44.5
t36.5 -90.5q0 -21 -9 -77t-9 -83q0 -44 18.5 -62t70.5 -18v-113z" />
    <glyph glyph-name="uniFD3F" unicode="&#xfd3f;" horiz-adv-x="378" 
d="M344 291q-81 0 -81 -69q0 -24 10 -88t10 -96q0 -55 -22 -93.5t-61 -57.5t-79 -27t-87 -8v113q52 0 70.5 18t18.5 62q0 27 -9 83t-9 77q0 52 36.5 90.5t105.5 44.5q-69 6 -105.5 44.5t-36.5 90.5q0 21 9 77t9 83q0 44 -18.5 62t-70.5 18v113q47 0 87 -8t79 -27t61 -57.5
t22 -93.5q0 -32 -10 -96t-10 -88q0 -69 81 -69v-98z" />
    <glyph glyph-name="uni0627.short" horiz-adv-x="304" 
d="M79 0v590l156 18v-608h-156z" />
    <glyph glyph-name="uniFE8E.short" horiz-adv-x="315" 
d="M315 0q-240 0 -240 212l-1 378l156 18l1 -340q0 -53 20 -78t63 -25q10 0 10 -10l1 -144q0 -11 -10 -11z" />
    <glyph glyph-name="uni066E.medi.alt" horiz-adv-x="387" 
d="M387 165q10 0 10 -10v-144q0 -11 -10 -11q-84 0 -157 75q-69 -75 -230 -75q-10 0 -10 11l2 144q0 10 10 10q120 0 120 102l-1 120l156 18v-195v-13q50 -32 110 -32z" />
    <glyph glyph-name="uni066E.init.alt" horiz-adv-x="371" 
d="M0 0q-10 0 -10 11l2 144q0 10 10 10h84q83 0 83 102l-1 221l156 19v-297q0 -210 -240 -210h-84z" />
    <glyph glyph-name="dotcenterar" 
d="M1 157l-105 103l104 103l104 -103z" />
    <glyph glyph-name="waslaar" 
d="M51 669q40 0 68 -26.5t28 -64.5q0 -47 -42 -74t-114 -27q-73 0 -149 30l21 67q3 -1 42 -13q46 58 79.5 83t66.5 25zM-7 550q69 0 69 27q0 9 -7.5 15.5t-18.5 6.5q-25 0 -74 -48q12 -1 31 -1z" />
    <glyph glyph-name="hamzacenterar" 
d="M15 584h138l-32 -101h-234v101h50q-15 26 -15 53q0 47 32.5 76.5t82.5 29.5q35 0 78 -21v-89q-42 14 -68 14q-44 0 -44 -32q0 -18 12 -31z" />
    <glyph glyph-name="hamzaaboveDammaar" 
d="M156 1046q0 -48 -26.5 -78.5t-74.5 -39.5l-203 -40l-13 70l114 23q-14 31 -14 60q0 49 31.5 81t79.5 32q43 0 74.5 -32.5t31.5 -75.5zM6 1038q0 -21 14 -43l19 4q45 10 45 43q0 16 -11 27.5t-27 11.5q-17 0 -28.5 -12.5t-11.5 -30.5zM5 756q0 -17 11 -31h127l-18 -84
h-238v84h42q-11 22 -11 49q0 39 28 65t70 26q46 0 90 -20v-76q-38 15 -63 15q-17 0 -27.5 -7.5t-10.5 -20.5z" />
    <glyph glyph-name="hamzaaboveDammatanar" 
d="M166 1046q0 -97 -101 -117l-221 -42l-39 60q42 20 42 52q0 37 -52 41l15 61q51 -4 81 -29.5t30 -63.5q0 -16 -10 -39l53 12q-14 27 -15 54q-4 51 28.5 85t82.5 34q43 0 74.5 -32t31.5 -76zM16 1039q0 -22 14 -44l19 4q21 5 33.5 16.5t12.5 27.5t-11.5 27.5t-27.5 11.5
q-17 0 -28.5 -12.5t-11.5 -30.5zM5 756q0 -17 11 -31h127l-18 -84h-238v84h42q-11 22 -11 49q0 39 28 65t70 26q46 0 90 -20v-76q-38 15 -63 15q-17 0 -27.5 -7.5t-10.5 -20.5z" />
    <glyph glyph-name="hamzaaboveFathaar" 
d="M126 1019l14 -75l-278 -54l-15 74zM16 725h127l-18 -84h-238v84h42q-11 22 -11 49q0 39 28 65t70 26q46 0 90 -20v-76q-38 15 -63 15q-17 0 -27.5 -7.5t-10.5 -20.5q0 -17 11 -31z" />
    <glyph glyph-name="hamzaaboveFathatanar" 
d="M103 1117l13 -64l-273 -56l-13 64zM125 1007l12 -63l-272 -56l-14 63zM16 725h127l-18 -84h-238v84h42q-11 22 -11 49q0 39 28 65t70 26q46 0 90 -20v-76q-38 15 -63 15q-17 0 -27.5 -7.5t-10.5 -20.5q0 -17 11 -31z" />
    <glyph glyph-name="hamzaaboveSukunar" 
d="M4 905q-50 0 -77 30t-27 85t31 86.5t82 31.5t79.5 -32t28.5 -86q0 -52 -32 -83.5t-85 -31.5zM9 1065q-16 0 -27 -11.5t-11 -31.5q0 -45 38 -45q40 0 40 43q0 21 -11 33t-29 12zM16 725h127l-18 -84h-238v84h42q-11 22 -11 49q0 39 28 65t70 26q46 0 90 -20v-76
q-38 15 -63 15q-17 0 -27.5 -7.5t-10.5 -20.5q0 -17 11 -31z" />
    <glyph glyph-name="hamzabelowKasraar" 
d="M130 -203l-19 -84h-238v84h43q-11 21 -11 49q0 39 28 65t70 26q46 0 90 -20v-76q-37 15 -63 15q-38 0 -38 -28q0 -17 11 -31h127zM135 -320l14 -75l-278 -54l-15 74z" />
    <glyph glyph-name="hamzabelowKasratanar" 
d="M130 -203l-19 -84h-238v84h43q-11 21 -11 49q0 39 28 65t70 26q46 0 90 -20v-76q-37 15 -63 15q-38 0 -38 -28q0 -17 11 -31h127zM134 -315l13 -64l-273 -56l-13 64zM156 -425l12 -63l-272 -56l-14 63z" />
    <glyph glyph-name="shaddaAlefabovear" 
d="M33 762h-96q-14 39 -14 90v92l98 -20v-72q0 -51 12 -90zM150 743q18 -59 18 -107q0 -40 -24.5 -64t-64.5 -24q-39 0 -64 33q-19 -58 -84 -58q-77 0 -91 91l-10 64l71 10l9 -57q8 -37 31 -37q29 0 29 34q0 6 -2 20l-10 49l67 12l11 -53q6 -36 33 -36q28 2 28 29
q0 22 -17 67z" />
    <glyph glyph-name="shaddaDammaar" 
d="M-167 753l-13 70l114 23q-15 28 -15 60q0 49 32 80.5t80 31.5q43 0 74.5 -32t31.5 -76q0 -47 -27 -77.5t-75 -39.5zM-13 903q0 -22 14 -44l19 4q45 11 45 44q0 16 -11.5 27.5t-27.5 11.5t-27.5 -13t-11.5 -30zM150 743q18 -59 18 -107q0 -40 -24.5 -64t-64.5 -24
q-39 0 -64 33q-19 -58 -84 -58q-77 0 -91 91l-10 64l71 10l9 -57q8 -37 31 -37q29 0 29 34q0 6 -2 20l-10 49l67 12l11 -53q6 -36 33 -36q28 2 28 29q0 22 -17 67z" />
    <glyph glyph-name="shaddaDammatanar" 
d="M-205 811q42 20 42 52q0 37 -52 41l15 61q51 -4 81 -29.5t30 -63.5q0 -16 -10 -39l53 12q-14 27 -15 54q-4 51 28.5 85t82.5 34q43 0 74.5 -32t31.5 -76q0 -97 -101 -117l-221 -42zM6 903q0 -22 14 -44l19 4q21 5 33.5 16.5t12.5 27.5t-11.5 27.5t-27.5 11.5
q-17 0 -28.5 -12.5t-11.5 -30.5zM150 743q18 -59 18 -107q0 -40 -24.5 -64t-64.5 -24q-39 0 -64 33q-19 -58 -84 -58q-77 0 -91 91l-10 64l71 10l9 -57q8 -37 31 -37q29 0 29 34q0 6 -2 20l-10 49l67 12l11 -53q6 -36 33 -36q28 2 28 29q0 22 -17 67z" />
    <glyph glyph-name="shaddaFathaar" 
d="M113 808l-279 -54l-14 74l279 55zM150 743q18 -59 18 -107q0 -40 -24.5 -64t-64.5 -24q-39 0 -64 33q-19 -58 -84 -58q-77 0 -91 91l-10 64l71 10l9 -57q8 -37 31 -37q29 0 29 34q0 6 -2 20l-10 49l67 12l11 -53q6 -36 33 -36q28 2 28 29q0 22 -17 67z" />
    <glyph glyph-name="shaddaFathatanar" 
d="M75 981l13 -64l-273 -55l-13 63zM109 809l-272 -57l-14 64l274 56zM150 743q18 -59 18 -107q0 -40 -24.5 -64t-64.5 -24q-39 0 -64 33q-19 -58 -84 -58q-77 0 -91 91l-10 64l71 10l9 -57q8 -37 31 -37q29 0 29 34q0 6 -2 20l-10 49l67 12l11 -53q6 -36 33 -36q28 2 28 29
q0 22 -17 67z" />
    <glyph glyph-name="shaddaKasraar" 
d="M15 581q-19 -58 -84 -58q-77 0 -91 91l-10 64l71 10l9 -57q8 -37 31 -37q29 0 29 34q0 6 -2 20l-10 49l67 12l11 -53q6 -36 33 -36q28 2 28 29q0 22 -17 67l70 27q18 -59 18 -107q0 -40 -24.5 -64t-64.5 -24q-39 0 -64 33zM169 516l14 -75l-278 -54l-15 74z" />
    <glyph glyph-name="shaddaKasratanar" 
d="M15 581q-19 -58 -84 -58q-77 0 -91 91l-10 64l71 10l9 -57q8 -37 31 -37q29 0 29 34q0 6 -2 20l-10 49l67 12l11 -53q6 -36 33 -36q28 2 28 29q0 22 -17 67l70 27q18 -59 18 -107q0 -40 -24.5 -64t-64.5 -24q-39 0 -64 33zM164 512l13 -64l-273 -56l-13 64zM186 402
l12 -63l-272 -56l-14 63z" />
    <glyph glyph-name="terminal1" horiz-adv-x="547" 
d="M73 388l134 -16q-11 -74 -11 -98q0 -57 35 -83t110 -26h223q10 0 10 -10v-144q0 -11 -10 -11h-261q-250 0 -250 226q0 71 20 162z" />
    <glyph glyph-name="terminal2" horiz-adv-x="528" 
d="M75 440l134 -16q-15 -95 -15 -140q0 -61 34.5 -90t111.5 -29h220q10 0 10 -10v-144q0 -11 -10 -11h-259q-252 0 -252 238q0 84 26 202z" />
    <glyph glyph-name="terminal1.alt" horiz-adv-x="459" 
d="M69 388l134 -16q-11 -65 -11 -98q0 -57 35 -83t110 -26h100q10 0 10 -10v-144q0 -11 -10 -11h-139q-249 0 -249 226q0 77 20 162z" />
    <glyph glyph-name="terminal3" horiz-adv-x="385" 
d="M390 -50q10 0 10 -10v-144q0 -11 -10 -11h-357l-33 165h390z" />
    <glyph glyph-name="terminal4" horiz-adv-x="385" 
d="M385 -50l-32 -165h-358q-10 0 -10 11v144q0 10 10 10h390z" />
    <glyph glyph-name="waslear.alt" horiz-adv-x="218" 
d="M86 214q60 -49 132 -49q10 0 10 -10v-144q0 -11 -10 -11q-129 0 -199 125z" />
    </font>
</defs>
</svg>
