<?xml version="1.0" standalone="no"?>
<!DOCTYPE svg PUBLIC "-//W3C//DTD SVG 1.1//EN" "http://www.w3.org/Graphics/SVG/1.1/DTD/svg11.dtd" >
<svg xmlns="http://www.w3.org/2000/svg" xmlns:xlink="http://www.w3.org/1999/xlink" version="1.1">
<metadata>
Created by FontForge 20170731 at Wed Nov 25 16:54:34 2015
 By Aleksey,,,
Copyright (c) 2015 by Pascal Zoghbi. All rights reserved.
</metadata>
<defs>
<font id="ExpoArabic-Book" horiz-adv-x="0" >
  <font-face 
    font-family="Expo Arabic Book"
    font-weight="400"
    font-stretch="normal"
    units-per-em="1000"
    panose-1="0 0 5 0 0 0 0 0 0 0"
    ascent="750"
    descent="-250"
    x-height="500"
    cap-height="687"
    bbox="-192 -488 1372 1103"
    underline-thickness="37"
    underline-position="-222"
    unicode-range="U+0020-FEFC"
  />
<missing-glyph horiz-adv-x="292" 
 />
    <glyph glyph-name="uniFEF5" unicode="&#xfedf;&#xfe82;" horiz-adv-x="661" arabic-form="isolated" 
d="M139 692q-19 0 -31.5 -10.5t-15.5 -28.5h-48q1 43 25 70t63 27q23 0 62 -18.5t63 -18.5q41 0 77 23l-1 -58q-37 -23 -77 -23q-25 0 -61 18.5t-56 18.5zM490 717l85 13v-530q0 -200 -211 -200h-1h-330l-16 90h237l-100 488l84 21l96 -509h29h1q126 0 126 130v497z" />
    <glyph glyph-name="uniFEF6" unicode="&#xfee0;&#xfe82;" horiz-adv-x="693" arabic-form="final" 
d="M139 692q-19 0 -31.5 -10.5t-15.5 -28.5h-48q1 43 25 70t63 27q23 0 62 -18.5t63 -18.5q41 0 77 23l-1 -58q-37 -23 -77 -23q-25 0 -61 18.5t-56 18.5zM702 81l1 -71q0 -10 -10 -10q-107 0 -161 52q-47 -23 -120.5 -37.5t-131.5 -14.5h-247l-16 90h237l-100 488l84 21
l95 -507q85 6 161 27q-11 38 -11 81l-1 517l85 13v-510q0 -130 125 -130q10 0 10 -9z" />
    <glyph glyph-name="uniFEF7" unicode="&#xfedf;&#xfe84;" horiz-adv-x="661" arabic-form="isolated" 
d="M297 717l-14 -57h-226v57h55q-16 26 -16 57q0 38 25.5 62.5t64.5 24.5q30 0 78 -19v-49q-39 15 -64 15q-22 0 -36 -12t-14 -32q0 -29 17 -47h130zM490 717l85 13v-530q0 -200 -211 -200h-1h-330l-16 90h237l-100 488l84 21l96 -509h29h1q126 0 126 130v497z" />
    <glyph glyph-name="uniFEF8" unicode="&#xfee0;&#xfe84;" horiz-adv-x="693" arabic-form="final" 
d="M297 717l-14 -57h-226v57h55q-16 26 -16 57q0 38 25.5 62.5t64.5 24.5q30 0 78 -19v-49q-39 15 -64 15q-22 0 -36 -12t-14 -32q0 -29 17 -47h130zM702 81l1 -71q0 -10 -10 -10q-107 0 -161 52q-47 -23 -120.5 -37.5t-131.5 -14.5h-247l-16 90h237l-100 488l84 21l95 -507
q85 6 161 27q-11 38 -11 81l-1 517l85 13v-510q0 -130 125 -130q10 0 10 -9z" />
    <glyph glyph-name="uniFEF9" unicode="&#xfedf;&#xfe88;" horiz-adv-x="661" arabic-form="isolated" 
d="M490 717l85 13v-530q0 -200 -211 -200h-1h-330l-16 90h237l-100 488l84 21l96 -509h29h1q126 0 126 130v497zM273 -150q0 -29 17 -47h129l-13 -57h-226v57h55q-16 26 -16 57q0 38 25.5 62.5t64.5 24.5q31 0 78 -19v-49q-39 15 -64 15q-22 0 -36 -12t-14 -32z" />
    <glyph glyph-name="uniFEFA" unicode="&#xfee0;&#xfe88;" horiz-adv-x="693" arabic-form="final" 
d="M702 81l1 -71q0 -10 -10 -10q-107 0 -161 52q-47 -23 -120.5 -37.5t-131.5 -14.5h-247l-16 90h237l-100 488l84 21l95 -507q85 6 161 27q-11 38 -11 81l-1 517l85 13v-510q0 -130 125 -130q10 0 10 -9zM270 -152q0 -28 18 -47h128l-13 -56h-226v56h55q-16 26 -16 58
q0 37 25.5 61.5t65.5 24.5q32 0 77 -18v-49q-39 15 -64 15q-22 0 -36 -12.5t-14 -32.5z" />
    <glyph glyph-name="uniFEFB" unicode="&#xfedf;&#xfe8e;" horiz-adv-x="661" arabic-form="isolated" 
d="M490 717l85 13v-530q0 -200 -211 -200h-1h-330l-16 90h237l-100 488l84 21l96 -509h29h1q126 0 126 130v497z" />
    <glyph glyph-name="uniFEFC" unicode="&#xfee0;&#xfe8e;" horiz-adv-x="693" arabic-form="final" 
d="M702 81l1 -71q0 -10 -10 -10q-107 0 -161 52q-47 -23 -120.5 -37.5t-131.5 -14.5h-247l-16 90h237l-100 488l84 21l95 -507q85 6 161 27q-11 38 -11 81l-1 517l85 13v-510q0 -130 125 -130q10 0 10 -9z" />
    <glyph glyph-name="uni066E.init" unicode="&#x66e;" horiz-adv-x="278" 
d="M0 0q-10 0 -10 10l1 71q0 9 10 9q126 0 126 125l-1 268l85 14v-305q0 -92 -53.5 -142t-157.5 -50z" />
    <glyph glyph-name="uni066E.medi" unicode="&#x66e;" horiz-adv-x="331" 
d="M331 90q10 0 10 -9v-71q0 -10 -10 -10q-85 0 -159 65q-53 -65 -172 -65q-10 0 -10 10l1 71q0 9 10 9q126 0 126 125l-1 162l85 13v-198q0 -35 -7 -60q62 -42 127 -42z" />
    <glyph glyph-name="uni066E.fina" unicode="&#x66e;" horiz-adv-x="870" 
d="M870 90q10 0 10 -9v-71q0 -10 -10 -10q-85 0 -159 65q-51 -62 -161 -65h-2h-260q-120 0 -182.5 56t-62.5 166q0 83 30 218l74 -10q-24 -123 -24 -185q0 -155 185 -155h231q126 0 126 125v162l85 13v-198q0 -35 -7 -60q62 -42 127 -42z" />
    <glyph glyph-name="uni066F.fina" unicode="&#x66f;" horiz-adv-x="769" 
d="M769 90q10 0 10 -9v-71q0 -10 -10 -10h-63q-35 -215 -357 -215q-138 0 -222 67t-84 192q0 107 44 241l69 -19q-35 -103 -35 -200q1 -99 66.5 -151t181.5 -52q106 0 171.5 35.5t82.5 101.5h-122q-102 0 -164 62.5t-62 167.5q0 109 63.5 177.5t162.5 67.5q93 -2 151 -63.5
t58 -161.5v-160h59zM353 234q0 -71 43 -109t116 -38q32 0 114 2l-1 154q0 64 -36.5 103.5t-95.5 40.5q-62 2 -101 -40t-39 -113z" />
    <glyph glyph-name="uni06A1.init" unicode="&#x6a1;" horiz-adv-x="542" 
d="M273 485q96 0 161 -65.5t65 -163.5q0 -120 -74.5 -188t-205.5 -68h-219q-10 0 -10 10v71q0 9 10 9h86q-45 93 -45 162q0 101 65.5 167t166.5 66zM226 90q86 0 137 43t51 120q0 64 -41.5 105.5t-104.5 41.5q-60 0 -102 -44.5t-42 -104.5q0 -72 50 -161h52z" />
    <glyph glyph-name="uni06A1.medi" unicode="&#x6a1;" horiz-adv-x="563" 
d="M563 90q10 0 10 -9v-71q0 -10 -10 -10q-148 0 -275 37q-114 -37 -288 -37q-10 1 -10 10v71q0 9 10 9q87 0 156 6q-92 69 -92 177q0 91 63 151.5t157 60.5q96 0 158 -61.5t62 -150.5q0 -107 -92 -175q59 -8 151 -8zM281 401q-59 0 -96.5 -38.5t-37.5 -98.5q0 -53 37 -96
t99 -61q64 21 101.5 63t37.5 94q0 60 -40.5 98.5t-100.5 38.5z" />
    <glyph glyph-name="uni06A1.fina" unicode="&#x6a1;" horiz-adv-x="973" 
d="M976 90q10 0 10 -9v-71q0 -10 -10 -10q-152 0 -275 36q-109 -34 -277 -36h-1h-136q-119 0 -181.5 55t-62.5 162q0 73 21 171l75 -10q-16 -89 -16 -137q0 -151 184 -151h106q101 0 157 6q-92 68 -92 177q0 91 62.5 151.5t156.5 60.5q96 0 158.5 -61.5t62.5 -150.5
q0 -106 -93 -175q59 -8 151 -8zM695 401q-59 0 -97 -38.5t-38 -98.5q0 -54 37 -96.5t99 -61.5q65 22 102 64t37 94q0 60 -40 98.5t-100 38.5z" />
    <glyph glyph-name="uniFB6B" unicode="&#x6a4;" horiz-adv-x="973" arabic-form="final" 
d="M757 767l-52 -52l-53 52l52 53zM694 645l-72 -73l-74 73l73 72zM787 572l-74 73l74 72l73 -72zM976 90q10 0 10 -9v-71q0 -10 -10 -10q-152 0 -275 36q-109 -34 -276 -36h-1h-137q-119 0 -181.5 55t-62.5 162q0 68 22 171l74 -10q-16 -89 -16 -137q0 -151 184 -151h106
q101 0 157 6q-93 69 -93 177q0 91 63 151.5t157 60.5q96 0 158 -61.5t62 -150.5q0 -106 -92 -175q59 -8 151 -8zM694 401q-59 0 -96.5 -38.5t-37.5 -98.5q0 -54 36.5 -96.5t99.5 -61.5q65 22 102 64t37 94q0 60 -40.5 98.5t-100.5 38.5z" />
    <glyph glyph-name="uniFB6C" unicode="&#x6a4;" horiz-adv-x="542" arabic-form="initial" 
d="M319 767l-52 -52l-53 52l52 53zM256 645l-72 -73l-74 73l73 72zM349 572l-74 73l74 72l73 -72zM273 485q96 0 161 -65.5t65 -163.5q0 -120 -74.5 -188t-205.5 -68h-219q-10 0 -10 10v71q0 9 10 9h86q-45 93 -45 162q0 101 65.5 167t166.5 66zM226 90q86 0 137 43t51 120
q0 64 -41.5 105.5t-104.5 41.5q-60 0 -102 -44.5t-42 -104.5q0 -72 50 -161h52z" />
    <glyph glyph-name="uniFB6D" unicode="&#x6a4;" horiz-adv-x="563" arabic-form="medial" 
d="M335 767l-52 -52l-53 52l52 53zM272 645l-72 -73l-74 73l73 72zM365 572l-74 73l74 72l73 -72zM563 90q10 0 10 -9v-71q0 -10 -10 -10q-148 0 -275 37q-114 -37 -288 -37q-10 1 -10 10v71q0 9 10 9q87 0 156 6q-92 69 -92 177q0 91 63 151.5t157 60.5q96 0 158 -61.5
t62 -150.5q0 -107 -92 -175q59 -8 151 -8zM281 401q-59 0 -96.5 -38.5t-37.5 -98.5q0 -53 37 -96t99 -61q64 21 101.5 63t37.5 94q0 60 -40.5 98.5t-100.5 38.5z" />
    <glyph glyph-name="uniFB9F" unicode="&#x6ba;" horiz-adv-x="717" arabic-form="final" 
d="M717 90q10 0 10 -9v-71q0 -10 -10 -10q-78 0 -116 59q-9 -128 -79 -201t-206 -73q-126 0 -199.5 65.5t-73.5 193.5q0 107 44 241l69 -19q-35 -103 -35 -200q1 -94 53 -142.5t147 -48.5q100 0 148.5 56.5t48.5 174.5v377l84 14v-288l1 -8q10 -111 114 -111z" />
    <glyph glyph-name="uniFE82" unicode="&#x622;" horiz-adv-x="297" arabic-form="final" 
d="M66 761q23 0 62 -18.5t63 -18.5q42 0 77 24l-1 -59q-37 -23 -77 -23q-25 0 -61 18.5t-56 18.5q-41 0 -47 -39h-48q1 44 24.5 70.5t63.5 26.5zM297 0q-210 0 -210 200l-1 390l85 13v-383q0 -130 125 -130q10 0 10 -9l1 -71q0 -10 -10 -10z" />
    <glyph glyph-name="uniFE84" unicode="&#x623;" horiz-adv-x="297" arabic-form="final" 
d="M252 713l-13 -57h-226v57h54q-15 27 -15 58q0 37 25.5 61.5t64.5 24.5q35 0 78 -19v-49q-37 15 -65 15q-22 0 -35.5 -12t-13.5 -32q0 -28 16 -47h130zM306 81l1 -71q0 -10 -10 -10q-210 0 -210 200l-1 390l85 13v-383q0 -130 125 -130q10 0 10 -9z" />
    <glyph glyph-name="uniFE86" unicode="&#x624;" horiz-adv-x="541" arabic-form="final" 
d="M397 637l-20 -67h-237v67h61q-20 31 -20 61q0 45 30 72.5t77 27.5q34 0 77 -20v-62q-41 15 -69 15q-26 0 -41.5 -12.5t-15.5 -34.5q0 -25 19 -47h139zM541 90q10 0 10 -9v-71q0 -10 -10 -10h-59q-18 -215 -372 -215l-10 73q139 0 213 34t84 108h-120q-106 0 -170 64.5
t-64 173.5q0 107 65.5 175t165.5 68q93 0 151 -61.5t58 -162.5v-167h58zM122 242q0 -75 45 -115t121 -40q32 0 110 2v161q0 65 -36.5 104.5t-95.5 39.5q-62 0 -103 -42t-41 -110z" />
    <glyph glyph-name="uniFE88" unicode="&#x625;" horiz-adv-x="297" arabic-form="final" 
d="M306 81l1 -71q0 -10 -10 -10q-210 0 -210 200l-1 517l85 13v-510q0 -130 125 -130q10 0 10 -9zM106 -149q0 -29 17 -47h129l-13 -57h-226v57h55q-16 26 -16 58q0 37 25.5 61.5t65.5 24.5q34 0 77 -19v-49q-35 15 -64 15q-22 0 -36 -12t-14 -32z" />
    <glyph glyph-name="uniFE8A" unicode="&#x626;" horiz-adv-x="1014" arabic-form="final" 
d="M274 433l-20 -67h-237v67h61q-19 29 -19 62q0 44 29.5 71.5t76.5 27.5q37 0 77 -20v-61q-44 15 -68 15q-26 0 -41.5 -13t-15.5 -35q0 -23 19 -47h138zM1014 90q10 0 10 -9v-71q0 -10 -10 -10h-203v386h-81q-61 0 -94.5 -31.5t-33.5 -92.5v-182q0 -146 -63.5 -220.5
t-222.5 -74.5q-126 0 -199.5 65.5t-73.5 193.5q0 107 44 241l69 -19q-35 -103 -35 -200q1 -94 53 -142.5t147 -48.5q109 0 153 48t44 166v188q0 92 51.5 145.5t148.5 53.5h120l58 -51v-335h118z" />
    <glyph glyph-name="uniFE8B" unicode="&#x626;" horiz-adv-x="353" arabic-form="initial" 
d="M210 625h139l-20 -67h-237v67h61q-20 31 -20 61q0 45 30 72.5t77 27.5q33 0 76 -20v-62q-40 15 -68 15q-26 0 -41.5 -12.5t-15.5 -34.5q0 -25 19 -47zM202 215v268l84 14v-305q0 -92 -53 -142t-157 -50h-76q-10 0 -10 10l1 71q0 9 10 9h76q125 0 125 125z" />
    <glyph glyph-name="uniFE8C" unicode="&#x626;" horiz-adv-x="376" arabic-form="medial" 
d="M333 520l-20 -67h-237v67h61q-19 29 -19 62q0 44 29.5 71.5t76.5 27.5q37 0 77 -20v-61q-44 15 -68 15q-26 0 -41.5 -13t-15.5 -35q0 -23 19 -47h138zM376 90q10 0 10 -9v-71q0 -10 -10 -10q-93 0 -172 73q-54 -73 -204 -73q-10 0 -10 10l1 71q0 9 10 9q80 0 116.5 29.5
t36.5 95.5v162l84 13v-198q0 -25 -5 -52q67 -50 143 -50z" />
    <glyph glyph-name="uniFE8E" unicode="&#x627;" horiz-adv-x="297" arabic-form="final" 
d="M297 0q-210 0 -210 200l-1 517l85 13v-510q0 -130 125 -130q10 0 10 -9l1 -71q0 -10 -10 -10z" />
    <glyph glyph-name="uniFE90" unicode="&#x628;" horiz-adv-x="870" arabic-form="final" 
d="M870 90q10 0 10 -9v-71q0 -10 -10 -10q-85 0 -159 65q-51 -62 -161 -65h-2h-260q-120 0 -182.5 56t-62.5 166q0 83 30 218l74 -10q-24 -123 -24 -185q0 -155 185 -155h231q126 0 126 125v162l85 13v-198q0 -35 -7 -60q62 -42 127 -42zM351 -151l72 73l75 -73l-73 -72z
" />
    <glyph glyph-name="uniFE91" unicode="&#x628;" horiz-adv-x="278" arabic-form="initial" 
d="M0 0q-10 0 -10 10l1 71q0 9 10 9q126 0 126 125l-1 268l85 14v-305q0 -92 -53.5 -142t-157.5 -50zM109 -224l-74 72l72 73l75 -73z" />
    <glyph glyph-name="uniFE92" unicode="&#x628;" horiz-adv-x="331" arabic-form="medial" 
d="M331 90q10 0 10 -9v-71q0 -10 -10 -10q-85 0 -159 65q-53 -65 -172 -65q-10 0 -10 10l1 71q0 9 10 9q126 0 126 125l-1 162l85 13v-198q0 -35 -7 -60q62 -42 127 -42zM86 -153l72 73l75 -73l-73 -72z" />
    <glyph glyph-name="uniFE94" unicode="&#x629;" horiz-adv-x="583" arabic-form="final" 
d="M259 648l-73 -72l-73 72l73 72zM418 648l-73 -72l-74 72l74 72zM583 90q10 0 10 -9v-71q0 -10 -10 -10q-92 0 -136 43q-101 -52 -181 -52q-101 0 -165.5 69t-64.5 171q0 104 65 177t165 73q61 0 134 -28v62l84 14l1 -327q0 -60 23 -86t75 -26zM266 77q67 -1 144 34
q-10 34 -10 83v174q-81 27 -131 27q-67 0 -109.5 -47t-42.5 -116q0 -66 41.5 -110t107.5 -45z" />
    <glyph glyph-name="uniFE96" unicode="&#x62a;" horiz-adv-x="870" arabic-form="final" 
d="M426 531l-73 -72l-73 72l73 72zM585 531l-73 -72l-74 72l74 72zM870 90q10 0 10 -9v-71q0 -10 -10 -10q-85 0 -159 65q-51 -62 -161 -65h-2h-260q-120 0 -182.5 56t-62.5 166q0 83 30 218l74 -10q-24 -123 -24 -185q0 -155 185 -155h231q126 0 126 125v162l85 13v-198
q0 -35 -7 -60q62 -42 127 -42z" />
    <glyph glyph-name="uniFE97" unicode="&#x62a;" horiz-adv-x="373" arabic-form="initial" 
d="M157 575l-73 73l73 72l73 -72zM316 575l-74 73l74 72l73 -72zM0 0q-10 0 -10 10l1 71q0 9 10 9h76q125 0 125 125v268l84 14v-305q0 -92 -53 -142t-157 -50h-76z" />
    <glyph glyph-name="uniFE98" unicode="&#x62a;" horiz-adv-x="376" arabic-form="medial" 
d="M184 534l-73 -72l-73 72l73 72zM343 534l-73 -72l-74 72l74 72zM376 90q10 0 10 -9v-71q0 -10 -10 -10q-93 0 -172 73q-54 -73 -204 -73q-10 0 -10 10l1 71q0 9 10 9q80 0 116.5 29.5t36.5 95.5v162l84 13v-198q0 -25 -5 -52q67 -50 143 -50z" />
    <glyph glyph-name="uniFE9A" unicode="&#x62b;" horiz-adv-x="870" arabic-form="final" 
d="M488 650l-52 -52l-53 52l52 53zM425 528l-72 -73l-74 73l73 72zM518 455l-74 73l74 72l73 -72zM870 90q10 0 10 -9v-71q0 -10 -10 -10q-85 0 -159 65q-51 -62 -161 -65h-2h-260q-120 0 -182.5 56t-62.5 166q0 83 30 218l74 -10q-24 -123 -24 -185q0 -155 185 -155h231
q126 0 126 125v162l85 13v-198q0 -35 -7 -60q62 -42 127 -42z" />
    <glyph glyph-name="uniFE9B" unicode="&#x62b;" horiz-adv-x="380" arabic-form="initial" 
d="M239 718l-53 53l52 52l53 -52zM156 575l-74 73l73 72l73 -72zM321 575l-74 73l74 72l73 -72zM0 0q-10 0 -10 10l1 71q0 9 10 9h76q125 0 125 125v268l84 14v-305q0 -92 -53 -142t-157 -50h-76z" />
    <glyph glyph-name="uniFE9C" unicode="&#x62b;" horiz-adv-x="376" arabic-form="medial" 
d="M246 657l-52 -52l-53 52l52 53zM183 535l-72 -73l-74 73l73 72zM276 462l-74 73l74 72l73 -72zM376 90q10 0 10 -9v-71q0 -10 -10 -10q-93 0 -172 73q-54 -73 -204 -73q-10 0 -10 10l1 71q0 9 10 9q80 0 116.5 29.5t36.5 95.5v162l84 13v-198q0 -25 -5 -52
q67 -50 143 -50z" />
    <glyph glyph-name="uniFE9E" unicode="&#x62c;" horiz-adv-x="652" arabic-form="final" 
d="M652 90q10 0 10 -9v-71q0 -10 -10 -10q-98 0 -142.5 37.5t-44.5 119.5v29q-163 -13 -252 -71.5t-89 -145.5q0 -75 54.5 -116t153.5 -41q74 0 208 37l23 -73q-141 -51 -249 -51q-126 0 -199 61.5t-73 174.5q0 124 109 202.5t333 98.5q-111 108 -174 147.5t-121 39.5
q-31 0 -97 -16l-18 76q75 28 127 28q70 0 148 -51t236 -201l-35 -95q-26 0 -39 -1q1 -61 29 -80t112 -19zM359 -60l-74 72l72 73l75 -73z" />
    <glyph glyph-name="uniFE9F" unicode="&#x62c;" horiz-adv-x="587" arabic-form="initial" 
d="M176 472q65 0 137.5 -43t243.5 -185l-13 -83q-156 -83 -283.5 -122t-259.5 -39q-11 0 -11 10v71q0 9 11 9q231 0 469 116q-129 108 -190.5 143t-116.5 35q-23 0 -98 -16l-17 76q74 28 128 28zM211 -146l72 73l75 -73l-73 -72z" />
    <glyph glyph-name="uniFEA0" unicode="&#x62c;" horiz-adv-x="635" arabic-form="medial" 
d="M635 90q10 0 10 -9v-71q0 -10 -10 -10h-46q-63 0 -102 28t-52 78q-230 -106 -434 -106q-11 0 -11 10v71q0 9 11 9q231 0 469 116q-129 108 -190.5 143t-116.5 35q-23 0 -98 -16l-17 76q74 28 128 28q65 0 137.5 -43t243.5 -185l-13 -83q-28 -17 -57 -30q25 -41 103 -41
h45zM231 -146l72 73l75 -73l-73 -72z" />
    <glyph glyph-name="uniFEA2" unicode="&#x62d;" horiz-adv-x="652" arabic-form="final" 
d="M652 90q10 0 10 -9v-71q0 -10 -10 -10q-98 0 -142.5 37.5t-44.5 119.5v29q-163 -13 -252 -71.5t-89 -145.5q0 -75 54.5 -116t153.5 -41q74 0 208 37l23 -73q-141 -51 -249 -51q-126 0 -199 61.5t-73 174.5q0 124 109 202.5t333 98.5q-111 108 -174 147.5t-121 39.5
q-31 0 -97 -16l-18 76q75 28 127 28q70 0 148 -51t236 -201l-35 -95q-26 0 -39 -1q1 -61 29 -80t112 -19z" />
    <glyph glyph-name="uniFEA3" unicode="&#x62d;" horiz-adv-x="587" arabic-form="initial" 
d="M176 472q65 0 137.5 -43t243.5 -185l-13 -83q-156 -83 -283.5 -122t-259.5 -39q-11 0 -11 10v71q0 9 11 9q231 0 469 116q-129 108 -190.5 143t-116.5 35q-23 0 -98 -16l-17 76q74 28 128 28z" />
    <glyph glyph-name="uniFEA4" unicode="&#x62d;" horiz-adv-x="635" arabic-form="medial" 
d="M635 90q10 0 10 -9v-71q0 -10 -10 -10h-46q-63 0 -102 28t-52 78q-230 -106 -434 -106q-11 0 -11 10v71q0 9 11 9q231 0 469 116q-129 108 -190.5 143t-116.5 35q-23 0 -98 -16l-17 76q74 28 128 28q65 0 137.5 -43t243.5 -185l-13 -83q-28 -17 -57 -30q25 -41 103 -41
h45z" />
    <glyph glyph-name="uniFEA6" unicode="&#x62e;" horiz-adv-x="652" arabic-form="final" 
d="M496 637l-73 -73l-74 73l72 72zM652 90q10 0 10 -9v-71q0 -10 -10 -10q-98 0 -142.5 37.5t-44.5 119.5v29q-163 -13 -252 -71.5t-89 -145.5q0 -75 54.5 -116t153.5 -41q74 0 208 37l23 -73q-141 -51 -249 -51q-126 0 -199 61.5t-73 174.5q0 124 109 202.5t333 98.5
q-111 108 -174 147.5t-121 39.5q-31 0 -97 -16l-18 76q75 28 127 28q70 0 148 -51t236 -201l-35 -95q-26 0 -39 -1q1 -61 29 -80t112 -19z" />
    <glyph glyph-name="uniFEA7" unicode="&#x62e;" horiz-adv-x="587" arabic-form="initial" 
d="M356 623l-73 -73l-74 73l72 72zM176 472q65 0 137.5 -43t243.5 -185l-13 -83q-156 -83 -283.5 -122t-259.5 -39q-11 0 -11 10v71q0 9 11 9q231 0 469 116q-129 108 -190.5 143t-116.5 35q-23 0 -98 -16l-17 76q74 28 128 28z" />
    <glyph glyph-name="uniFEA8" unicode="&#x62e;" horiz-adv-x="635" arabic-form="medial" 
d="M361 623l-73 -73l-74 73l72 72zM635 90q10 0 10 -9v-71q0 -10 -10 -10h-46q-63 0 -102 28t-52 78q-230 -106 -434 -106q-11 0 -11 10v71q0 9 11 9q231 0 469 116q-129 108 -190.5 143t-116.5 35q-23 0 -98 -16l-17 76q74 28 128 28q65 0 137.5 -43t243.5 -185l-13 -83
q-28 -17 -57 -30q25 -41 103 -41h45z" />
    <glyph glyph-name="uniFEAA" unicode="&#x62f;" horiz-adv-x="595" arabic-form="final" 
d="M595 90q10 0 10 -9v-71q0 -10 -10 -10q-88 0 -160 67q-55 -67 -174 -67h-234l-17 90h252q61 0 93.5 30t32.5 85l-1 58q-1 61 -43.5 99t-108.5 38h-59v88h77q96 0 157 -59t62 -155l1 -82q0 -27 -7 -58q62 -44 129 -44z" />
    <glyph glyph-name="uniFEAC" unicode="&#x630;" horiz-adv-x="595" arabic-form="final" 
d="M312 656l-73 -73l-74 73l72 72zM595 90q10 0 10 -9v-71q0 -10 -10 -10q-88 0 -160 67q-55 -67 -174 -67h-234l-17 90h252q61 0 93.5 30t32.5 85l-1 58q-1 61 -43.5 99t-108.5 38h-59v88h77q96 0 157 -59t62 -155l1 -82q0 -27 -7 -58q62 -44 129 -44z" />
    <glyph glyph-name="uniFEAE" unicode="&#x631;" horiz-adv-x="348" arabic-form="final" 
d="M347 90q10 0 10 -9v-71q0 -10 -10 -10q-77 0 -113 53v-26q0 -125 -64 -183.5t-192 -58.5l-8 73q180 0 180 172l-1 453l85 14v-312q7 -95 113 -95z" />
    <glyph glyph-name="uniFEB0" unicode="&#x632;" horiz-adv-x="348" arabic-form="final" 
d="M267 646l-73 -73l-74 73l72 72zM347 90q10 0 10 -9v-71q0 -10 -10 -10q-77 0 -113 53v-26q0 -125 -64 -183.5t-192 -58.5l-8 73q180 0 180 172l-1 453l85 14v-312q7 -95 113 -95z" />
    <glyph glyph-name="uniFEB2" unicode="&#x633;" horiz-adv-x="1362" arabic-form="final" 
d="M1362 90q10 0 10 -9v-71q0 -10 -10 -10q-82 0 -153 60q-49 -60 -157 -60q-79 0 -166 53q-53 -53 -152 -53q-64 0 -134 42q-13 -120 -83 -188.5t-201 -68.5q-126 0 -199.5 65.5t-73.5 193.5q0 107 44 241l69 -19q-35 -103 -35 -200q1 -94 53 -142.5t147 -48.5
q100 0 148.5 56.5t48.5 174.5v377l84 14v-372q67 -35 125 -35q126 0 126 125v162l85 13v-198q0 -40 -13 -77q62 -25 116 -25q61 0 93 31.5t32 93.5v268l85 14v-305q0 -33 -8 -65q57 -37 119 -37z" />
    <glyph glyph-name="uniFEB3" unicode="&#x633;" horiz-adv-x="884" arabic-form="initial" 
d="M741 484l84 14v-305q0 -92 -50 -142t-148 -50q-80 0 -167 53q-53 -53 -152 -53q-72 0 -149 52q-55 -53 -159 -53q-10 0 -10 10v71q0 9 10 9q126 0 126 125l-1 162l85 13v-198q0 -42 -12 -77q58 -24 104 -24q126 0 126 125l-1 162l85 13v-198q0 -44 -13 -77
q62 -25 116 -25q61 0 93.5 31.5t32.5 93.5v268z" />
    <glyph glyph-name="uniFEB4" unicode="&#x633;" horiz-adv-x="939" arabic-form="medial" 
d="M939 90q10 0 10 -9v-71q0 -10 -10 -10q-83 0 -155 61q-51 -60 -157 -60q-80 0 -167 53q-53 -53 -152 -53q-72 0 -149 52q-55 -53 -159 -53q-10 0 -10 10v71q0 9 10 9q126 0 126 125l-1 162l85 13v-198q0 -42 -12 -77q58 -24 104 -24q126 0 126 125l-1 162l85 13v-198
q0 -44 -13 -77q62 -25 116 -25q61 0 93.5 31.5t32.5 93.5v268l84 14v-305q0 -33 -8 -65q58 -38 122 -38z" />
    <glyph glyph-name="uniFEB6" unicode="&#x634;" horiz-adv-x="1362" arabic-form="final" 
d="M948 729l-52 -52l-53 52l52 53zM885 607l-72 -73l-74 73l73 72zM978 534l-74 73l74 72l73 -72zM1362 90q10 0 10 -9v-71q0 -10 -10 -10q-82 0 -153 60q-49 -60 -157 -60q-79 0 -166 53q-53 -53 -152 -53q-64 0 -134 42q-13 -120 -83 -188.5t-201 -68.5
q-126 0 -199.5 65.5t-73.5 193.5q0 107 44 241l69 -19q-35 -103 -35 -200q1 -94 53 -142.5t147 -48.5q100 0 148.5 56.5t48.5 174.5v377l84 14v-372q67 -35 125 -35q126 0 126 125v162l85 13v-198q0 -40 -13 -77q62 -25 116 -25q61 0 93 31.5t32 93.5v268l85 14v-305
q0 -33 -8 -65q57 -37 119 -37z" />
    <glyph glyph-name="uniFEB7" unicode="&#x634;" horiz-adv-x="884" arabic-form="initial" 
d="M518 730l-52 -52l-53 52l52 53zM455 608l-72 -73l-74 73l73 72zM548 535l-74 73l74 72l73 -72zM741 484l84 14v-305q0 -92 -50 -142t-148 -50q-80 0 -167 53q-53 -53 -152 -53q-72 0 -149 52q-55 -53 -159 -53q-10 0 -10 10v71q0 9 10 9q126 0 126 125l-1 162l85 13v-198
q0 -42 -12 -77q58 -24 104 -24q126 0 126 125l-1 162l85 13v-198q0 -44 -13 -77q62 -25 116 -25q61 0 93.5 31.5t32.5 93.5v268z" />
    <glyph glyph-name="uniFEB8" unicode="&#x634;" horiz-adv-x="939" arabic-form="medial" 
d="M516 730l-52 -52l-53 52l52 53zM453 608l-72 -73l-74 73l73 72zM546 535l-74 73l74 72l73 -72zM939 90q10 0 10 -9v-71q0 -10 -10 -10q-83 0 -155 61q-51 -60 -157 -60q-80 0 -167 53q-53 -53 -152 -53q-72 0 -149 52q-55 -53 -159 -53q-10 0 -10 10v71q0 9 10 9
q126 0 126 125l-1 162l85 13v-198q0 -42 -12 -77q58 -24 104 -24q126 0 126 125l-1 162l85 13v-198q0 -44 -13 -77q62 -25 116 -25q61 0 93.5 31.5t32.5 93.5v268l84 14v-305q0 -33 -8 -65q58 -38 122 -38z" />
    <glyph glyph-name="uniFEBA" unicode="&#x635;" horiz-adv-x="1327" arabic-form="final" 
d="M1327 90q10 0 10 -9v-71q0 -10 -10 -10q-85 0 -159 66q-54 -66 -173 -66h-402q-20 -102 -88.5 -158.5t-188.5 -56.5q-126 0 -199.5 65.5t-73.5 193.5q0 107 44 241l69 -19q-35 -103 -35 -200q1 -94 53 -142.5t147 -48.5q100 0 148.5 56.5t48.5 174.5v377l84 14v-120
q155 67 234.5 91.5t154.5 24.5q95 0 156.5 -60.5t60.5 -155.5v-85q0 -31 -8 -60q62 -42 127 -42zM1123 207v58q0 63 -42 101.5t-108 38.5q-61 0 -116.5 -15.5t-204.5 -69.5q-10 -4 -16 -6t-16 -5.5t-18 -6.5v-205v-7h394q61 0 94 30t33 87z" />
    <glyph glyph-name="uniFEBB" unicode="&#x635;" horiz-adv-x="836" arabic-form="initial" 
d="M574 493q95 0 156.5 -60t61.5 -153q0 -46 -7.5 -83.5t-28.5 -119.5l-67 -77h-548h-141q-10 0 -10 10l1 71q0 9 10 9h99l-1 393l85 14v-120q154 66 234.5 91t155.5 25zM674 90q33 112 33 178q-1 60 -43.5 98.5t-107.5 38.5q-67 0 -130.5 -18t-241.5 -84v-213h490z" />
    <glyph glyph-name="uniFEBC" unicode="&#x635;" horiz-adv-x="915" arabic-form="medial" 
d="M915 90q10 0 10 -9v-71q0 -10 -10 -10q-88 0 -162 68q-54 -68 -175 -68h-437h-141q-10 0 -10 10v71q2 9 10 9h100l-1 393l85 14v-120q156 67 235.5 91.5t154.5 24.5q95 0 156.5 -60.5t60.5 -155.5v-85q0 -26 -7 -57q64 -45 131 -45zM706 207v58q0 63 -42 101.5t-108 38.5
q-67 0 -132 -18.5t-240 -83.5v-213h395q61 0 94 30t33 87z" />
    <glyph glyph-name="uniFEBE" unicode="&#x636;" horiz-adv-x="1327" arabic-form="final" 
d="M875 657l-73 -73l-74 73l72 72zM1327 90q10 0 10 -9v-71q0 -10 -10 -10q-85 0 -159 66q-54 -66 -173 -66h-402q-20 -102 -88.5 -158.5t-188.5 -56.5q-126 0 -199.5 65.5t-73.5 193.5q0 107 44 241l69 -19q-35 -103 -35 -200q1 -94 53 -142.5t147 -48.5q100 0 148.5 56.5
t48.5 174.5v377l84 14v-120q155 67 234.5 91.5t154.5 24.5q95 0 156.5 -60.5t60.5 -155.5v-85q0 -31 -8 -60q62 -42 127 -42zM1123 207v58q0 63 -42 101.5t-108 38.5q-61 0 -116.5 -15.5t-204.5 -69.5q-10 -4 -16 -6t-16 -5.5t-18 -6.5v-205v-7h394q61 0 94 30t33 87z" />
    <glyph glyph-name="uniFEBF" unicode="&#x636;" horiz-adv-x="836" arabic-form="initial" 
d="M510 657l-73 -73l-74 73l72 72zM574 493q95 0 156.5 -60t61.5 -153q0 -46 -7.5 -83.5t-28.5 -119.5l-67 -77h-548h-141q-10 0 -10 10l1 71q0 9 10 9h99l-1 393l85 14v-120q154 66 234.5 91t155.5 25zM674 90q33 112 33 178q-1 60 -43.5 98.5t-107.5 38.5
q-67 0 -130.5 -18t-241.5 -84v-213h490z" />
    <glyph glyph-name="uniFEC0" unicode="&#x636;" horiz-adv-x="915" arabic-form="medial" 
d="M510 657l-73 -73l-74 73l72 72zM915 90q10 0 10 -9v-71q0 -10 -10 -10q-88 0 -162 68q-54 -68 -175 -68h-437h-141q-10 0 -10 10v71q2 9 10 9h100l-1 393l85 14v-120q156 67 235.5 91.5t154.5 24.5q95 0 156.5 -60.5t60.5 -155.5v-85q0 -26 -7 -57q64 -45 131 -45z
M706 207v58q0 63 -42 101.5t-108 38.5q-67 0 -132 -18.5t-240 -83.5v-213h395q61 0 94 30t33 87z" />
    <glyph glyph-name="uniFEC2" unicode="&#x637;" horiz-adv-x="978" arabic-form="final" 
d="M978 90q10 0 10 -9v-71q0 -10 -10 -10q-88 0 -162 68q-54 -68 -175 -68h-437h-42h-129l-16 90h145v627l85 13v-354q154 67 234.5 92t155.5 25q95 0 156.5 -60.5t60.5 -155.5v-85q0 -33 -7 -57q64 -45 131 -45zM769 207v58q0 63 -42 101.5t-108 38.5q-68 0 -133 -18.5
t-239 -84.5v-212h395q61 0 94 30t33 87z" />
    <glyph glyph-name="uniFEC3" unicode="&#x637;" horiz-adv-x="836" arabic-form="initial" 
d="M574 493q95 0 156.5 -60t61.5 -153q0 -46 -7.5 -83.5t-28.5 -119.5l-67 -77h-505h-85h-99q-10 0 -10 10l1 71q0 9 10 9h98v627l85 13v-233v-120q154 66 234.5 91t155.5 25zM674 90q33 112 33 178q-1 60 -43.5 98.5t-107.5 38.5q-67 0 -130.5 -18t-241.5 -84v-213h490z
" />
    <glyph glyph-name="uniFEC4" unicode="&#x637;" horiz-adv-x="915" arabic-form="medial" 
d="M915 90q10 0 10 -9v-71q0 -10 -10 -10q-88 0 -162 68q-54 -68 -175 -68h-394h-85h-99q-10 0 -10 10v71q2 9 10 9h99v627l85 13v-233v-120q156 67 235.5 91.5t154.5 24.5q95 0 156.5 -60.5t60.5 -155.5v-85q0 -26 -7 -57q64 -45 131 -45zM706 207v58q0 63 -42 101.5
t-108 38.5q-67 0 -132 -18.5t-240 -83.5v-213h395q61 0 94 30t33 87z" />
    <glyph glyph-name="uniFEC6" unicode="&#x638;" horiz-adv-x="978" arabic-form="final" 
d="M978 90q10 0 10 -9v-71q0 -10 -10 -10q-88 0 -162 68q-54 -68 -175 -68h-437h-42h-129l-16 90h145v627l85 13v-354q154 67 234.5 92t155.5 25q95 0 156.5 -60.5t60.5 -155.5v-85q0 -33 -7 -57q64 -45 131 -45zM542 657l-73 -73l-74 73l72 72zM769 207v58q0 63 -42 101.5
t-108 38.5q-68 0 -133 -18.5t-239 -84.5v-212h395q61 0 94 30t33 87z" />
    <glyph glyph-name="uniFEC7" unicode="&#x638;" horiz-adv-x="836" arabic-form="initial" 
d="M574 493q95 0 156.5 -60t61.5 -153q0 -46 -7.5 -83.5t-28.5 -119.5l-67 -77h-505h-85h-99q-10 0 -10 10l1 71q0 9 10 9h98v627l85 13v-233v-120q154 66 234.5 91t155.5 25zM459 657l-73 -73l-74 73l72 72zM674 90q33 112 33 178q-1 60 -43.5 98.5t-107.5 38.5
q-67 0 -130.5 -18t-241.5 -84v-213h490z" />
    <glyph glyph-name="uniFEC8" unicode="&#x638;" horiz-adv-x="915" arabic-form="medial" 
d="M915 90q10 0 10 -9v-71q0 -10 -10 -10q-88 0 -162 68q-54 -68 -175 -68h-394h-85h-99q-10 0 -10 10v71q2 9 10 9h99v627l85 13v-233v-120q156 67 235.5 91.5t154.5 24.5q95 0 156.5 -60.5t60.5 -155.5v-85q0 -26 -7 -57q64 -45 131 -45zM459 657l-73 -73l-74 73l72 72z
M706 207v58q0 63 -42 101.5t-108 38.5q-67 0 -132 -18.5t-240 -83.5v-213h395q61 0 94 30t33 87z" />
    <glyph glyph-name="uniFECA" unicode="&#x639;" horiz-adv-x="616" arabic-form="final" 
d="M616 90q10 0 10 -9v-71q0 -10 -10 -10q-164 0 -298 88q-115 -62 -144 -87q-38 -33 -38 -73q0 -53 53.5 -84.5t145.5 -31.5q104 0 225 37l24 -73q-141 -51 -257 -51q-124 0 -197.5 52.5t-73.5 141.5q0 65 43 108t136 92q-60 69 -99.5 126.5t-87.5 148.5l33 77
q141 72 252 72q100 0 166.5 -53.5t66.5 -134.5q0 -117 -168 -222q103 -43 218 -43zM320 457q-78 1 -182 -47q76 -146 171 -253q171 94 171 170q0 58 -44 94t-116 36z" />
    <glyph glyph-name="uniFECB" unicode="&#x639;" horiz-adv-x="547" arabic-form="initial" 
d="M188 94q142 6 332 38l-18 -90q-225 -42 -502 -42q-10 0 -10 10v71q0 9 10 9q70 0 102 1q-56 90 -56 179q0 93 65 152t162 59q64 0 180 -39l-24 -73q-91 28 -142 28q-69 0 -113.5 -40t-44.5 -106q0 -78 59 -157z" />
    <glyph glyph-name="uniFECC" unicode="&#x639;" horiz-adv-x="601" arabic-form="medial" 
d="M599 90q10 0 10 -9v-71q0 -10 -10 -10q-175 0 -282 53q-67 -30 -138 -41.5t-179 -11.5q-10 1 -10 10v71q0 9 10 9q103 0 203 18q-53 63 -90 118.5t-82 140.5l32 77q140 72 253 72q100 0 166 -53t66 -135q0 -57 -35 -115.5t-103 -106.5q80 -16 189 -16zM302 430
q-78 1 -181 -47q44 -85 82.5 -141.5t94.5 -119.5q72 35 117.5 85t45.5 93q0 58 -43.5 94t-115.5 36z" />
    <glyph glyph-name="uniFECE" unicode="&#x63a;" horiz-adv-x="616" arabic-form="final" 
d="M383 693l-73 -73l-74 73l72 72zM616 90q10 0 10 -9v-71q0 -10 -10 -10q-164 0 -298 88q-115 -62 -144 -87q-38 -33 -38 -73q0 -53 53.5 -84.5t145.5 -31.5q104 0 225 37l24 -73q-141 -51 -257 -51q-124 0 -197.5 52.5t-73.5 141.5q0 65 43 108t136 92q-60 69 -99.5 126.5
t-87.5 148.5l33 77q141 72 252 72q100 0 166.5 -53.5t66.5 -134.5q0 -117 -168 -222q103 -43 218 -43zM320 457q-78 1 -182 -47q76 -146 171 -253q171 94 171 170q0 58 -44 94t-116 36z" />
    <glyph glyph-name="uniFECF" unicode="&#x63a;" horiz-adv-x="547" arabic-form="initial" 
d="M326 639l-73 -73l-74 73l72 72zM188 94q142 6 332 38l-18 -90q-225 -42 -502 -42q-10 0 -10 10v71q0 9 10 9q70 0 102 1q-56 90 -56 179q0 93 65 152t162 59q64 0 180 -39l-24 -73q-91 28 -142 28q-69 0 -113.5 -40t-44.5 -106q0 -78 59 -157z" />
    <glyph glyph-name="uniFED0" unicode="&#x63a;" horiz-adv-x="601" arabic-form="medial" 
d="M370 666l-73 -73l-74 73l72 72zM599 90q10 0 10 -9v-71q0 -10 -10 -10q-175 0 -282 53q-67 -30 -138 -41.5t-179 -11.5q-10 1 -10 10v71q0 9 10 9q103 0 203 18q-53 63 -90 118.5t-82 140.5l32 77q140 72 253 72q100 0 166 -53t66 -135q0 -57 -35 -115.5t-103 -106.5
q80 -16 189 -16zM302 430q-78 1 -181 -47q44 -85 82.5 -141.5t94.5 -119.5q72 35 117.5 85t45.5 93q0 58 -43.5 94t-115.5 36z" />
    <glyph glyph-name="uniFED2" unicode="&#x641;" horiz-adv-x="973" arabic-form="final" 
d="M766 642l-73 -73l-74 73l72 72zM976 90q10 0 10 -9v-71q0 -10 -10 -10q-152 0 -275 36q-109 -34 -276 -36h-1h-137q-119 0 -181.5 55t-62.5 162q0 68 22 171l74 -10q-16 -89 -16 -137q0 -151 184 -151h106q101 0 157 6q-93 69 -93 177q0 91 63 151.5t157 60.5
q96 0 158 -61.5t62 -150.5q0 -106 -92 -175q59 -8 151 -8zM694 401q-59 0 -96.5 -38.5t-37.5 -98.5q0 -54 36.5 -96.5t99.5 -61.5q65 22 102 64t37 94q0 60 -40.5 98.5t-100.5 38.5z" />
    <glyph glyph-name="uniFED3" unicode="&#x641;" horiz-adv-x="542" arabic-form="initial" 
d="M333 642l-73 -73l-74 73l72 72zM273 485q96 0 161 -65.5t65 -163.5q0 -120 -74.5 -188t-205.5 -68h-219q-10 0 -10 10v71q0 9 10 9h86q-45 93 -45 162q0 101 65.5 167t166.5 66zM226 90q86 0 137 43t51 120q0 64 -41.5 105.5t-104.5 41.5q-60 0 -102 -44.5t-42 -104.5
q0 -72 50 -161h52z" />
    <glyph glyph-name="uniFED4" unicode="&#x641;" horiz-adv-x="563" arabic-form="medial" 
d="M353 642l-73 -73l-74 73l72 72zM563 90q10 0 10 -9v-71q0 -10 -10 -10q-148 0 -275 37q-114 -37 -288 -37q-10 1 -10 10v71q0 9 10 9q87 0 156 6q-92 69 -92 177q0 91 63 151.5t157 60.5q96 0 158 -61.5t62 -150.5q0 -107 -92 -175q59 -8 151 -8zM281 401
q-59 0 -96.5 -38.5t-37.5 -98.5q0 -53 37 -96t99 -61q64 21 101.5 63t37.5 94q0 60 -40.5 98.5t-100.5 38.5z" />
    <glyph glyph-name="uniFED6" unicode="&#x642;" horiz-adv-x="769" arabic-form="final" 
d="M492 641l-73 -72l-73 72l73 72zM651 641l-73 -72l-74 72l74 72zM769 90q10 0 10 -9v-71q0 -10 -10 -10h-63q-35 -215 -357 -215q-138 0 -222 67t-84 192q0 107 44 241l69 -19q-35 -103 -35 -200q1 -99 66.5 -151t181.5 -52q106 0 171.5 35.5t82.5 101.5h-122
q-102 0 -164 62.5t-62 167.5q0 109 63.5 177.5t162.5 67.5q93 -2 151 -63.5t58 -161.5v-160h59zM353 234q0 -71 43 -109t116 -38q32 0 114 2l-1 154q0 64 -36.5 103.5t-95.5 40.5q-62 2 -101 -40t-39 -113z" />
    <glyph glyph-name="uniFED7" unicode="&#x642;" horiz-adv-x="542" arabic-form="initial" 
d="M259 641l-73 -72l-73 72l73 72zM418 641l-73 -72l-74 72l74 72zM273 485q96 0 161 -65.5t65 -163.5q0 -120 -74.5 -188t-205.5 -68h-219q-10 0 -10 10v71q0 9 10 9h86q-45 93 -45 162q0 101 65.5 167t166.5 66zM226 90q86 0 137 43t51 120q0 64 -41.5 105.5t-104.5 41.5
q-60 0 -102 -44.5t-42 -104.5q0 -72 50 -161h52z" />
    <glyph glyph-name="uniFED8" unicode="&#x642;" horiz-adv-x="563" arabic-form="medial" 
d="M276 641l-73 -72l-73 72l73 72zM435 641l-73 -72l-74 72l74 72zM563 90q10 0 10 -9v-71q0 -10 -10 -10q-148 0 -275 37q-114 -37 -288 -37q-10 1 -10 10v71q0 9 10 9q87 0 156 6q-92 69 -92 177q0 91 63 151.5t157 60.5q96 0 158 -61.5t62 -150.5q0 -107 -92 -175
q59 -8 151 -8zM281 401q-59 0 -96.5 -38.5t-37.5 -98.5q0 -53 37 -96t99 -61q64 21 101.5 63t37.5 94q0 60 -40.5 98.5t-100.5 38.5z" />
    <glyph glyph-name="uniFEDA" unicode="&#x643;" horiz-adv-x="875" arabic-form="final" 
d="M874 90q10 0 10 -9v-71q0 -10 -10 -10q-130 0 -179 75q-112 -75 -271 -75h-1h-136q-119 0 -181.5 55t-62.5 162q0 73 21 171l75 -10q-16 -89 -16 -137q0 -151 184 -151h116h1q158 0 245 51q-5 30 -5 59v517l85 13v-510q0 -130 125 -130zM544 423l-20 -67h-237v67h61
q-19 29 -19 61q0 45 29.5 72.5t76.5 27.5q34 0 77 -20v-62q-40 15 -68 15q-26 0 -41.5 -12.5t-15.5 -34.5q0 -25 19 -47h138z" />
    <glyph glyph-name="uniFEDB" unicode="&#x643;" horiz-adv-x="582" arabic-form="initial" 
d="M302 423q110 0 175.5 -56.5t65.5 -152.5q0 -99 -61.5 -156.5t-164.5 -57.5h-317q-10 0 -10 10v71q0 9 10 9h310q69 0 108.5 33t39.5 92t-39.5 93.5t-107.5 34.5h-241l-46 81l299 354l82 -43l-281 -312h178z" />
    <glyph glyph-name="uniFEDC" unicode="&#x643;" horiz-adv-x="654" arabic-form="medial" 
d="M654 90q10 0 10 -9v-71q0 -10 -10 -10q-88 0 -162 68q-60 -68 -175 -68h-317q-10 0 -10 10v71q0 9 10 9h310q69 0 108.5 33t39.5 92t-39.5 93.5t-107.5 34.5h-241l-46 81l299 354l82 -43l-281 -312h178q110 0 175.5 -56.5t65.5 -152.5q0 -48 -13 -83q58 -41 124 -41z" />
    <glyph glyph-name="uniFEDE" unicode="&#x644;" horiz-adv-x="726" arabic-form="final" 
d="M726 90q10 0 10 -9v-71q0 -10 -10 -10q-84 0 -125 58q-9 -128 -79 -200.5t-206 -72.5q-126 0 -199.5 65.5t-73.5 193.5q0 107 44 241l69 -19q-35 -103 -35 -200q1 -94 53 -142.5t147 -48.5q100 0 148.5 56.5t48.5 174.5v377v237l85 13v-477v-58q0 -52 37 -80t86 -28z" />
    <glyph glyph-name="uniFEDF" unicode="&#x644;" horiz-adv-x="297" arabic-form="initial" 
d="M0 0q-10 0 -10 10v71q0 9 11 9q125 0 125 130l1 497l84 13v-530q0 -200 -211 -200z" />
    <glyph glyph-name="uniFEE0" unicode="&#x644;" horiz-adv-x="325" arabic-form="medial" 
d="M324 90q10 0 10 -9v-71q0 -10 -10 -10q-121 0 -172 65q-69 -65 -152 -65q-10 0 -10 10v71q0 9 10 9q72 0 121 42q-7 28 -7 68v517l85 13v-510q0 -130 125 -130z" />
    <glyph glyph-name="uniFEE2" unicode="&#x645;" horiz-adv-x="687" arabic-form="final" 
d="M686 90q10 0 10 -9v-71q0 -10 -10 -10h-240q-95 0 -161 45t-88 127q-76 -14 -76 -108v-321l-84 -13l-1 345q0 167 151 186q2 97 65.5 160.5t161.5 63.5q92 0 156.5 -66.5t64.5 -156.5q0 -72 -37 -172h88zM439 90h84q35 94 35 158q0 61 -40 107t-99 46q-67 0 -107 -41.5
t-40 -109.5q0 -72 45 -116t122 -44z" />
    <glyph glyph-name="uniFEE3" unicode="&#x645;" horiz-adv-x="542" arabic-form="initial" 
d="M273 485q96 0 161 -65.5t65 -163.5q0 -120 -74.5 -188t-205.5 -68h-219q-10 0 -10 10v71q0 9 10 9h86q-45 93 -45 162q0 101 65.5 167t166.5 66zM226 90q86 0 137 43t51 120q0 64 -41.5 105.5t-104.5 41.5q-60 0 -102 -44.5t-42 -104.5q0 -72 50 -161h52z" />
    <glyph glyph-name="uniFEE4" unicode="&#x645;" horiz-adv-x="564" arabic-form="medial" 
d="M564 90q10 0 10 -9v-71q0 -10 -10 -10h-242q-99 0 -166 49q-78 -49 -156 -49q-10 0 -10 10v71q0 9 10 9q52 0 99 22q-36 59 -36 141q0 100 64 166t163 66q93 0 159 -66.5t66 -156.5q0 -78 -35 -172h84zM315 90h83q35 98 35 158q0 61 -39.5 107t-98.5 46q-67 0 -107 -41.5
t-40 -109.5q0 -72 45 -116t122 -44z" />
    <glyph glyph-name="uniFEE6" unicode="&#x646;" horiz-adv-x="717" arabic-form="final" 
d="M395 483l-73 -73l-74 73l72 72zM717 90q10 0 10 -9v-71q0 -10 -10 -10q-78 0 -116 59q-9 -128 -79 -201t-206 -73q-126 0 -199.5 65.5t-73.5 193.5q0 107 44 241l69 -19q-35 -103 -35 -200q1 -94 53 -142.5t147 -48.5q100 0 148.5 56.5t48.5 174.5v377l84 14v-288l1 -8
q10 -111 114 -111z" />
    <glyph glyph-name="uniFEE7" unicode="&#x646;" horiz-adv-x="278" arabic-form="initial" 
d="M166 580l-74 73l72 72l75 -72zM0 0q-10 0 -10 10l1 71q0 9 10 9q126 0 126 125l-1 268l85 14v-305q0 -92 -53.5 -142t-157.5 -50z" />
    <glyph glyph-name="uniFEE8" unicode="&#x646;" horiz-adv-x="331" arabic-form="medial" 
d="M241 537l-73 -73l-74 73l72 72zM331 90q10 0 10 -9v-71q0 -10 -10 -10q-85 0 -159 65q-53 -65 -172 -65q-10 0 -10 10l1 71q0 9 10 9q126 0 126 125l-1 162l85 13v-198q0 -35 -7 -60q62 -42 127 -42z" />
    <glyph glyph-name="uniFEE9" unicode="&#x647;" horiz-adv-x="811" arabic-form="isolated" 
d="M309 674q219 1 338.5 -96.5t119.5 -265.5q0 -118 -60 -248l-81 -77q-130 -2 -281 55q-101 -42 -183 -42q-70 0 -142 23l18 85q62 -18 117 -18q17 0 53 4q-97 68 -97 180q0 91 62 151.5t155 60.5q95 0 156.5 -61t61.5 -150q0 -107 -98 -178q87 -21 177 -21q60 113 60 229
q0 57 -22.5 107t-67 91.5t-120.5 66t-175 24.5zM326 402q-58 0 -95 -38t-37 -99q0 -52 36 -94.5t97 -61.5q63 23 100 65t37 91q0 60 -39 98.5t-99 38.5z" />
    <glyph glyph-name="uniFEEA" unicode="&#x647;" horiz-adv-x="583" arabic-form="final" 
d="M583 90q10 0 10 -9v-71q0 -10 -10 -10q-92 0 -136 43q-101 -52 -181 -52q-101 0 -165.5 69t-64.5 171q0 104 65 177t165 73q61 0 134 -28v62l84 14l1 -327q0 -60 23 -86t75 -26zM266 77q67 -1 144 34q-10 34 -10 83v174q-81 27 -131 27q-67 0 -109.5 -47t-42.5 -116
q0 -66 41.5 -110t107.5 -45z" />
    <glyph glyph-name="uniFEEB" unicode="&#x647;" horiz-adv-x="785" arabic-form="initial" 
d="M270 674q220 1 345.5 -97t125.5 -265q0 -94 -36 -235l-67 -77h-312q-96 0 -162 46q-79 -46 -164 -46q-10 0 -10 10v71q0 9 10 9q60 0 104 19q-37 60 -37 144q0 100 63.5 166t163.5 66q93 0 159 -66.5t66 -156.5q0 -76 -36 -172h143q33 117 33 215q0 56 -24 107t-71 92
t-125.5 65.5t-177.5 24.5zM319 90h82q35 94 35 158q0 61 -39.5 107t-97.5 46q-67 0 -107 -41.5t-40 -109.5q0 -72 45 -116t122 -44z" />
    <glyph glyph-name="uniFEEC" unicode="&#x647;" horiz-adv-x="547" arabic-form="medial" 
d="M551 90q10 0 10 -9v-71q0 -10 -10 -10h-40v-15q0 -99 -56.5 -152t-164.5 -53q-92 0 -155 58.5t-83 162.5q-18 -1 -55 -1q-10 0 -10 10v71q0 9 10 9h46v6q0 257 225 483h77q71 -77 111.5 -159t40.5 -149q0 -113 -94 -181h148zM125 109v-15q150 9 219 49.5t69 125.5
q0 107 -114 240q-79 -85 -126.5 -193t-47.5 -207zM292 -136q145 0 145 121v15h-144l-11 34q-67 -19 -147 -27q34 -143 157 -143z" />
    <glyph glyph-name="uniFEEE" unicode="&#x648;" horiz-adv-x="541" arabic-form="final" 
d="M541 90q10 0 10 -9v-71q0 -10 -10 -10h-59q-18 -215 -372 -215l-10 73q139 0 213 34t84 108h-120q-106 0 -170 64.5t-64 173.5q0 107 65.5 175t165.5 68q93 0 151 -61.5t58 -162.5v-167h58zM122 242q0 -75 45 -115t121 -40q32 0 110 2v161q0 65 -36.5 104.5t-95.5 39.5
q-62 0 -103 -42t-41 -110z" />
    <glyph glyph-name="uniFEF0" unicode="&#x649;" horiz-adv-x="1014" arabic-form="final" 
d="M1014 90q10 0 10 -9v-71q0 -10 -10 -10h-203v386h-81q-61 0 -94.5 -31.5t-33.5 -92.5v-182q0 -146 -63.5 -220.5t-222.5 -74.5q-126 0 -199.5 65.5t-73.5 193.5q0 107 44 241l69 -19q-35 -103 -35 -200q1 -94 53 -142.5t147 -48.5q109 0 153 48t44 166v188
q0 92 51.5 145.5t148.5 53.5h120l58 -51v-335h118z" />
    <glyph glyph-name="uniFEF2" unicode="&#x64a;" horiz-adv-x="1014" arabic-form="final" 
d="M1014 90q10 0 10 -9v-71q0 -10 -10 -10h-203v386h-81q-61 0 -94.5 -31.5t-33.5 -92.5v-182q0 -146 -63.5 -220.5t-222.5 -74.5q-126 0 -199.5 65.5t-73.5 193.5q0 107 44 241l69 -19q-35 -103 -35 -200q1 -94 53 -142.5t147 -48.5q109 0 153 48t44 166v188
q0 92 51.5 145.5t148.5 53.5h120l58 -51v-335h118zM221 -347l73 72l73 -72l-73 -72zM379 -347l74 72l73 -72l-73 -72z" />
    <glyph glyph-name="uniFEF3" unicode="&#x64a;" horiz-adv-x="353" arabic-form="initial" 
d="M0 0q-10 0 -10 10l1 71q0 9 10 9h76q125 0 125 125v268l84 14v-305q0 -92 -53 -142t-157 -50h-76zM64 -223l-73 72l73 72l73 -72zM223 -223l-74 72l74 72l73 -72z" />
    <glyph glyph-name="uniFEF4" unicode="&#x64a;" horiz-adv-x="376" arabic-form="medial" 
d="M376 90q10 0 10 -9v-71q0 -10 -10 -10q-93 0 -172 73q-54 -73 -204 -73q-10 0 -10 10l1 71q0 9 10 9q80 0 116.5 29.5t36.5 95.5v162l84 13v-198q0 -25 -5 -52q67 -50 143 -50zM33 -151l73 72l73 -72l-73 -72zM191 -151l74 72l73 -72l-73 -72z" />
    <glyph glyph-name=".notdef" horiz-adv-x="292" 
 />
    <glyph glyph-name=".null" 
 />
    <glyph glyph-name="nonmarkingreturn" horiz-adv-x="333" 
 />
    <glyph glyph-name="space" unicode=" " horiz-adv-x="240" 
 />
    <glyph glyph-name="exclam" unicode="!" horiz-adv-x="254" 
d="M156 180h-59l-17 162v338h93v-338zM166 0h-79v104h79v-104z" />
    <glyph glyph-name="quotedbl" unicode="&#x22;" horiz-adv-x="350" 
d="M125 465h-48l-14 117v98h76v-98zM274 465h-48l-14 117v98h76v-98z" />
    <glyph glyph-name="numbersign" unicode="#" horiz-adv-x="709" 
d="M557 466h99v-72h-134l-68 -129h162v-72h-196l-103 -193h-79l103 193h-122l-102 -193h-80l103 193h-90v72h124l68 129h-145v72h180l112 214h79l-111 -214h121l112 214h79zM444 394h-123l-68 -129h123z" />
    <glyph glyph-name="dollar" unicode="$" horiz-adv-x="580" 
d="M521 545q-104 68 -226 68q-146 0 -146 -97q0 -36 29 -61.5t72 -38t94 -30.5t94 -38t72 -61.5t29 -99.5q0 -91 -61.5 -140t-155.5 -56v-116h-63v115q-118 6 -212 61v84q106 -68 232 -68q69 0 116.5 27t47.5 86q0 39 -29 67t-72 42t-93.5 32.5t-93.5 37.5t-72 58.5
t-29 94.5q0 85 58 128.5t147 48.5v116h63v-116q109 -7 199 -60v-84z" />
    <glyph glyph-name="percent" unicode="%" horiz-adv-x="802" 
d="M193 322q-75 0 -115 51.5t-40 132.5t40 132.5t115 51.5q74 0 114 -51.5t40 -132.5t-40 -132.5t-114 -51.5zM445 370h-54l166 310h73zM192 644q-49 0 -74.5 -37.5t-25.5 -100.5t25.5 -100.5t74.5 -37.5q50 0 75 37.5t25 100.5t-25 100.5t-75 37.5zM610 -8q-75 0 -115 51.5
t-40 132.5t40 132.5t115 51.5q74 0 114 -51.5t40 -132.5t-40 -132.5t-114 -51.5zM610 314q-49 0 -74.5 -37.5t-25.5 -100.5t25.5 -100.5t74.5 -37.5q50 0 75 37.5t25 100.5t-25 100.5t-75 37.5zM351 310h55l-166 -310h-73z" />
    <glyph glyph-name="ampersand" unicode="&#x26;" horiz-adv-x="675" 
d="M644 -3l-125 102q-80 -109 -234 -109q-104 0 -170 50t-66 140q0 74 40.5 120.5t96.5 70.5q-75 73 -75 149q0 47 20.5 81.5t53.5 53t67.5 27t69.5 8.5q110 0 202 -62v-76q-101 66 -192 66q-27 0 -53.5 -6.5t-51 -29.5t-24.5 -59q0 -30 18 -59t37.5 -46.5t67.5 -56.5
l154 -131q28 64 28 153h87q0 -117 -37 -207l86 -73v-106zM279 292q-27 20 -43 35q-46 -26 -69 -57t-23 -80q0 -56 40 -90t104 -34q102 0 161 84z" />
    <glyph glyph-name="quotesingle" unicode="'" horiz-adv-x="202" 
d="M125 465h-48l-14 117v98h76v-98z" />
    <glyph glyph-name="parenleft" unicode="(" horiz-adv-x="305" 
d="M294 830q-59 -73 -113.5 -207.5t-54.5 -282.5t54.5 -282.5t113.5 -207.5h-64q-24 24 -52.5 67t-61 106t-54 147.5t-21.5 169.5t21.5 169.5t54 147.5t61 106t52.5 67h64z" />
    <glyph glyph-name="parenright" unicode=")" horiz-adv-x="305" 
d="M10 -150q59 75 113.5 209t54.5 281t-54.5 281t-113.5 209h64q24 -24 52.5 -67t60.5 -106t53.5 -147.5t21.5 -169.5t-21.5 -169.5t-53.5 -147.5t-60.5 -106t-52.5 -67h-64z" />
    <glyph glyph-name="asterisk" unicode="*" horiz-adv-x="391" 
d="M246 530l92 -52l-25 -45l-92 53v-106h-51v106l-92 -53l-25 45l91 52l-91 53l25 45l92 -54v106h51v-106l92 54l25 -45z" />
    <glyph glyph-name="plus" unicode="+" horiz-adv-x="571" 
d="M526 294h-204v-205h-72v205h-205v72h204v204h72v-204h205v-72z" />
    <glyph glyph-name="comma" unicode="," horiz-adv-x="181" 
d="M61 -130l-55 5q39 102 45 214h80q-10 -111 -70 -219z" />
    <glyph glyph-name="hyphen" unicode="-" horiz-adv-x="468" 
d="M63 254v72h341v-72h-341z" />
    <glyph glyph-name="period" unicode="." horiz-adv-x="190" 
d="M139 0h-88v89h88v-89z" />
    <glyph glyph-name="slash" unicode="/" horiz-adv-x="484" 
d="M106 0h-80l352 680h79z" />
    <glyph glyph-name="zero" unicode="0" horiz-adv-x="703" 
d="M351 -10q-143 0 -220.5 98t-77.5 252t77.5 252t220.5 98t221 -98.5t78 -251.5q0 -154 -78 -252t-221 -98zM351 615q-99 0 -151 -74t-52 -201t52 -201t151 -74t151.5 74t52.5 201t-52.5 201t-151.5 74z" />
    <glyph glyph-name="one" unicode="1" horiz-adv-x="470" 
d="M433 77l14 -77h-400v77h153v516l-131 -74l-29 72l170 94h83v-608h140z" />
    <glyph glyph-name="two" unicode="2" horiz-adv-x="593" 
d="M68 623q116 67 221 67q104 0 172.5 -48t68.5 -141q0 -44 -21 -82.5t-54 -66.5t-73.5 -53.5t-81 -49.5t-73.5 -48.5t-54 -55.5t-21 -66h378l13 -79h-493v53q0 53 21 97t55 74.5t75 57t82.5 49.5t75.5 46.5t55 54t21 65.5q0 59 -44 88.5t-111 29.5q-82 0 -194 -67z" />
    <glyph glyph-name="three" unicode="3" horiz-adv-x="573" 
d="M374 354q151 -37 151 -168q0 -93 -67 -144.5t-190 -51.5q-148 0 -243 57l28 67q107 -50 200 -50q179 0 179 129q0 62 -47 94t-131 32h-70v69h70q80 2 121 32.5t41 83.5q0 114 -149 114q-82 0 -189 -50l-28 67q100 57 231 57q104 0 164 -47t60 -134q0 -120 -131 -157z" />
    <glyph glyph-name="four" unicode="4" horiz-adv-x="627" 
d="M603 150h-113v-150h-94v150h-359v73l358 457h95v-457h113v-73zM396 223v341l-265 -341h265z" />
    <glyph glyph-name="five" unicode="5" horiz-adv-x="590" 
d="M99 680l-17 -356q101 28 191 28q82 0 128.5 -36.5t46.5 -99.5q0 -76 -48.5 -114t-136.5 -38q-85 0 -194 50l-28 -67q96 -57 237 -57q124 0 194.5 60t70.5 168q0 92 -63 148t-177 56q-60 0 -135 -15l10 197h317l13 76h-409z" />
    <glyph glyph-name="six" unicode="6" horiz-adv-x="635" 
d="M509 578q-70 39 -147 39q-104 0 -158.5 -73t-54.5 -216q41 53 101 76t115 23q100 0 158.5 -59.5t58.5 -146.5q0 -96 -65 -163.5t-185 -67.5q-134 0 -206.5 90.5t-72.5 243.5q0 56 10 107.5t33 99t56.5 82.5t84.5 56t114 21q106 0 187 -44zM154 262q3 -80 48.5 -139
t128.5 -59q68 0 112 43.5t44 108.5t-41.5 104.5t-109.5 39.5q-57 0 -107.5 -28.5t-74.5 -69.5z" />
    <glyph glyph-name="seven" unicode="7" horiz-adv-x="530" 
d="M122 0l292 604h-381l14 76h463v-67l-297 -613h-91z" />
    <glyph glyph-name="eight" unicode="8" horiz-adv-x="637" 
d="M446 349q67 -23 105 -60.5t38 -103.5q0 -92 -77 -143.5t-196 -51.5q-118 0 -193 47.5t-75 136.5q0 59 38 105.5t99 74.5q-96 51 -96 156q0 86 65.5 133t167.5 47q97 0 161.5 -46.5t64.5 -129.5q0 -104 -102 -165zM319 620q-70 0 -107 -30.5t-37 -77.5q0 -21 6 -38.5
t22 -31t28 -22.5t41 -19t41.5 -13.5t47.5 -13.5q12 -3 18 -5q83 59 83 143q0 47 -36.5 77.5t-106.5 30.5zM317 60q76 0 126 34t50 92q0 22 -10.5 40t-26 29t-42 21.5t-48.5 17t-56 16t-56 16.5q-110 -56 -110 -138q0 -59 46 -93.5t127 -34.5z" />
    <glyph glyph-name="nine" unicode="9" horiz-adv-x="635" 
d="M126 103q67 -39 147 -39q104 0 159 72.5t55 215.5q-41 -52 -101.5 -75.5t-114.5 -23.5q-101 0 -159.5 59.5t-58.5 146.5q0 97 65 164t186 67q133 0 205.5 -90.5t72.5 -243.5q0 -56 -10 -107.5t-33 -99t-56.5 -82.5t-84.5 -56t-113 -21q-107 0 -188 45zM481 418
q-3 80 -48.5 139.5t-129.5 59.5q-67 0 -111 -43.5t-44 -108.5q0 -66 41.5 -105.5t109.5 -39.5q57 0 107 28t75 70z" />
    <glyph glyph-name="colon" unicode=":" horiz-adv-x="208" 
d="M142 313h-76v105h76v-105zM142 73h-76v105h76v-105z" />
    <glyph glyph-name="semicolon" unicode=";" horiz-adv-x="244" 
d="M165 313h-76v105h76v-105zM165 104v-119q0 -73 -22.5 -98t-90.5 -25v59q21 0 29 10.5t8 53.5v119h76z" />
    <glyph glyph-name="less" unicode="&#x3c;" horiz-adv-x="567" 
d="M503 173l-441 107v100l441 106v-72l-355 -85l355 -84v-72z" />
    <glyph glyph-name="equal" unicode="=" horiz-adv-x="579" 
d="M69 394v72h441v-72h-441zM69 193v72h441v-72h-441z" />
    <glyph glyph-name="greater" unicode="&#x3e;" horiz-adv-x="567" 
d="M62 173v72l356 84l-356 85v72l441 -106v-100z" />
    <glyph glyph-name="question" unicode="?" horiz-adv-x="502" 
d="M164 353q204 0 205 136q0 63 -39.5 93.5t-103.5 30.5q-100 0 -187 -62v84q86 55 202 55q99 0 161 -48.5t62 -145.5q0 -184 -224 -201l-9 -115h-66zM241 0h-80v104h80v-104z" />
    <glyph glyph-name="at" unicode="@" horiz-adv-x="808" 
d="M749 417q0 132 -76.5 202.5t-216.5 70.5q-184 0 -297 -119t-113 -317q0 -206 114.5 -330t321.5 -124v69q-166 0 -259 100t-93 285q0 178 92 274t234 96q96 0 152.5 -49.5t56.5 -153.5v-22q-23 47 -68 72t-101 25q-99 0 -155 -67t-56 -184t56 -184.5t155 -67.5
q56 0 101 25.5t68 72.5v-88h84v414zM666 245q0 -91 -42.5 -138.5t-105.5 -47.5q-72 0 -108 51.5t-36 134.5t36 134.5t108 51.5q63 0 105.5 -47.5t42.5 -138.5z" />
    <glyph glyph-name="A" unicode="A" horiz-adv-x="713" 
d="M600 -7l-68 166h-351l-65 -159h-96l284 679l106 13l283 -685zM213 237h287l-144 351z" />
    <glyph glyph-name="B" unicode="B" horiz-adv-x="679" 
d="M362 680q246 0 246 -180q0 -53 -26.5 -93t-76.5 -56q62 -12 92.5 -55.5t30.5 -106.5q0 -97 -60 -143t-180 -46h-300v680h274zM355 385q78 0 118 22t40 86q0 63 -40.5 85.5t-117.5 22.5h-174v-216h174zM181 310v-231h201q74 0 112.5 25t38.5 90t-38.5 90.5t-112.5 25.5
h-201z" />
    <glyph glyph-name="C" unicode="C" horiz-adv-x="678" 
d="M630 51q-101 -61 -229 -61q-155 0 -253 95t-98 255t98.5 255t256.5 95q129 0 229 -61l-17 -82q-94 64 -212 64q-117 0 -188.5 -73t-71.5 -198t71 -198t186 -73q132 0 228 67v-85z" />
    <glyph glyph-name="D" unicode="D" horiz-adv-x="747" 
d="M88 0v680h245q165 0 261 -95t96 -245q0 -151 -96 -245.5t-261 -94.5h-245zM332 79q122 0 192.5 70t70.5 191q0 120 -71 190.5t-192 70.5h-151v-522h151z" />
    <glyph glyph-name="E" unicode="E" horiz-adv-x="623" 
d="M88 0v680h472v-79h-379v-214h346l13 -78h-359v-230h389v-79h-482z" />
    <glyph glyph-name="F" unicode="F" horiz-adv-x="600" 
d="M88 0v680h469v-79h-376v-240h342l14 -79h-356v-282h-93z" />
    <glyph glyph-name="G" unicode="G" horiz-adv-x="693" 
d="M540 331l90 13v-305q-98 -49 -236 -49q-154 0 -249 94.5t-95 255.5t95 255.5t249 94.5q129 0 229 -61l-13 -82q-94 64 -212 64q-114 0 -183.5 -73t-69.5 -198t69.5 -198t183.5 -73q84 0 142 25v237z" />
    <glyph glyph-name="H" unicode="H" horiz-adv-x="760" 
d="M578 674l93 13v-687h-93v309h-397v-309h-93v674l93 13v-300h397v287z" />
    <glyph glyph-name="I" unicode="I" horiz-adv-x="270" 
d="M181 0h-93v674l93 13v-687z" />
    <glyph glyph-name="J" unicode="J" horiz-adv-x="497" 
d="M417 680v-473q0 -104 -63 -160.5t-179 -56.5q-81 0 -165 22l13 77q60 -20 144 -20q70 0 113.5 33.5t43.5 105.5v393h-207v79h300z" />
    <glyph glyph-name="K" unicode="K" horiz-adv-x="659" 
d="M550 -10l-218 317h-151v-307h-93v680h93v-294h155l198 294h107l-229 -332l239 -345z" />
    <glyph glyph-name="L" unicode="L" horiz-adv-x="592" 
d="M88 0v674l93 13v-608h374l13 -79h-480z" />
    <glyph glyph-name="M" unicode="M" horiz-adv-x="887" 
d="M467 163h-57l-237 357v-520h-85v680h92l263 -400l264 400h91v-673l-93 -14v527z" />
    <glyph glyph-name="N" unicode="N" horiz-adv-x="763" 
d="M173 540v-540h-85v680h92l409 -537v531l86 13v-687h-92z" />
    <glyph glyph-name="O" unicode="O" horiz-adv-x="820" 
d="M410 -10q-165 0 -262.5 99t-97.5 251q0 151 97.5 250.5t262.5 99.5t262.5 -99.5t97.5 -250.5q0 -152 -97.5 -251t-262.5 -99zM410 611q-121 0 -193 -75t-72 -196q0 -122 72 -196.5t193 -74.5q122 0 193.5 74.5t71.5 196.5q0 121 -71.5 196t-193.5 75z" />
    <glyph glyph-name="P" unicode="P" horiz-adv-x="653" 
d="M372 680q120 0 187.5 -61t67.5 -161q0 -101 -67.5 -162t-187.5 -61h-191v-235h-93v680h284zM369 314q72 0 117 37t45 107t-45 106.5t-117 36.5h-188v-287h188z" />
    <glyph glyph-name="Q" unicode="Q" horiz-adv-x="820" 
d="M770 340q0 -178 -127 -276l71 -88l-67 -49l-76 94q-73 -31 -161 -31q-165 0 -262.5 99t-97.5 251q0 151 97.5 250.5t262.5 99.5t262.5 -99.5t97.5 -250.5zM410 67q61 0 110 20l-94 129l54 39l109 -126q86 75 86 211q0 122 -72 198t-193 76t-193 -76t-72 -198t72 -197.5
t193 -75.5z" />
    <glyph glyph-name="R" unicode="R" horiz-adv-x="675" 
d="M557 -10l-209 272h-167v-262h-93v680h291q117 0 178 -53t61 -155q0 -82 -45 -133.5t-127 -64.5l209 -271zM181 341h186q156 0 156 131q0 129 -156 129h-186v-260z" />
    <glyph glyph-name="S" unicode="S" horiz-adv-x="587" 
d="M47 137q103 -68 232 -68q70 0 118 26t48 85q0 34 -21.5 59t-55.5 40t-75.5 28t-83 29t-75.5 36.5t-55.5 56t-21.5 83.5q0 90 66 134t165 44q124 0 236 -61l-14 -83q-103 65 -212 65q-146 0 -146 -95q0 -31 21.5 -54t55.5 -36.5t75.5 -26t83 -28.5t75.5 -37.5t55.5 -59
t21.5 -87.5q0 -100 -72.5 -148.5t-178.5 -48.5q-138 0 -242 61v86z" />
    <glyph glyph-name="T" unicode="T" horiz-adv-x="600" 
d="M253 0v601h-236v79h566l-13 -79h-223v-601h-94z" />
    <glyph glyph-name="U" unicode="U" horiz-adv-x="743" 
d="M80 674l93 13v-423q0 -90 50 -142.5t149 -52.5t148.5 52.5t49.5 142.5v410l93 13v-438q0 -111 -74 -185t-217 -74q-145 0 -218.5 75.5t-73.5 183.5v425z" />
    <glyph glyph-name="V" unicode="V" horiz-adv-x="717" 
d="M23 674l93 13l243 -595l239 588h95l-284 -685h-106z" />
    <glyph glyph-name="W" unicode="W" horiz-adv-x="1013" 
d="M985 680l-211 -685h-106l-165 537l-160 -537h-103l-212 679l90 13l177 -580l164 573h91l171 -573l172 573h92z" />
    <glyph glyph-name="X" unicode="X" horiz-adv-x="645" 
d="M538 -7l-220 290l-207 -283h-104l256 351l-234 323l100 13l196 -268l186 261h103l-234 -328l259 -345z" />
    <glyph glyph-name="Y" unicode="Y" horiz-adv-x="657" 
d="M373 232v-232h-93v234l-257 440l93 13l213 -365l205 358h99z" />
    <glyph glyph-name="Z" unicode="Z" horiz-adv-x="587" 
d="M538 79l14 -79h-517v67l388 534h-371v79h489v-67l-388 -534h385z" />
    <glyph glyph-name="bracketleft" unicode="[" horiz-adv-x="342" 
d="M79 -150v980h231v-69h-152v-842h159v-69h-238z" />
    <glyph glyph-name="backslash" unicode="\" horiz-adv-x="484" 
d="M378 0l-352 680h80l351 -680h-79z" />
    <glyph glyph-name="bracketright" unicode="]" horiz-adv-x="342" 
d="M263 -150h-238v69h158v842h-152v69h232v-980z" />
    <glyph glyph-name="asciicircum" unicode="^" horiz-adv-x="407" 
d="M204 413l142 -119l-28 -39l-114 82l-115 -82l-27 39z" />
    <glyph glyph-name="underscore" unicode="_" horiz-adv-x="573" 
d="M66 -114v72h441v-72h-441z" />
    <glyph glyph-name="a" unicode="a" horiz-adv-x="584" 
d="M545 59q23 0 38 7v-66q-28 -10 -65 -10q-94 0 -106 85q-71 -85 -189 -85q-79 0 -126 40.5t-47 104.5q0 83 65 124t170 41q58 0 125 -9v44q0 46 -34 75.5t-104 29.5q-94 0 -182 -42l-17 70q86 42 209 42q107 0 162.5 -48.5t55.5 -131.5v-217q0 -27 9.5 -40.5t35.5 -13.5z
M251 60q90 0 159 78v86q-53 9 -119 9q-149 0 -149 -87q0 -40 29.5 -63t79.5 -23z" />
    <glyph glyph-name="b" unicode="b" horiz-adv-x="627" 
d="M342 510q107 0 172 -71t65 -189t-65 -189t-172 -71q-109 0 -177 87l-7 -77h-83v717l90 13v-307q66 87 177 87zM319 60q79 0 123.5 52.5t44.5 137.5t-44.5 137.5t-123.5 52.5q-90 0 -154 -75v-229q64 -76 154 -76z" />
    <glyph glyph-name="c" unicode="c" horiz-adv-x="535" 
d="M323 60q75 0 157 41l17 -67q-86 -44 -181 -44q-123 0 -195.5 70.5t-72.5 189.5t72.5 189.5t195.5 70.5q95 0 181 -44l-17 -67q-82 41 -157 41q-82 0 -132.5 -51t-50.5 -139t50.5 -139t132.5 -51z" />
    <glyph glyph-name="d" unicode="d" horiz-adv-x="627" 
d="M285 510q111 0 177 -87v294l90 13v-730h-83l-7 77q-68 -87 -177 -87q-107 0 -172 71t-65 189t65 189t172 71zM308 60q91 0 153 76v229q-63 75 -153 75q-80 0 -124 -52.5t-44 -137.5t44 -137.5t124 -52.5z" />
    <glyph glyph-name="e" unicode="e" horiz-adv-x="587" 
d="M538 265q0 -30 -1 -42h-395q8 -78 55.5 -122t130.5 -44q90 0 171 41l17 -64q-85 -44 -194 -44q-133 0 -203.5 69.5t-70.5 190.5q0 119 70 189.5t188 70.5q65 0 111.5 -20t72 -56t37 -77.5t11.5 -91.5zM143 289h305q-1 71 -32.5 113t-112.5 42q-65 0 -108 -40.5
t-52 -114.5z" />
    <glyph glyph-name="f" unicode="f" horiz-adv-x="387" 
d="M31 500h82v66q0 79 45.5 121.5t129.5 42.5q74 0 122 -20l-18 -66q-38 16 -91 16q-98 0 -98 -96v-64h182v-70h-182v-430h-90v430h-82v70z" />
    <glyph glyph-name="g" unicode="g" horiz-adv-x="627" 
d="M552 500v-489q0 -118 -70.5 -179.5t-204.5 -61.5q-125 0 -210 44l17 67q81 -41 190 -41q188 0 188 168v89q-68 -87 -177 -87q-106 0 -171.5 68t-65.5 182q0 115 65.5 182.5t171.5 67.5q111 0 177 -87l7 77h83zM461 156v209q-63 75 -153 75q-78 0 -123 -49.5t-45 -130.5
t45 -130.5t123 -49.5q91 0 153 76z" />
    <glyph glyph-name="h" unicode="h" horiz-adv-x="589" 
d="M338 510q87 0 134 -48t47 -135v-327h-90v325q0 55 -32 85t-91 30q-81 0 -141 -72v-368h-90v717l90 13v-306q63 86 173 86z" />
    <glyph glyph-name="i" unicode="i" horiz-adv-x="240" 
d="M121 591l-69 67l69 66l67 -66zM165 0h-90v500h90v-500z" />
    <glyph glyph-name="j" unicode="j" horiz-adv-x="240" 
d="M121 591l-69 67l69 66l67 -66zM165 -79q0 -72 -36 -111.5t-105 -39.5q-55 0 -87 10l13 68q26 -8 57 -8q68 0 68 80v580h90v-579z" />
    <glyph glyph-name="k" unicode="k" horiz-adv-x="552" 
d="M446 0l-187 222h-94v-222h-90v717l90 13v-438h89l168 208h98l-188 -238l216 -262h-102z" />
    <glyph glyph-name="l" unicode="l" horiz-adv-x="240" 
d="M75 0v717l90 13v-730h-90z" />
    <glyph glyph-name="m" unicode="m" horiz-adv-x="935" 
d="M684 510q87 0 134 -48t47 -135v-327h-90v325q0 55 -32 85t-91 30q-81 0 -140 -72q3 -19 3 -41v-327h-90v325q0 55 -32 85t-91 30q-78 0 -137 -72v-368h-90v500h83l7 -76q63 86 169 86q130 0 167 -100q66 100 183 100z" />
    <glyph glyph-name="n" unicode="n" horiz-adv-x="589" 
d="M338 510q87 0 134 -48t47 -135v-327h-90v325q0 55 -32 85t-91 30q-81 0 -141 -72v-368h-90v500h83l7 -76q63 86 173 86z" />
    <glyph glyph-name="o" unicode="o" horiz-adv-x="633" 
d="M317 510q123 0 195.5 -74.5t72.5 -185.5t-72.5 -185.5t-195.5 -74.5q-125 0 -197 74.5t-72 185.5t72 185.5t197 74.5zM316 60q84 0 130.5 55.5t46.5 134.5q0 78 -46.5 134t-130.5 56t-130 -55.5t-46 -134.5q0 -80 45.5 -135t130.5 -55z" />
    <glyph glyph-name="p" unicode="p" horiz-adv-x="627" 
d="M342 -10q-109 0 -177 87v-294l-90 -13v730h83l7 -77q66 87 177 87q107 0 172 -71t65 -189t-65 -189t-172 -71zM319 440q-90 0 -154 -75v-229q64 -76 154 -76q79 0 123.5 52.5t44.5 137.5t-44.5 137.5t-123.5 52.5z" />
    <glyph glyph-name="q" unicode="q" horiz-adv-x="627" 
d="M285 -10q-107 0 -172 71t-65 189t65 189t172 71q111 0 177 -87l7 77h83v-717l-90 -13v307q-68 -87 -177 -87zM308 440q-80 0 -124 -52.5t-44 -137.5t44 -137.5t124 -52.5q91 0 153 76v229q-63 75 -153 75z" />
    <glyph glyph-name="r" unicode="r" horiz-adv-x="389" 
d="M367 420q-66 0 -119.5 -27.5t-82.5 -70.5v-322h-90v500h83l6 -114q28 56 80 90t114 34z" />
    <glyph glyph-name="s" unicode="s" horiz-adv-x="495" 
d="M143 370q0 -33 32 -51.5t77.5 -28t90.5 -22t77 -43t32 -81.5q0 -76 -54 -115t-153 -39q-121 0 -202 43l18 68q85 -43 182 -43q117 0 117 83q0 33 -31.5 52t-77 28.5t-91 22t-77 44t-31.5 82.5q0 70 53 105t143 35q121 0 202 -42l-17 -68q-83 42 -183 42q-107 0 -107 -72z
" />
    <glyph glyph-name="t" unicode="t" horiz-adv-x="390" 
d="M203 680v-180h177v-70h-177v-291q0 -79 93 -79q40 0 81 16l13 -66q-54 -20 -118 -20q-82 0 -120.5 39.5t-38.5 107.5v293h-82v70h82v163z" />
    <glyph glyph-name="u" unicode="u" horiz-adv-x="589" 
d="M423 500h90v-500h-82l-7 76q-65 -86 -173 -86q-87 0 -134 48t-47 135v324l90 13v-335q0 -55 32 -85t91 -30q80 0 140 72v368z" />
    <glyph glyph-name="v" unicode="v" horiz-adv-x="584" 
d="M294 111l164 389h99l-227 -509h-77l-227 509h99z" />
    <glyph glyph-name="w" unicode="w" horiz-adv-x="847" 
d="M379 500h83l138 -396l130 396h90l-174 -509h-88l-138 385l-132 -385h-87l-175 509h91l130 -396z" />
    <glyph glyph-name="x" unicode="x" horiz-adv-x="525" 
d="M407 0l-147 195l-147 -195h-100l197 261l-183 239h101l136 -179l133 179h97l-179 -238l197 -262h-105z" />
    <glyph glyph-name="y" unicode="y" horiz-adv-x="590" 
d="M468 500h95l-249 -546q-42 -94 -90.5 -139t-125.5 -45q-47 0 -78 12l13 67q34 -9 63 -9q42 0 72 25t61 89l23 49l-226 497h95l177 -392z" />
    <glyph glyph-name="z" unicode="z" horiz-adv-x="487" 
d="M434 500v-60l-288 -370h307v-70h-420v60l288 370h-276v70h389z" />
    <glyph glyph-name="braceleft" unicode="{" horiz-adv-x="343" 
d="M313 -143q-46 0 -81 7t-67 25t-49.5 54t-17.5 89q0 32 10 98t10 97q0 44 -21 62.5t-65 18.5v64q44 0 65 18.5t21 62.5q0 31 -10 97.5t-10 98.5q0 52 17.5 88t49.5 54t67 25t81 7v-65q-71 0 -97.5 -27t-26.5 -85q0 -28 9.5 -92.5t9.5 -92.5q0 -103 -101 -121
q101 -18 101 -121q0 -27 -9.5 -91.5t-9.5 -93.5q0 -58 26.5 -85t97.5 -27v-65z" />
    <glyph glyph-name="bar" unicode="|" horiz-adv-x="223" 
d="M79 -125v930h64v-930h-64z" />
    <glyph glyph-name="braceright" unicode="}" horiz-adv-x="343" 
d="M311 308q-44 0 -65.5 -18.5t-21.5 -62.5q0 -31 10 -97t10 -98q0 -42 -12 -74t-31 -51t-48 -30.5t-58.5 -15.5t-65.5 -4v65q72 0 98.5 27t26.5 85q0 29 -9.5 93.5t-9.5 91.5q0 102 100 121q-100 19 -100 121q0 28 9.5 92.5t9.5 92.5q0 58 -26.5 85t-98.5 27v65
q46 0 81.5 -7t67.5 -25t49 -54t17 -88q0 -32 -10 -98.5t-10 -97.5q0 -44 21.5 -62.5t65.5 -18.5v-64z" />
    <glyph glyph-name="asciitilde" unicode="~" horiz-adv-x="490" 
d="M426 383q0 -98 -76 -98q-23 0 -102.5 18t-94.5 18q-31 0 -31 -36h-55q0 98 76 98q21 0 101 -17.5t96 -17.5q31 0 31 35h55z" />
    <glyph glyph-name="exclamdown" unicode="&#xa1;" horiz-adv-x="238" 
d="M158 500v-104h-79v104h79zM148 320l17 -162v-338h-93v338l17 162h59z" />
    <glyph glyph-name="cent" unicode="&#xa2;" horiz-adv-x="536" 
d="M479 364q-72 76 -171 76q-76 0 -122.5 -50.5t-46.5 -139.5t46.5 -139.5t122.5 -50.5q99 0 171 76v-81q-61 -59 -157 -64v-116h-63v118q-100 11 -158 79.5t-58 177.5t58 177.5t158 79.5v123h63v-121q98 -5 157 -64v-81z" />
    <glyph glyph-name="sterling" unicode="&#xa3;" horiz-adv-x="654" 
d="M594 80v-80h-545v80h82v211h-82v72h82v132q0 97 66.5 146t170.5 49q118 0 222 -61v-84q-109 68 -207 68q-68 0 -113.5 -31t-45.5 -95v-124h266v-72h-266v-211h370z" />
    <glyph glyph-name="currency" unicode="&#xa4;" horiz-adv-x="744" 
d="M679 544q-100 69 -225 69q-88 0 -149 -46.5t-83 -129.5h228v-54h-241q-1 -14 -1 -43q0 -17 2 -47h240v-55h-226q23 -80 83 -125.5t147 -45.5q125 0 225 69v-85q-102 -61 -229 -61t-214.5 65.5t-114.5 182.5h-79v55h69q-3 23 -3 47q0 22 3 43h-69v54h77q27 119 115 186
t216 67q129 0 229 -61v-85z" />
    <glyph glyph-name="yen" unicode="&#xa5;" horiz-adv-x="672" 
d="M409 280h149v-72h-175v-208h-94v208h-176v72h150l-234 400h100l209 -358l204 358h101z" />
    <glyph glyph-name="brokenbar" unicode="&#xa6;" horiz-adv-x="226" 
d="M81 425v380h64v-380h-64zM81 -125v380h64v-380h-64z" />
    <glyph glyph-name="section" unicode="&#xa7;" horiz-adv-x="598" 
d="M524 630q-104 61 -231 61q-63 0 -114 -16.5t-86.5 -59t-35.5 -106.5q0 -62 36 -100t94.5 -57t120.5 -33.5t126 -43t100 -72.5q9 24 9 46q0 46 -29 77.5t-72.5 46t-94 28t-94 24.5t-72.5 34.5t-29 57.5q0 96 152 96q119 0 220 -68v85zM70 -139q107 -61 237 -61
q63 0 114 16.5t86.5 59t35.5 106.5q0 62 -38 101.5t-97.5 58.5t-123 34t-125.5 42.5t-93 69.5q-9 -22 -9 -46q0 -45 29 -76.5t72.5 -46t94 -28t94 -24.5t72.5 -34.5t29 -57.5q0 -97 -152 -97q-122 0 -226 68v-85z" />
    <glyph glyph-name="copyright" unicode="&#xa9;" horiz-adv-x="497" 
d="M248 280q-82 0 -141 59t-59 141q0 83 58.5 141.5t141.5 58.5t141.5 -58.5t58.5 -141.5t-58.5 -141.5t-141.5 -58.5zM248 295q76 0 130.5 54.5t54.5 130.5t-54.5 130.5t-130.5 54.5t-130.5 -54.5t-54.5 -130.5t54.5 -130.5t130.5 -54.5zM332 379q-37 -22 -80 -22
q-54 0 -86.5 33t-32.5 90t32.5 90t86.5 33q45 0 80 -22v-31q-40 24 -78 24q-40 0 -63 -25.5t-23 -68.5t24 -68t63 -25q45 0 77 24v-32z" />
    <glyph glyph-name="guillemotleft" unicode="&#xab;" horiz-adv-x="523" 
d="M273 444l-159 -194l159 -194h-64l-168 194l168 194h64zM473 444l-159 -194l159 -194h-64l-168 194l168 194h64z" />
    <glyph glyph-name="logicalnot" unicode="&#xac;" horiz-adv-x="575" 
d="M502 466v-273h-72v201h-369v72h441z" />
    <glyph glyph-name="uni00AD" unicode="&#xad;" horiz-adv-x="468" 
d="M63 254v72h341v-72h-341z" />
    <glyph glyph-name="registered" unicode="&#xae;" horiz-adv-x="497" 
d="M248 280q-82 0 -141 59t-59 141q0 83 58.5 141.5t141.5 58.5t141.5 -58.5t58.5 -141.5t-58.5 -141.5t-141.5 -58.5zM248 295q76 0 130.5 54.5t54.5 130.5t-54.5 130.5t-130.5 54.5t-130.5 -54.5t-54.5 -130.5t54.5 -130.5t130.5 -54.5zM312 361h39l-72 100q59 8 59 67
q0 71 -84 71h-89v-238h36v96h42zM200 486v84h50q52 0 52 -42q0 -44 -52 -42h-50z" />
    <glyph glyph-name="degree" unicode="&#xb0;" horiz-adv-x="282" 
d="M141 506q-38 0 -65 27t-27 65t27 65t65 27t65 -27t27 -65t-27 -65t-65 -27zM141 552q19 0 32.5 13.5t13.5 32.5t-13.5 33t-32.5 14t-33 -14t-14 -33t14 -32.5t33 -13.5z" />
    <glyph glyph-name="plusminus" unicode="&#xb1;" horiz-adv-x="596" 
d="M538 413v-72h-204v-158h-72v158h-205v72h204v157h72v-157h205zM57 143h481v-73h-481v73z" />
    <glyph glyph-name="paragraph" unicode="&#xb6;" horiz-adv-x="599" 
d="M280 262q-117 0 -180.5 55t-63.5 154t63.5 154t180.5 55h92v-680h-75v262h-17zM507 0h-72v680h72v-680z" />
    <glyph glyph-name="periodcentered" unicode="&#xb7;" horiz-adv-x="208" 
d="M149 199h-89v89h89v-89z" />
    <glyph glyph-name="guillemotright" unicode="&#xbb;" horiz-adv-x="523" 
d="M48 444h65l167 -194l-167 -194h-65l160 194zM248 444h65l167 -194l-167 -194h-65l160 194z" />
    <glyph glyph-name="questiondown" unicode="&#xbf;" horiz-adv-x="495" 
d="M258 500h80v-104h-80v104zM335 147q-205 0 -206 -136q0 -63 40 -93.5t104 -30.5q99 0 186 62v-84q-86 -55 -202 -55q-99 0 -161 48.5t-62 145.5q0 184 225 201l8 115h66z" />
    <glyph glyph-name="multiply" unicode="&#xd7;" horiz-adv-x="500" 
d="M304 329l167 168l-51 51l-167 -167l-168 167l-51 -51l168 -168l-168 -167l51 -51l168 167l167 -167l51 51z" />
    <glyph glyph-name="divide" unicode="&#xf7;" horiz-adv-x="569" 
d="M338 455h-80v104h80v-104zM65 294v72h441v-72h-441zM338 104h-80v104h80v-104z" />
    <glyph glyph-name="uni060C" unicode="&#x60c;" horiz-adv-x="197" 
d="M136 238l55 -5q-38 -98 -45 -213h-79q6 64 22 112.5t47 105.5z" />
    <glyph glyph-name="uni061B" unicode="&#x61b;" horiz-adv-x="269" 
d="M160 619l55 -5q-38 -98 -45 -213h-79q6 64 22 112.5t47 105.5zM159 0h-88v89h88v-89z" />
    <glyph glyph-name="uni061F" unicode="&#x61f;" horiz-adv-x="487" 
d="M235 726q120 0 241 -121l-56 -52q-100 94 -185 94q-53 0 -87.5 -29.5t-34.5 -78.5q0 -39 23 -64.5t84 -67.5q59 -41 85 -79t27 -99l-47 -28h-41v19q0 43 -22 72.5t-74 66.5q-61 42 -91.5 81t-30.5 101q0 83 59.5 134t149.5 51zM258 0v89h88v-89h-88z" />
    <glyph glyph-name="uni0621" unicode="&#x621;" horiz-adv-x="512" 
d="M217 90h268l-23 -90h-434v90h117q-47 78 -47 149q0 76 54 126.5t133 50.5q66 0 163 -37l-24 -73q-75 27 -125 27q-57 0 -90.5 -30.5t-35.5 -83.5q-3 -56 44 -129z" />
    <glyph glyph-name="uni0622" unicode="&#x622;" horiz-adv-x="257" 
d="M66 761q22 0 61 -18.5t63 -18.5q43 0 78 24l-1 -59q-37 -23 -77 -23q-25 0 -61.5 18.5t-55.5 18.5q-41 0 -47 -39h-49q2 44 25.5 70.5t63.5 26.5zM90 0v590l85 13v-603h-85z" />
    <glyph glyph-name="uni0623" unicode="&#x623;" horiz-adv-x="257" 
d="M124 713h130l-14 -57h-226v57h55q-16 26 -16 58q0 37 25.5 61.5t64.5 24.5q35 0 78 -19v-49q-35 15 -64 15q-22 0 -36 -12t-14 -32q0 -29 17 -47zM90 0v590l85 13v-603h-85z" />
    <glyph glyph-name="uni0624" unicode="&#x624;" horiz-adv-x="546" 
d="M397 637l-20 -67h-237v67h61q-20 31 -20 61q0 45 30 72.5t77 27.5q34 0 77 -20v-62q-41 15 -69 15q-26 0 -41.5 -12.5t-15.5 -34.5q0 -25 19 -47h139zM274 481q93 0 151 -61.5t58 -162.5v-234q0 -238 -373 -238l-10 73q151 0 225 40.5t74 128.5v2q-64 -29 -124 -29
q-104 0 -168 64.5t-64 173.5q0 107 65.5 175t165.5 68zM286 87q59 0 113 19v144q0 64 -37 104t-96 40q-62 0 -103 -42t-41 -110q0 -77 44 -117t120 -38z" />
    <glyph glyph-name="uni0625" unicode="&#x625;" horiz-adv-x="254" 
d="M172 730v-730h-85v717zM78 -196h129l-13 -57h-226v57h55q-16 26 -16 58q0 37 25.5 61.5t64.5 24.5q35 0 78 -19v-49q-35 15 -64 15q-22 0 -36 -12t-14 -32q0 -29 17 -47z" />
    <glyph glyph-name="uni0626" unicode="&#x626;" horiz-adv-x="956" 
d="M274 433l-20 -67h-237v67h61q-19 29 -19 62q0 44 29.5 71.5t76.5 27.5q37 0 77 -20v-61q-44 15 -68 15q-26 0 -41.5 -13t-15.5 -35q0 -23 19 -47h138zM838 476l58 -51v-422l-85 -13v396h-81q-61 0 -94.5 -31.5t-33.5 -92.5v-182q0 -146 -63.5 -220.5t-222.5 -74.5
q-126 0 -199.5 65.5t-73.5 193.5q0 107 44 241l69 -19q-35 -103 -35 -200q1 -94 53 -142.5t147 -48.5q109 0 153 48t44 166v188q0 92 51.5 145.5t148.5 53.5h120z" />
    <glyph glyph-name="uni0627" unicode="&#x627;" horiz-adv-x="254" 
d="M87 0v717l85 13v-730h-85z" />
    <glyph glyph-name="uni0628" unicode="&#x628;" horiz-adv-x="831" 
d="M680 483l85 14v-305q0 -92 -53.5 -142t-157.5 -50h-267q-119 0 -181.5 55t-62.5 162q0 73 21 171l75 -10q-16 -89 -16 -137q0 -151 184 -151h247q126 0 126 125v268zM355 -150l72 73l75 -73l-73 -72z" />
    <glyph glyph-name="uni0629" unicode="&#x629;" horiz-adv-x="524" 
d="M183 573l-73 72l73 72l73 -72zM342 573l-74 72l74 72l73 -72zM263 -9q-101 0 -165.5 69t-64.5 171q0 104 65 177t165 73q99 0 163.5 -73.5t64.5 -176.5q0 -102 -64.5 -171t-163.5 -69zM263 82q63 0 103.5 43t40.5 107q0 66 -41 112.5t-103 46.5q-63 0 -104.5 -46.5
t-41.5 -112.5q0 -64 41 -107t105 -43z" />
    <glyph glyph-name="uni062A" unicode="&#x62a;" horiz-adv-x="831" 
d="M399 531l-73 -72l-73 72l73 72zM558 531l-73 -72l-74 72l74 72zM680 483l85 14v-305q0 -92 -53.5 -142t-157.5 -50h-267q-119 0 -181.5 55t-62.5 162q0 73 21 171l75 -10q-16 -89 -16 -137q0 -151 184 -151h247q126 0 126 125v268z" />
    <glyph glyph-name="uni062B" unicode="&#x62b;" horiz-adv-x="831" 
d="M452 655l-52 -52l-53 52l52 53zM389 533l-72 -73l-74 73l73 72zM482 460l-74 73l74 72l73 -72zM680 483l85 14v-305q0 -92 -53.5 -142t-157.5 -50h-267q-119 0 -181.5 55t-62.5 162q0 73 21 171l75 -10q-16 -89 -16 -137q0 -151 184 -151h247q126 0 126 125v268z" />
    <glyph glyph-name="uni062C" unicode="&#x62c;" horiz-adv-x="625" 
d="M332 -188q74 0 208 37l23 -73q-141 -51 -249 -51q-126 0 -199 61.5t-73 174.5q0 124 109 202.5t333 98.5q-111 108 -174 147.5t-121 39.5q-31 0 -97 -16l-18 76q75 28 127 28q70 0 148 -51t236 -201l-35 -95q-202 -1 -314 -62t-112 -159q0 -75 54.5 -116t153.5 -41z
M363 -58l-74 72l72 73l75 -73z" />
    <glyph glyph-name="uni062D" unicode="&#x62d;" horiz-adv-x="625" 
d="M332 -188q74 0 208 37l23 -73q-141 -51 -249 -51q-126 0 -199 61.5t-73 174.5q0 124 109 202.5t333 98.5q-111 108 -174 147.5t-121 39.5q-31 0 -97 -16l-18 76q75 28 127 28q70 0 148 -51t236 -201l-35 -95q-202 -1 -314 -62t-112 -159q0 -75 54.5 -116t153.5 -41z" />
    <glyph glyph-name="uni062E" unicode="&#x62e;" horiz-adv-x="625" 
d="M496 637l-73 -73l-74 73l72 72zM332 -188q74 0 208 37l23 -73q-141 -51 -249 -51q-126 0 -199 61.5t-73 174.5q0 124 109 202.5t333 98.5q-111 108 -174 147.5t-121 39.5q-31 0 -97 -16l-18 76q75 28 127 28q70 0 148 -51t236 -201l-35 -95q-202 -1 -314 -62t-112 -159
q0 -75 54.5 -116t153.5 -41z" />
    <glyph glyph-name="uni062F" unicode="&#x62f;" horiz-adv-x="516" 
d="M27 0l-17 90h252q61 0 93.5 30t32.5 85l-1 58q-1 61 -43.5 99t-108.5 38h-59v88h77q96 0 157 -59t62 -155l1 -82q-1 -92 -54.5 -142t-157.5 -50h-234z" />
    <glyph glyph-name="uni0630" unicode="&#x630;" horiz-adv-x="516" 
d="M239 583l-74 73l72 72l75 -72zM27 0l-17 90h252q61 0 93.5 30t32.5 85l-1 58q-1 61 -43.5 99t-108.5 38h-59v88h77q96 0 157 -59t62 -155l1 -82q-1 -92 -54.5 -142t-157.5 -50h-234z" />
    <glyph glyph-name="uni0631" unicode="&#x631;" horiz-adv-x="299" 
d="M-22 -215l-8 73q180 0 180 172l-1 453l85 14v-470q0 -125 -64 -183.5t-192 -58.5z" />
    <glyph glyph-name="uni0632" unicode="&#x632;" horiz-adv-x="299" 
d="M194 573l-74 73l72 72l75 -72zM-22 -215l-8 73q180 0 180 172l-1 453l85 14v-470q0 -125 -64 -183.5t-192 -58.5z" />
    <glyph glyph-name="uni0633" unicode="&#x633;" horiz-adv-x="1309" 
d="M1166 483l85 14v-305q0 -92 -50.5 -142t-148.5 -50q-79 0 -166 53q-53 -53 -152 -53q-64 0 -134 42q-13 -120 -83 -188.5t-201 -68.5q-126 0 -199.5 65.5t-73.5 193.5q0 107 44 241l69 -19q-35 -103 -35 -200q1 -94 53 -142.5t147 -48.5q100 0 148.5 56.5t48.5 174.5v377
l84 14v-372q67 -35 125 -35q126 0 126 125v162l85 13v-198q0 -40 -13 -77q62 -25 116 -25q61 0 93 31.5t32 93.5v268z" />
    <glyph glyph-name="uni0634" unicode="&#x634;" horiz-adv-x="1309" 
d="M945 729l-52 -52l-53 52l52 53zM882 607l-72 -73l-74 73l73 72zM975 534l-74 73l74 72l73 -72zM1166 483l85 14v-305q0 -92 -50.5 -142t-148.5 -50q-79 0 -166 53q-53 -53 -152 -53q-64 0 -134 42q-13 -120 -83 -188.5t-201 -68.5q-126 0 -199.5 65.5t-73.5 193.5
q0 107 44 241l69 -19q-35 -103 -35 -200q1 -94 53 -142.5t147 -48.5q100 0 148.5 56.5t48.5 174.5v377l84 14v-372q67 -35 125 -35q126 0 126 125v162l85 13v-198q0 -40 -13 -77q62 -25 116 -25q61 0 93 31.5t32 93.5v268z" />
    <glyph glyph-name="uni0635" unicode="&#x635;" horiz-adv-x="1252" 
d="M990 493q95 0 156.5 -60t61.5 -153q0 -46 -7.5 -83.5t-28.5 -119.5l-67 -77h-512q-20 -102 -88.5 -158.5t-188.5 -56.5q-126 0 -199.5 65.5t-73.5 193.5q0 107 44 241l69 -19q-35 -103 -35 -200q1 -94 53 -142.5t147 -48.5q100 0 148.5 56.5t48.5 174.5v377l84 14v-119
q154 66 233.5 90.5t154.5 24.5zM1090 90q33 113 33 178q-1 60 -43.5 98.5t-107.5 38.5q-60 0 -116 -15.5t-201 -67.5q-11 -4 -17.5 -6.5t-16.5 -6t-19 -6.5v-206v-7h488z" />
    <glyph glyph-name="uni0636" unicode="&#x636;" horiz-adv-x="1252" 
d="M875 657l-73 -73l-74 73l72 72zM990 493q95 0 156.5 -60t61.5 -153q0 -46 -7.5 -83.5t-28.5 -119.5l-67 -77h-512q-20 -102 -88.5 -158.5t-188.5 -56.5q-126 0 -199.5 65.5t-73.5 193.5q0 107 44 241l69 -19q-35 -103 -35 -200q1 -94 53 -142.5t147 -48.5
q100 0 148.5 56.5t48.5 174.5v377l84 14v-119q154 66 233.5 90.5t154.5 24.5zM1090 90q33 113 33 178q-1 60 -43.5 98.5t-107.5 38.5q-60 0 -116 -15.5t-201 -67.5q-11 -4 -17.5 -6.5t-16.5 -6t-19 -6.5v-206v-7h488z" />
    <glyph glyph-name="uni0637" unicode="&#x637;" horiz-adv-x="899" 
d="M637 493q95 0 156.5 -60t61.5 -153q0 -46 -7.5 -83.5t-28.5 -119.5l-67 -77h-548h-42h-129l-16 90h145v627l85 13v-353q154 66 234.5 91t155.5 25zM737 90q33 112 33 178q-1 60 -43.5 98.5t-107.5 38.5q-67 0 -130.5 -18.5t-241.5 -84.5v-212h490z" />
    <glyph glyph-name="uni0638" unicode="&#x638;" horiz-adv-x="899" 
d="M637 493q95 0 156.5 -60t61.5 -153q0 -46 -7.5 -83.5t-28.5 -119.5l-67 -77h-548h-42h-129l-16 90h145v627l85 13v-353q154 66 234.5 91t155.5 25zM542 657l-73 -73l-74 73l72 72zM737 90q33 112 33 178q-1 60 -43.5 98.5t-107.5 38.5q-67 0 -130.5 -18.5t-241.5 -84.5
v-212h490z" />
    <glyph glyph-name="uni0639" unicode="&#x639;" horiz-adv-x="600" 
d="M554 -151l23 -73q-140 -51 -254 -51q-124 0 -195.5 52.5t-71.5 151.5q0 128 137 202q-94 94 -94 199q0 93 63 151t160 58q62 0 178 -39l-24 -73q-92 27 -140 27q-67 0 -112 -37.5t-45 -99.5q0 -82 82 -156q24 8 36 11l213 66l3 -82l-192 -56q-184 -53 -184 -161
q0 -127 197 -127q99 0 220 37z" />
    <glyph glyph-name="uni063A" unicode="&#x63a;" horiz-adv-x="600" 
d="M386 689l-73 -73l-74 73l72 72zM554 -151l23 -73q-140 -51 -254 -51q-124 0 -195.5 52.5t-71.5 151.5q0 128 137 202q-94 94 -94 199q0 93 63 151t160 58q62 0 178 -39l-24 -73q-92 27 -140 27q-67 0 -112 -37.5t-45 -99.5q0 -82 82 -156q24 8 36 11l213 66l3 -82
l-192 -56q-184 -53 -184 -161q0 -127 197 -127q99 0 220 37z" />
    <glyph glyph-name="uni0640" unicode="&#x640;" horiz-adv-x="194" 
d="M194 90q10 0 10 -9v-71q0 -10 -10 -10h-194q-10 0 -10 10v71q0 9 10 9h194z" />
    <glyph glyph-name="uni0641" unicode="&#x641;" horiz-adv-x="950" 
d="M751 642l-73 -73l-74 73l72 72zM689 485q96 0 161 -65.5t65 -163.5q0 -120 -74.5 -188t-205.5 -68h-219h-129q-119 0 -181.5 55t-62.5 162q0 68 22 171l74 -10q-16 -89 -16 -137q0 -151 184 -151h195q-45 94 -45 162q0 101 65.5 167t166.5 66zM642 90q86 0 137 43t51 120
q0 64 -41.5 105.5t-104.5 41.5q-60 0 -102 -44.5t-42 -104.5q0 -72 50 -161h52z" />
    <glyph glyph-name="uni0642" unicode="&#x642;" horiz-adv-x="769" 
d="M489 641l-73 -72l-73 72l73 72zM648 641l-73 -72l-74 72l74 72zM500 475q93 -2 151 -63.5t58 -161.5v-200q0 -129 -90 -197t-270 -68q-138 0 -222 67t-84 192q0 107 44 241l69 -19q-35 -103 -35 -200q1 -99 66 -149.5t182 -50.5q113 0 183 45t77 123q-70 -34 -134 -34
q-98 0 -159.5 62.5t-61.5 167.5q0 109 63.5 177.5t162.5 67.5zM353 234q0 -71 41.5 -109t111.5 -38q62 0 119 22v134q0 64 -36.5 103.5t-96.5 40.5q-62 2 -100.5 -40t-38.5 -113z" />
    <glyph glyph-name="uni0643" unicode="&#x643;" horiz-adv-x="852" 
d="M682 717l84 13v-530q0 -200 -211 -200h-1h-267q-119 0 -181.5 55t-62.5 162q0 73 21 171l75 -10q-16 -89 -16 -137q0 -151 184 -151h247h1h1q125 0 125 130zM541 423l-20 -67h-237v67h61q-19 29 -19 61q0 45 29.5 72.5t76.5 27.5q34 0 77 -20v-62q-40 15 -68 15
q-26 0 -41.5 -12.5t-15.5 -34.5q0 -25 19 -47h138z" />
    <glyph glyph-name="uni0644" unicode="&#x644;" horiz-adv-x="675" 
d="M603 733v-603h-1v-33q0 -145 -70 -228.5t-216 -83.5q-126 0 -199.5 65.5t-73.5 193.5q0 107 44 241l69 -19q-35 -103 -35 -200q1 -94 53 -142.5t147 -48.5q100 0 148.5 56.5t48.5 174.5v377v237z" />
    <glyph glyph-name="uni0645" unicode="&#x645;" horiz-adv-x="677" 
d="M415 481q99 0 164 -73.5t65 -176.5q0 -102 -64.5 -171t-164.5 -69q-84 0 -144 50t-78 130q-72 -15 -72 -107v-321l-84 -13l-1 345q0 167 152 186q9 94 72 157t155 63zM415 82q63 0 103.5 43t40.5 107q0 66 -40.5 112.5t-103.5 46.5t-104 -46.5t-41 -112.5q0 -64 41 -107
t104 -43z" />
    <glyph glyph-name="uni0646" unicode="&#x646;" horiz-adv-x="675" 
d="M322 410l-74 73l72 72l75 -72zM316 -215q-126 0 -199.5 65.5t-73.5 193.5q0 107 44 241l69 -19q-35 -103 -35 -200q1 -94 53 -142.5t147 -48.5q100 0 148.5 56.5t48.5 174.5v377l84 14v-400q0 -145 -70 -228.5t-216 -83.5z" />
    <glyph glyph-name="uni0647" unicode="&#x647;" horiz-adv-x="524" 
d="M263 -9q-101 0 -165.5 69t-64.5 171q0 104 65 177t165 73q99 0 163.5 -73.5t64.5 -176.5q0 -102 -64.5 -171t-163.5 -69zM263 82q63 0 103.5 43t40.5 107q0 66 -41 112.5t-103 46.5q-63 0 -104.5 -46.5t-41.5 -112.5q0 -64 41 -107t105 -43z" />
    <glyph glyph-name="uni0648" unicode="&#x648;" horiz-adv-x="546" 
d="M274 481q93 0 151 -61.5t58 -162.5v-234q0 -238 -373 -238l-10 73q151 0 225 40.5t74 128.5v2q-64 -29 -124 -29q-104 0 -168 64.5t-64 173.5q0 107 65.5 175t165.5 68zM286 87q59 0 113 19v144q0 64 -37 104t-96 40q-62 0 -103 -42t-41 -110q0 -77 44 -117t120 -38z" />
    <glyph glyph-name="uni0649" unicode="&#x649;" horiz-adv-x="956" 
d="M838 476l58 -51v-422l-85 -13v396h-81q-61 0 -94.5 -31.5t-33.5 -92.5v-182q0 -146 -63.5 -220.5t-222.5 -74.5q-126 0 -199.5 65.5t-73.5 193.5q0 107 44 241l69 -19q-35 -103 -35 -200q1 -94 53 -142.5t147 -48.5q109 0 153 48t44 166v188q0 92 51.5 145.5t148.5 53.5
h120z" />
    <glyph glyph-name="uni064A" unicode="&#x64a;" horiz-adv-x="956" 
d="M838 476l58 -51v-422l-85 -13v396h-81q-61 0 -94.5 -31.5t-33.5 -92.5v-182q0 -146 -63.5 -220.5t-222.5 -74.5q-126 0 -199.5 65.5t-73.5 193.5q0 107 44 241l69 -19q-35 -103 -35 -200q1 -94 53 -142.5t147 -48.5q109 0 153 48t44 166v188q0 92 51.5 145.5t148.5 53.5
h120zM188 -347l73 72l73 -72l-73 -72zM346 -347l74 72l73 -72l-73 -72z" />
    <glyph glyph-name="uni064B" unicode="&#x64b;" 
d="M125 747l10 -44l-251 -52l-10 43zM143 654l8 -43l-250 -53l-9 43z" />
    <glyph glyph-name="uni064C" unicode="&#x64c;" 
d="M70 792q39 0 66 -28t27 -68q0 -86 -96 -106l-195 -37l-27 41q42 24 42 58q0 19 -15 32.5t-43 16.5l9 41q47 -4 72.5 -27.5t25.5 -56.5q0 -25 -17 -51l76 17q-24 30 -24 64q-1 46 27 75t72 29zM57 637q60 12 60 57q0 22 -14.5 36t-36.5 14q-21 0 -35.5 -15.5t-14.5 -39.5
q0 -28 24 -56z" />
    <glyph glyph-name="uni064D" unicode="&#x64d;" 
d="M125 -45l10 -44l-251 -52l-10 43zM143 -138l8 -43l-250 -53l-9 43z" />
    <glyph glyph-name="uni064E" unicode="&#x64e;" 
d="M138 699l10 -48l-255 -54l-9 47z" />
    <glyph glyph-name="uni064F" unicode="&#x64f;" 
d="M65 792q39 0 66.5 -28.5t27.5 -67.5q0 -88 -98 -106l-191 -36l-8 45l127 25q-23 33 -23 67q0 45 27.5 73t71.5 28zM52 637q59 11 59 56q0 23 -14 37t-36 14q-21 0 -35.5 -15.5t-14.5 -39.5q0 -28 24 -56z" />
    <glyph glyph-name="uni0650" unicode="&#x650;" 
d="M138 -71l10 -48l-255 -54l-9 47z" />
    <glyph glyph-name="uni0651" unicode="&#x651;" 
d="M135 729q19 -57 19 -93q0 -38 -21.5 -59.5t-56.5 -21.5q-39 0 -62 34q-8 -27 -28 -43t-48 -16q-67 0 -81 84l-9 57l46 7l9 -51q9 -50 40 -50q18 0 28.5 12.5t10.5 35.5q0 6 -2 20l-9 46l45 9l9 -46q5 -26 18 -39t30 -12q34 2 34 38q0 26 -17 71z" />
    <glyph glyph-name="uni0652" unicode="&#x652;" 
d="M8 751q44 0 70 -29t26 -77q0 -49 -29 -77t-75 -28q-45 0 -70 27t-25 77q0 51 28 79t75 28zM3 704q-19 0 -35 -15t-16 -43q0 -59 53 -59q22 0 37 14.5t15 42.5q0 29 -15.5 44.5t-38.5 15.5z" />
    <glyph glyph-name="uni0653" unicode="&#x653;" 
d="M-51 722q22 0 61 -18.5t63 -18.5q43 0 78 24l-1 -59q-37 -23 -77 -23q-25 0 -61.5 18.5t-55.5 18.5q-41 0 -47 -39h-49q2 44 25.5 70.5t63.5 26.5z" />
    <glyph glyph-name="uni0654" unicode="&#x654;" 
d="M1 699h130l-13 -57h-226v57h54q-16 26 -16 58q0 37 25.5 61.5t65.5 24.5q34 0 77 -19v-49q-35 15 -64 15q-22 0 -36 -12.5t-14 -31.5q0 -27 17 -47z" />
    <glyph glyph-name="uni0655" unicode="&#x655;" 
d="M-12 -183h129l-13 -57h-226v57h55q-16 26 -16 58q0 37 25.5 61.5t64.5 24.5q35 0 78 -19v-49q-35 15 -64 15q-22 0 -36 -12t-14 -32q0 -29 17 -47z" />
    <glyph glyph-name="uni0656" unicode="&#x656;" 
d="M34 -234l-59 20v72q0 51 -12 90h57q14 -39 14 -90v-92z" />
    <glyph glyph-name="uni0660" unicode="&#x660;" horiz-adv-x="253" 
d="M125 372l73 -73l-72 -71l-73 71z" />
    <glyph glyph-name="uni0661" unicode="&#x661;" horiz-adv-x="275" 
d="M162 680l35 -680h-86l-35 665z" />
    <glyph glyph-name="uni0662" unicode="&#x662;" horiz-adv-x="461" 
d="M484 680l-23 -90h-298l30 -590h-85l-32 610l82 70v-1l1 1h325z" />
    <glyph glyph-name="uni0663" unicode="&#x663;" horiz-adv-x="619" 
d="M575 582q4 -98 -31 -147.5t-105 -49.5q-56 0 -106 39q-33 -39 -90 -39q-33 0 -67 18l21 -403h-86l-35 665l86 15l10 -194q27 -19 59 -19q78 0 74 115l-5 83l66 15l5 -98q3 -56 -7 -93q33 -22 64 -22q79 0 73 115l-5 83l73 15z" />
    <glyph glyph-name="uni0664" unicode="&#x664;" horiz-adv-x="495" 
d="M270 74q94 0 195 26l-11 -84q-102 -29 -189 -29q-106 0 -164 42t-58 120q0 127 149 194q-62 16 -97.5 58t-35.5 106q0 78 56 130.5t141 52.5q62 0 177 -42l-24 -73q-91 30 -138 30q-61 0 -97.5 -30.5t-36.5 -81.5q0 -57 57 -87.5t135 -19.5h-1l78 20l17 -68l-176 -47
q-58 -14 -91 -48.5t-33 -78.5q0 -43 37.5 -66.5t109.5 -23.5z" />
    <glyph glyph-name="uni0665" unicode="&#x665;" horiz-adv-x="593" 
d="M296 680q98 0 174 -118.5t76 -307.5q0 -125 -66 -196t-183 -71q-115 0 -183 71t-68 195q0 112 31.5 209.5t89.5 157.5t129 60zM292 593q-69 0 -118.5 -99t-49.5 -229q0 -96 46 -143.5t128 -47.5t126.5 48.5t44.5 142.5q0 135 -49.5 231.5t-127.5 96.5z" />
    <glyph glyph-name="uni0666" unicode="&#x666;" horiz-adv-x="434" 
d="M274 680l82 -72l-31 -608h-86l31 590h-297l22 90h279z" />
    <glyph glyph-name="uni0667" unicode="&#x667;" horiz-adv-x="540" 
d="M456 680h97l-236 -685l-81 -9l-249 694h98l190 -575z" />
    <glyph glyph-name="uni0668" unicode="&#x668;" horiz-adv-x="540" 
d="M553 0h-98l-190 575l-181 -575h-97l236 685l81 9z" />
    <glyph glyph-name="uni0669" unicode="&#x669;" horiz-adv-x="542" 
d="M383 691l82 -73l-32 -618h-85l13 256q-60 -23 -117 -23q-98 0 -158 58t-60 156q0 108 68 175.5t173 67.5zM254 321q60 0 111 19l13 260h-117q-69 0 -112.5 -44t-43.5 -108q0 -59 39.5 -93t109.5 -34z" />
    <glyph glyph-name="uni066A" unicode="&#x66a;" horiz-adv-x="520" 
d="M174 0h-80l352 680h79zM132 530l-74 73l73 72l74 -72zM394 43l-74 72l73 73l74 -73z" />
    <glyph glyph-name="uni066B" unicode="&#x66b;" horiz-adv-x="240" 
d="M55 -130l-55 5q37 98 45 214h79q-10 -110 -69 -219z" />
    <glyph glyph-name="uni066C" unicode="&#x66c;" horiz-adv-x="240" 
d="M61 -130l-55 5q39 102 45 214h80q-10 -111 -70 -219z" />
    <glyph glyph-name="uni066D" unicode="&#x66d;" horiz-adv-x="360" 
d="M235 230l91 -52l-25 -45l-92 53v-106h-50v106l-93 -53l-25 45l92 52l-92 53l25 45l93 -54v106h50v-106l92 54l25 -45z" />
    <glyph glyph-name="uni066E" unicode="&#x66e;" horiz-adv-x="831" 
d="M680 483l85 14v-305q0 -92 -53.5 -142t-157.5 -50h-267q-119 0 -181.5 55t-62.5 162q0 73 21 171l75 -10q-16 -89 -16 -137q0 -151 184 -151h247q126 0 126 125v268z" />
    <glyph glyph-name="uni066F" unicode="&#x66f;" horiz-adv-x="769" 
d="M500 475q93 -2 151 -63.5t58 -161.5v-200q0 -129 -90 -197t-270 -68q-138 0 -222 67t-84 192q0 107 44 241l69 -19q-35 -103 -35 -200q1 -99 66 -149.5t182 -50.5q113 0 183 45t77 123q-70 -34 -134 -34q-98 0 -159.5 62.5t-61.5 167.5q0 109 63.5 177.5t162.5 67.5z
M353 234q0 -71 41.5 -109t111.5 -38q62 0 119 22v134q0 64 -36.5 103.5t-96.5 40.5q-62 2 -100.5 -40t-38.5 -113z" />
    <glyph glyph-name="uni0670" unicode="&#x670;" 
d="M-36 782l59 -20v-72q0 -51 12 -90h-57q-14 39 -14 90v92z" />
    <glyph glyph-name="uni06A1" unicode="&#x6a1;" horiz-adv-x="950" 
d="M689 485q97 0 161.5 -65.5t64.5 -163.5q0 -120 -74 -188t-205 -68h-220h-129q-119 0 -181.5 55t-62.5 162q0 73 21 171l75 -10q-16 -89 -16 -137q0 -151 184 -151h195q-45 98 -45 162q0 101 65.5 167t166.5 66zM643 90q86 0 136.5 43t50.5 120q0 64 -41.5 105.5
t-104.5 41.5q-60 0 -102 -44.5t-42 -104.5q0 -70 50 -161h53z" />
    <glyph glyph-name="uni06A4" unicode="&#x6a4;" horiz-adv-x="950" 
d="M739 767l-52 -52l-53 52l52 53zM676 645l-72 -73l-74 73l73 72zM769 572l-74 73l74 72l73 -72zM689 485q96 0 161 -65.5t65 -163.5q0 -120 -74.5 -188t-205.5 -68h-219h-129q-119 0 -181.5 55t-62.5 162q0 68 22 171l74 -10q-16 -89 -16 -137q0 -151 184 -151h195
q-45 94 -45 162q0 101 65.5 167t166.5 66zM642 90q86 0 137 43t51 120q0 64 -41.5 105.5t-104.5 41.5q-60 0 -102 -44.5t-42 -104.5q0 -72 50 -161h52z" />
    <glyph glyph-name="uni06BA" unicode="&#x6ba;" horiz-adv-x="675" 
d="M316 -215q-126 0 -199.5 65.5t-73.5 193.5q0 107 44 241l69 -19q-35 -103 -35 -200q1 -94 53 -142.5t147 -48.5q100 0 148.5 56.5t48.5 174.5v377l84 14v-400q0 -145 -70 -228.5t-216 -83.5z" />
    <glyph glyph-name="endash" unicode="&#x2013;" horiz-adv-x="668" 
d="M63 254v72h541v-72h-541z" />
    <glyph glyph-name="emdash" unicode="&#x2014;" horiz-adv-x="968" 
d="M63 254v72h841v-72h-841z" />
    <glyph glyph-name="quoteleft" unicode="&#x2018;" horiz-adv-x="225" 
d="M119 684l55 -5q-39 -102 -45 -214h-79q10 110 69 219z" />
    <glyph glyph-name="quoteright" unicode="&#x2019;" horiz-adv-x="226" 
d="M105 465l-54 5q38 98 45 214h79q-10 -111 -70 -219z" />
    <glyph glyph-name="quotesinglbase" unicode="&#x201a;" horiz-adv-x="181" 
d="M61 -130l-55 5q39 102 45 214h80q-10 -111 -70 -219z" />
    <glyph glyph-name="quotedblleft" unicode="&#x201c;" horiz-adv-x="360" 
d="M119 684l55 -5q-39 -102 -45 -214h-79q10 110 69 219zM255 684l55 -5q-39 -102 -45 -214h-79q10 110 69 219z" />
    <glyph glyph-name="quotedblright" unicode="&#x201d;" horiz-adv-x="362" 
d="M105 465l-54 5q38 98 45 214h79q-10 -111 -70 -219zM241 465l-54 5q38 98 45 214h79q-10 -111 -70 -219z" />
    <glyph glyph-name="quotedblbase" unicode="&#x201e;" horiz-adv-x="316" 
d="M61 -130l-55 5q39 102 45 214h80q-10 -111 -70 -219zM197 -130l-55 5q37 98 45 214h79q-10 -110 -69 -219z" />
    <glyph glyph-name="dagger" unicode="&#x2020;" horiz-adv-x="630" 
d="M580 423l-232 11l10 -634h-85l10 634l-233 -11v78l233 -11l-10 190h85l-10 -190l232 11v-78z" />
    <glyph glyph-name="daggerdbl" unicode="&#x2021;" horiz-adv-x="630" 
d="M348 423l10 -147l-10 -147h232v-77l-232 10l10 -262h-85l10 262l-233 -11v78h233l-10 147l10 147h-233v78l233 -11l-10 190h85l-10 -190l232 11v-78h-232z" />
    <glyph glyph-name="bullet" unicode="&#x2022;" horiz-adv-x="307" 
d="M218 184h-129v122h129v-122z" />
    <glyph glyph-name="ellipsis" unicode="&#x2026;" horiz-adv-x="544" 
d="M142 0h-76v104h76v-104zM310 0h-76v104h76v-104zM478 0h-76v104h76v-104z" />
    <glyph glyph-name="perthousand" unicode="&#x2030;" horiz-adv-x="1170" 
d="M193 322q-75 0 -115 51.5t-40 132.5t40 132.5t115 51.5q74 0 114 -51.5t40 -132.5t-40 -132.5t-114 -51.5zM445 370h-54l166 310h73zM192 644q-49 0 -74.5 -37.5t-25.5 -100.5t25.5 -100.5t74.5 -37.5q50 0 75 37.5t25 100.5t-25 100.5t-75 37.5zM610 -8
q-75 0 -114.5 51.5t-39.5 132.5t39.5 132.5t114.5 51.5t115 -51.5t40 -132.5t-40 -132.5t-115 -51.5zM980 -8q-75 0 -115 51.5t-40 132.5t40 132.5t115 51.5q74 0 114 -51.5t40 -132.5t-40 -132.5t-114 -51.5zM610 314q-49 0 -74.5 -37.5t-25.5 -100.5t25.5 -100.5
t74.5 -37.5q50 0 75 37.5t25 100.5t-25 100.5t-75 37.5zM979 314q-49 0 -74.5 -37.5t-25.5 -100.5t25.5 -100.5t74.5 -37.5q50 0 75 37.5t25 100.5t-25 100.5t-75 37.5zM351 310h55l-166 -310h-73z" />
    <glyph glyph-name="guilsinglleft" unicode="&#x2039;" horiz-adv-x="323" 
d="M273 444l-159 -194l159 -194h-64l-168 194l168 194h64z" />
    <glyph glyph-name="guilsinglright" unicode="&#x203a;" horiz-adv-x="323" 
d="M48 444h65l167 -194l-167 -194h-65l160 194z" />
    <glyph glyph-name="fraction" unicode="&#x2044;" horiz-adv-x="463" 
d="M389 680h74l-390 -680h-73z" />
    <glyph glyph-name="Euro" unicode="&#x20ac;" horiz-adv-x="744" 
d="M679 544q-100 69 -225 69q-88 0 -149 -46.5t-83 -129.5h228v-54h-241q-1 -14 -1 -43q0 -17 2 -47h240v-55h-226q23 -80 83 -125.5t147 -45.5q125 0 225 69v-85q-102 -61 -229 -61t-214.5 65.5t-114.5 182.5h-79v55h69q-3 23 -3 47q0 22 3 43h-69v54h77q27 119 115 186
t216 67q129 0 229 -61v-85z" />
    <glyph glyph-name="trademark" unicode="&#x2122;" horiz-adv-x="716" 
d="M499 379h-27l-91 226v-226h-45v302h58l93 -228l93 228h58v-302h-47v226zM151 379v260h-91v42h229v-42h-91v-260h-47z" />
    <glyph glyph-name="partialdiff" unicode="&#x2202;" horiz-adv-x="622" 
d="M81 635q52 31 96 43t101 12q76 0 134 -30.5t91 -83.5t49 -115t16 -133q0 -155 -67.5 -246.5t-197.5 -91.5q-121 0 -189 68t-68 163q0 86 60 145t158 59q137 0 212 -97q0 285 -209 285q-49 0 -89.5 -14t-96.5 -48v84zM471 262q-25 41 -73 69t-105 28q-69 0 -110.5 -39
t-41.5 -104q0 -63 44.5 -106t111.5 -43q83 0 127 58t47 137z" />
    <glyph glyph-name="emptyset" unicode="&#x2205;" horiz-adv-x="594" 
d="M460 456q87 -71 87 -206q0 -112 -66 -186t-184 -74q-67 0 -119 27l-43 -67h-61l59 94q-87 73 -87 206q0 112 66 186t185 74q66 0 118 -27l44 67h61zM381 426q-35 22 -84 22q-81 0 -121 -58.5t-40 -139.5q0 -79 43 -132zM214 75q34 -23 83 -23q81 0 121 58t40 140
q0 80 -44 131z" />
    <glyph glyph-name="product" unicode="&#x220f;" horiz-adv-x="721" 
d="M182 601v-601h-93v680h543v-680h-94v601h-356z" />
    <glyph glyph-name="summation" unicode="&#x2211;" horiz-adv-x="594" 
d="M49 680h487v-79h-377l191 -261l-191 -260h377v-80h-487v78l193 262l-193 262v78z" />
    <glyph glyph-name="minus" unicode="&#x2212;" horiz-adv-x="579" 
d="M69 294v72h441v-72h-441z" />
    <glyph glyph-name="radical" unicode="&#x221a;" horiz-adv-x="770" 
d="M763 680l-267 -685h-108l-114 299h-231v72h300l102 -274l218 588h100z" />
    <glyph glyph-name="infinity" unicode="&#x221e;" horiz-adv-x="787" 
d="M551 572q83 0 129.5 -66t46.5 -163q0 -105 -46 -171t-133 -66q-59 0 -98 37.5t-57 98.5q-19 -62 -57.5 -99t-98.5 -37q-87 0 -133 66t-46 171q0 97 47 163t130 66q54 0 95.5 -37t62.5 -97q20 59 62 96.5t96 37.5zM244 195q49 0 80 42t40 115q-13 58 -45 94.5t-77 36.5
q-47 0 -77.5 -37t-30.5 -106t31.5 -107t78.5 -38zM542 195q47 0 78.5 38t31.5 107t-30 106t-77 37q-46 0 -78 -36.5t-45 -94.5q9 -73 40 -115t80 -42z" />
    <glyph glyph-name="integral" unicode="&#x222b;" horiz-adv-x="378" 
d="M144 546q0 144 138 144q40 0 77 -10v-70q-29 10 -61 10t-48 -16t-16 -60v-600q0 -144 -138 -144q-40 0 -77 10v70q30 -10 62 -10t47.5 16t15.5 60v600z" />
    <glyph glyph-name="approxequal" unicode="&#x2248;" horiz-adv-x="500" 
d="M431 484q0 -98 -76 -98q-23 0 -102 18t-95 18q-31 0 -31 -36h-55q0 98 76 98q21 0 101.5 -17.5t96.5 -17.5q30 0 30 35h55zM431 277q0 -99 -76 -99q-23 0 -102 18t-95 18q-31 0 -31 -36h-55q0 99 76 99q21 0 101.5 -18t96.5 -18q30 0 30 36h55z" />
    <glyph glyph-name="notequal" unicode="&#x2260;" horiz-adv-x="563" 
d="M350 394l-68 -129h220v-72h-254l-103 -193h-79l103 193h-108v72h142l68 129h-210v72h245l111 214h80l-112 -214h117v-72h-152z" />
    <glyph glyph-name="lessequal" unicode="&#x2264;" horiz-adv-x="567" 
d="M503 227l-441 100v100l441 99v-72l-355 -78l355 -77v-72zM503 70h-441v68h441v-68z" />
    <glyph glyph-name="greaterequal" unicode="&#x2265;" horiz-adv-x="567" 
d="M62 227v72l356 77l-356 78v72l441 -99v-100zM62 70v68h441v-68h-441z" />
    <glyph glyph-name="lozenge" unicode="&#x25ca;" horiz-adv-x="553" 
d="M518 340l-204 -350h-75l-205 350l205 350h75zM421 340l-143 245l-146 -245l146 -245z" />
    <glyph glyph-name="uniFBB2" unicode="&#xfbb2;" 
d="M1 570l-74 73l72 72l75 -72z" />
    <glyph glyph-name="uniFBB3" unicode="&#xfbb3;" 
d="M1 -227l-74 72l72 73l75 -73z" />
    <glyph glyph-name="uniFBB4" unicode="&#xfbb4;" 
d="M-79 555l-73 72l73 72l73 -72zM80 555l-74 72l74 72l73 -72z" />
    <glyph glyph-name="uniFBB5" unicode="&#xfbb5;" 
d="M-79 -245l-73 72l73 72l73 -72zM80 -245l-74 72l74 72l73 -72z" />
    <glyph glyph-name="uniFBB6" unicode="&#xfbb6;" 
d="M1 718l-53 52l52 53l53 -53zM-82 575l-74 73l73 72l73 -72zM83 575l-74 73l74 72l73 -72z" />
    <glyph glyph-name="uniFBB9" unicode="&#xfbb9;" 
d="M-82 -249l-73 73l72 72l74 -72zM84 -249l-75 73l74 72l73 -72zM1 -343l-47 47l46 47l48 -47z" />
    <glyph glyph-name="uniFD3E" unicode="&#xfd3e;" horiz-adv-x="300" 
d="M313 -143q-46 0 -81 7t-67 25t-49.5 54t-17.5 89q0 32 10 98t10 97q0 44 -21 62.5t-65 18.5v64q44 0 65 18.5t21 62.5q0 31 -10 97.5t-10 98.5q0 52 17.5 88t49.5 54t67 25t81 7v-65q-71 0 -97.5 -27t-26.5 -85q0 -28 9.5 -92.5t9.5 -92.5q0 -103 -101 -121
q101 -18 101 -121q0 -27 -9.5 -91.5t-9.5 -93.5q0 -58 26.5 -85t97.5 -27v-65z" />
    <glyph glyph-name="uniFD3F" unicode="&#xfd3f;" horiz-adv-x="300" 
d="M313 308q-44 0 -65.5 -18.5t-21.5 -62.5q0 -31 10 -97t10 -98q0 -42 -12 -74t-31 -51t-48 -30.5t-58.5 -15.5t-65.5 -4v65q72 0 98.5 27t26.5 85q0 29 -9.5 93.5t-9.5 91.5q0 102 100 121q-100 19 -100 121q0 28 9.5 92.5t9.5 92.5q0 58 -26.5 85t-98.5 27v65
q46 0 81.5 -7t67.5 -25t49 -54t17 -88q0 -32 -10 -98.5t-10 -97.5q0 -44 21.5 -62.5t65.5 -18.5v-64z" />
    <glyph glyph-name="uni0627.short" horiz-adv-x="257" 
d="M90 0v590l85 13v-603h-85z" />
    <glyph glyph-name="uniFE8E.short" horiz-adv-x="297" 
d="M297 0q-210 0 -210 200l-1 390l85 13v-383q0 -130 125 -130q10 0 10 -9l1 -71q0 -10 -10 -10z" />
    <glyph glyph-name="uni066E.medi.alt" horiz-adv-x="376" 
d="M376 90q10 0 10 -9v-71q0 -10 -10 -10q-93 0 -172 73q-54 -73 -204 -73q-10 0 -10 10l1 71q0 9 10 9q80 0 116.5 29.5t36.5 95.5v162l84 13v-198q0 -25 -5 -52q67 -50 143 -50z" />
    <glyph glyph-name="uni066E.init.alt" horiz-adv-x="353" 
d="M0 0q-10 0 -10 10l1 71q0 9 10 9h76q125 0 125 125v268l84 14v-305q0 -92 -53 -142t-157 -50h-76z" />
    <glyph glyph-name="dotcenterar" 
d="M1 172l-74 73l72 72l75 -72z" />
    <glyph glyph-name="waslaar" 
d="M49 658q35 0 59.5 -23t24.5 -57q0 -44 -39.5 -69t-108.5 -25q-65 0 -140 30l14 44q32 -11 42 -13q49 62 81.5 87.5t66.5 25.5zM-15 533q92 0 92 45q0 13 -11 22.5t-26 9.5q-20 0 -40.5 -15.5t-58.5 -57.5q21 -4 44 -4z" />
    <glyph glyph-name="hamzacenterar" 
d="M4 551h138l-20 -67h-237v67h61q-19 29 -19 62q0 44 29.5 71.5t76.5 27.5q37 0 77 -20v-61q-44 15 -68 15q-26 0 -41.5 -13t-15.5 -35q0 -25 19 -47z" />
    <glyph glyph-name="hamzaaboveDammaar" 
d="M145 1003q0 -88 -98 -106l-191 -35l-8 44l127 25q-23 33 -23 67q0 45 27.5 73t71.5 28q39 0 66.5 -28t27.5 -68zM21 941l17 3q59 12 59 57q0 22 -14 36t-36 14q-21 0 -35.5 -15.5t-14.5 -39.5q0 -28 24 -55zM-16 746q0 -27 17 -47h130l-13 -57h-226v57h54q-16 26 -16 58
q0 37 25.5 61.5t65.5 24.5q34 0 77 -19v-49q-35 15 -64 15q-22 0 -36 -12.5t-14 -31.5z" />
    <glyph glyph-name="hamzaaboveDammatanar" 
d="M67 1103q39 0 66 -28t27 -68q0 -86 -96 -106l-195 -37l-27 41q42 24 42 58q0 19 -15 32.5t-43 16.5l9 41q47 -4 72.5 -27.5t25.5 -56.5q0 -27 -17 -51l76 17q-23 29 -24 64q-1 46 27 75t72 29zM54 948q60 12 60 57q0 22 -14.5 36t-36.5 14q-21 0 -35.5 -15.5t-14.5 -39.5
q0 -27 23 -56zM-16 746q0 -27 17 -47h130l-13 -57h-226v57h54q-16 26 -16 58q0 37 25.5 61.5t65.5 24.5q34 0 77 -19v-49q-35 15 -64 15q-22 0 -36 -12.5t-14 -31.5z" />
    <glyph glyph-name="hamzaaboveFathaar" 
d="M118 973l10 -48l-255 -54l-9 47zM1 699h130l-13 -57h-226v57h54q-16 26 -16 58q0 37 25.5 61.5t65.5 24.5q34 0 77 -19v-49q-35 15 -64 15q-22 0 -36 -12.5t-14 -31.5q0 -27 17 -47z" />
    <glyph glyph-name="hamzaaboveFathatanar" 
d="M107 1056l10 -44l-251 -52l-10 43zM125 963l8 -43l-250 -53l-9 43zM-16 746q0 -27 17 -47h130l-13 -57h-226v57h54q-16 26 -16 58q0 37 25.5 61.5t65.5 24.5q34 0 77 -19v-49q-35 15 -64 15q-22 0 -36 -12.5t-14 -31.5z" />
    <glyph glyph-name="hamzaaboveSukunar" 
d="M15 887q-45 0 -70 27t-25 77q0 51 28 79t75 28q44 0 70 -29t26 -77q0 -49 -29 -77t-75 -28zM18 1051q-19 0 -35 -15t-16 -43q0 -59 53 -59q22 0 37 14.5t15 42.5q0 29 -15.5 44.5t-38.5 15.5zM1 699h130l-13 -57h-226v57h54q-16 26 -16 58q0 37 25.5 61.5t65.5 24.5
q34 0 77 -19v-49q-35 15 -64 15q-22 0 -36 -12.5t-14 -31.5q0 -27 17 -47z" />
    <glyph glyph-name="hamzabelowKasraar" 
d="M117 -213l-13 -57h-226v57h55q-16 26 -16 58q0 37 25.5 61.5t64.5 24.5q35 0 78 -19v-49q-35 15 -64 15q-22 0 -36 -12t-14 -32q0 -29 17 -47h129zM124 -297l10 -48l-255 -54l-9 47z" />
    <glyph glyph-name="hamzabelowKasratanar" 
d="M117 -213l-13 -57h-226v57h55q-16 26 -16 58q0 37 25.5 61.5t64.5 24.5q35 0 78 -19v-49q-35 15 -64 15q-22 0 -36 -12t-14 -32q0 -29 17 -47h129zM123 -299l10 -44l-251 -52l-10 43zM141 -392l8 -43l-250 -53l-9 43z" />
    <glyph glyph-name="shaddaAlefabovear" 
d="M17 750h-57q-14 39 -14 90v92l59 -20v-72q0 -51 12 -90zM135 729q19 -57 19 -93q0 -38 -21.5 -59.5t-56.5 -21.5q-39 0 -62 34q-8 -27 -28 -43t-48 -16q-67 0 -81 84l-9 57l46 7l9 -51q9 -50 40 -50q18 0 28.5 12.5t10.5 35.5q0 6 -2 20l-9 46l45 9l9 -46q5 -26 18 -39
t30 -12q34 2 34 38q0 26 -17 71z" />
    <glyph glyph-name="shaddaDammaar" 
d="M114 881q0 -88 -98 -106l-191 -36l-8 45l127 25q-23 33 -23 67q0 45 27.5 73t71.5 28q39 0 66.5 -28.5t27.5 -67.5zM-10 819l17 3q59 11 59 56q0 23 -14 37t-36 14q-21 0 -35.5 -15.5t-14.5 -39.5q0 -28 24 -55zM135 729q19 -57 19 -93q0 -38 -21.5 -59.5t-56.5 -21.5
q-39 0 -62 34q-8 -27 -28 -43t-48 -16q-67 0 -81 84l-9 57l46 7l9 -51q9 -50 40 -50q18 0 28.5 12.5t10.5 35.5q0 6 -2 20l-9 46l45 9l9 -46q5 -26 18 -39t30 -12q34 2 34 38q0 26 -17 71z" />
    <glyph glyph-name="shaddaDammatanar" 
d="M-176 783q43 22 43 58q-2 42 -59 48l10 42q46 -4 71.5 -27.5t25.5 -56.5q0 -27 -17 -52l77 17q-24 30 -24 65q-1 45 27 74.5t71 29.5q39 0 66.5 -28.5t27.5 -68.5q0 -85 -96 -106l-195 -37zM-4 878q0 -29 24 -57l17 4q59 12 59 57q0 22 -14 36.5t-36 14.5
q-21 0 -35.5 -16t-14.5 -39zM135 729q19 -57 19 -93q0 -38 -21.5 -59.5t-56.5 -21.5q-39 0 -62 34q-8 -27 -28 -43t-48 -16q-67 0 -81 84l-9 57l46 7l9 -51q9 -50 40 -50q18 0 28.5 12.5t10.5 35.5q0 6 -2 20l-9 46l45 9l9 -46q5 -26 18 -39t30 -12q34 2 34 38q0 26 -17 71z
" />
    <glyph glyph-name="shaddaFathaar" 
d="M91 851l10 -48l-255 -54l-9 47zM135 729q19 -57 19 -93q0 -38 -21.5 -59.5t-56.5 -21.5q-39 0 -62 34q-8 -27 -28 -43t-48 -16q-67 0 -81 84l-9 57l46 7l9 -51q9 -50 40 -50q18 0 28.5 12.5t10.5 35.5q0 6 -2 20l-9 46l45 9l9 -46q5 -26 18 -39t30 -12q34 2 34 38
q0 26 -17 71z" />
    <glyph glyph-name="shaddaFathatanar" 
d="M80 934l10 -44l-251 -52l-10 43zM106 798l-250 -53l-9 43l251 53zM135 729q19 -57 19 -93q0 -38 -21.5 -59.5t-56.5 -21.5q-39 0 -62 34q-8 -27 -28 -43t-48 -16q-67 0 -81 84l-9 57l46 7l9 -51q9 -50 40 -50q18 0 28.5 12.5t10.5 35.5q0 6 -2 20l-9 46l45 9l9 -46
q5 -26 18 -39t30 -12q34 2 34 38q0 26 -17 71z" />
    <glyph glyph-name="shaddaKasraar" 
d="M14 589q-8 -27 -28 -43t-48 -16q-67 0 -81 84l-9 57l46 7l9 -51q9 -50 40 -50q18 0 28.5 12.5t10.5 35.5q0 6 -2 20l-9 46l45 9l9 -46q5 -26 18 -39t30 -12q34 2 34 38q0 26 -17 71l45 17q19 -57 19 -93q0 -38 -21.5 -59.5t-56.5 -21.5q-39 0 -62 34zM156 525l10 -48
l-255 -54l-9 47z" />
    <glyph glyph-name="shaddaKasratanar" 
d="M14 589q-8 -27 -28 -43t-48 -16q-67 0 -81 84l-9 57l46 7l9 -51q9 -50 40 -50q18 0 28.5 12.5t10.5 35.5q0 6 -2 20l-9 46l45 9l9 -46q5 -26 18 -39t30 -12q34 2 34 38q0 26 -17 71l45 17q19 -57 19 -93q0 -38 -21.5 -59.5t-56.5 -21.5q-39 0 -62 34zM149 523l10 -44
l-251 -52l-10 43zM167 430l8 -43l-250 -53l-9 43z" />
    <glyph glyph-name="terminal1" horiz-adv-x="568" 
d="M85 388l74 -10q-16 -89 -16 -137q0 -151 184 -151h247q10 0 10 -9v-71q0 -10 -10 -10h-267q-119 0 -181.5 55t-62.5 162q0 68 22 171z" />
    <glyph glyph-name="terminal2" horiz-adv-x="572" 
d="M107 440l74 -10q-24 -116 -24 -185q0 -155 185 -155h239q10 0 10 -9v-71q0 -10 -10 -10h-260q-120 0 -182.5 56t-62.5 166q0 85 31 218z" />
    <glyph glyph-name="terminal1.alt" horiz-adv-x="484" 
d="M98 388l74 -10q-16 -89 -16 -137q0 -151 184 -151h117q10 0 10 -9v-71q0 -10 -10 -10h-137q-119 0 -181.5 55t-62.5 162q0 68 22 171z" />
    <glyph glyph-name="terminal3" horiz-adv-x="383" 
d="M401 -125q10 0 10 -10v-70q0 -10 -10 -10h-382l-19 90h401z" />
    <glyph glyph-name="terminal4" horiz-adv-x="383" 
d="M382 -125l-18 -90h-382q-10 0 -10 10v70q0 10 10 10h400z" />
    <glyph glyph-name="waslear.alt" horiz-adv-x="218" 
d="M65 152q76 -62 153 -62q10 0 10 -9v-71q0 -10 -10 -10q-109 0 -194 102z" />
    </font>
</defs>
</svg>
